SplineFontDB: 3.2
FontName: AtkinsonHyperPro-BoldItalic
FullName: Atkinson Hyperlegible Pro Bold Italic
FamilyName: Atkinson Hyperlegible Pro
Weight: Bold
Copyright: Copyright 2020 Braille Institute of America, Inc.
Version: 1.000
ItalicAngle: -12
UnderlinePosition: -106
UnderlineWidth: 57
Ascent: 800
Descent: 200
InvalidEm: 0
sfntRevision: 0x00010000
LayerCount: 2
Layer: 0 1 "Back" 1
Layer: 1 1 "Fore" 0
XUID: [1021 466 782043844 14962]
StyleMap: 0x0021
FSType: 0
OS2Version: 4
OS2_WeightWidthSlopeOnly: 0
OS2_UseTypoMetrics: 1
CreationTime: 1618935638
ModificationTime: 1693375625
PfmFamily: 81
TTFWeight: 700
TTFWidth: 5
LineGap: 0
VLineGap: 0
Panose: 0 0 0 0 0 0 0 0 0 0
OS2TypoAscent: 950
OS2TypoAOffset: 0
OS2TypoDescent: -290
OS2TypoDOffset: 0
OS2TypoLinegap: 0
OS2WinAscent: 950
OS2WinAOffset: 0
OS2WinDescent: 290
OS2WinDOffset: 0
HheadAscent: 950
HheadAOffset: 0
HheadDescent: -290
HheadDOffset: 0
OS2SubXSize: 650
OS2SubYSize: 699
OS2SubXOff: 0
OS2SubYOff: 140
OS2SupXSize: 650
OS2SupYSize: 699
OS2SupXOff: 0
OS2SupYOff: 479
OS2StrikeYSize: 49
OS2StrikeYPos: 258
OS2CapHeight: 668
OS2XHeight: 496
OS2Vendor: 'NONE'
OS2CodePages: 20000003.00000000
OS2UnicodeRanges: 800000ef.0000204b.00000000.00000000
Lookup: 1 0 0 "'zero' Slashed Zero lookup 0" { "'zero' Slashed Zero lookup 0-1"  } ['zero' ('DFLT' <'dflt' > 'grek' <'dflt' > 'latn' <'MOL ' 'dflt' > ) ]
Lookup: 1 0 0 "'aalt' Access All Alternates lookup 0" { "'aalt' Access All Alternates lookup 0 subtable"  } ['aalt' ('DFLT' <'dflt' > 'grek' <'dflt' > 'latn' <'dflt' > ) ]
Lookup: 3 0 0 "'aalt' Access All Alternates lookup 1" { "'aalt' Access All Alternates lookup 1 subtable"  } ['aalt' ('DFLT' <'dflt' > 'grek' <'dflt' > 'latn' <'dflt' > ) ]

StartChar: .notdef
Encoding: 65536 -1 0
Width: 676
GlyphClass: 1
Flags: W
LayerCount: 2
Fore
SplineSet
129 0 m 1,0,-1
 129 700 l 1,1,-1
 556 700 l 1,2,-1
 556 0 l 1,3,-1
 129 0 l 1,0,-1
342 371 m 1,4,-1
 528 680 l 1,5,-1
 157 680 l 1,6,-1
 342 371 l 1,4,-1
536 47 m 1,7,-1
 536 652 l 1,8,-1
 355 350 l 1,9,-1
 536 47 l 1,7,-1
150 49 m 1,10,-1
 330 350 l 1,11,-1
 150 650 l 1,12,-1
 150 49 l 1,10,-1
158 21 m 1,13,-1
 528 21 l 1,14,-1
 343 329 l 1,15,-1
 158 21 l 1,13,-1
EndSplineSet
EndChar

StartChar: zero
Encoding: 48 48 5
Width: 659
GlyphClass: 1
Flags: W
LayerCount: 2
Fore
SplineSet
300 -12 m 0,0,1
 174 -12 174 -12 110.5 64 c 128,-1,2
 47 140 47 140 47 271 c 0,3,4
 47 302 47 302 50 335 c 0,5,6
 67 496 67 496 149.5 588 c 128,-1,7
 232 680 232 680 372 680 c 0,8,9
 498 680 498 680 561.5 605.5 c 128,-1,10
 625 531 625 531 625 398 c 0,11,12
 625 368 625 368 622 335 c 0,13,14
 611 229 611 229 570.5 151 c 128,-1,15
 530 73 530 73 462 30.5 c 128,-1,16
 394 -12 394 -12 300 -12 c 0,0,1
444 227 m 1,17,18
 452 250 452 250 457.5 277 c 128,-1,19
 463 304 463 304 466 335 c 0,20,21
 468 349 468 349 469 364.5 c 128,-1,22
 470 380 470 380 470 396 c 0,23,24
 470 436 470 436 461.5 475 c 128,-1,25
 453 514 453 514 429 540.5 c 128,-1,26
 405 567 405 567 360 567 c 0,27,28
 323 567 323 567 291 544 c 1,29,-1
 444 227 l 1,17,18
312 101 m 0,30,31
 352 101 352 101 385 128 c 1,32,-1
 230 450 l 1,33,34
 222 426 222 426 215.5 397.5 c 128,-1,35
 209 369 209 369 206 335 c 0,36,37
 205 319 205 319 203.5 303.5 c 128,-1,38
 202 288 202 288 202 273 c 0,39,40
 202 199 202 199 227.5 150 c 128,-1,41
 253 101 253 101 312 101 c 0,30,31
EndSplineSet
Substitution2: "'zero' Slashed Zero lookup 0-1" zero.alt1
Substitution2: "'aalt' Access All Alternates lookup 0 subtable" zero.alt1
Substitution2: "'tnum' Tabular Numbers lookup 14 subtable" zero.tf
EndChar

StartChar: one
Encoding: 49 49 6
Width: 455
GlyphClass: 1
Flags: W
LayerCount: 2
Fore
SplineSet
132 0 m 1,0,-1
 228 449 l 1,1,-1
 72 449 l 1,2,-1
 98 571 l 1,3,4
 152 571 152 571 190 578.5 c 128,-1,5
 228 586 228 586 256.5 607 c 128,-1,6
 285 628 285 628 310 668 c 1,7,-1
 428 668 l 1,8,-1
 287 0 l 1,9,-1
 132 0 l 1,0,-1
EndSplineSet
Substitution2: "'tnum' Tabular Numbers lookup 14 subtable" one.tf
Substitution2: "'sups' Superscript lookup 9 subtable" uni00B9
AlternateSubs2: "'aalt' Access All Alternates lookup 1 subtable" uni00B9 one.tf
EndChar

StartChar: two
Encoding: 50 50 7
Width: 587
GlyphClass: 1
Flags: W
LayerCount: 2
Fore
SplineSet
-35 0 m 1,0,-1
 -9 125 l 1,1,2
 118 190 118 190 214.5 253 c 128,-1,3
 311 316 311 316 365.5 376 c 128,-1,4
 420 436 420 436 420 490 c 0,5,6
 420 528 420 528 394.5 548 c 128,-1,7
 369 568 369 568 334 568 c 0,8,9
 301 568 301 568 266.5 549 c 128,-1,10
 232 530 232 530 208 489 c 1,11,-1
 81 539 l 1,12,13
 108 587 108 587 151.5 618 c 128,-1,14
 195 649 195 649 247 664.5 c 128,-1,15
 299 680 299 680 350 680 c 0,16,17
 410 680 410 680 462 660 c 128,-1,18
 514 640 514 640 546 600.5 c 128,-1,19
 578 561 578 561 578 502 c 0,20,21
 578 447 578 447 548.5 395 c 128,-1,22
 519 343 519 343 467.5 295.5 c 128,-1,23
 416 248 416 248 348.5 205.5 c 128,-1,24
 281 163 281 163 204 125 c 1,25,-1
 504 125 l 1,26,-1
 478 0 l 1,27,-1
 -35 0 l 1,0,-1
EndSplineSet
Substitution2: "'tnum' Tabular Numbers lookup 14 subtable" two.tf
Substitution2: "'sups' Superscript lookup 9 subtable" uni00B2
AlternateSubs2: "'aalt' Access All Alternates lookup 1 subtable" uni00B2 two.tf
EndChar

StartChar: three
Encoding: 51 51 8
Width: 619
GlyphClass: 1
Flags: W
LayerCount: 2
Fore
SplineSet
267 -12 m 0,0,1
 211 -12 211 -12 160 1.5 c 128,-1,2
 109 15 109 15 69 48 c 128,-1,3
 29 81 29 81 6 140 c 1,4,-1
 155 190 l 1,5,6
 163 141 163 141 196 121 c 128,-1,7
 229 101 229 101 268 101 c 0,8,9
 314 101 314 101 347.5 125 c 128,-1,10
 381 149 381 149 381 190 c 0,11,12
 381 223 381 223 365 243 c 128,-1,13
 349 263 349 263 322.5 273.5 c 128,-1,14
 296 284 296 284 265 287.5 c 128,-1,15
 234 291 234 291 205 291 c 1,16,-1
 227 397 l 1,17,18
 311 397 311 397 365 418 c 128,-1,19
 419 439 419 439 419 488 c 0,20,21
 419 528 419 528 391.5 547.5 c 128,-1,22
 364 567 364 567 326 567 c 0,23,24
 286 567 286 567 251.5 549.5 c 128,-1,25
 217 532 217 532 204 485 c 1,26,-1
 77 535 l 1,27,28
 121 618 121 618 190 649 c 128,-1,29
 259 680 259 680 344 680 c 0,30,31
 408 680 408 680 461.5 660.5 c 128,-1,32
 515 641 515 641 547 604 c 128,-1,33
 579 567 579 567 579 513 c 0,34,35
 579 465 579 465 563 433 c 128,-1,36
 547 401 547 401 521.5 381 c 128,-1,37
 496 361 496 361 465 349 c 1,38,39
 506 326 506 326 524.5 286.5 c 128,-1,40
 543 247 543 247 539 200 c 0,41,42
 533 130 533 130 494.5 82.5 c 128,-1,43
 456 35 456 35 396 11.5 c 128,-1,44
 336 -12 336 -12 267 -12 c 0,0,1
EndSplineSet
Substitution2: "'tnum' Tabular Numbers lookup 14 subtable" three.tf
Substitution2: "'sups' Superscript lookup 9 subtable" uni00B3
AlternateSubs2: "'aalt' Access All Alternates lookup 1 subtable" uni00B3 three.tf
EndChar

StartChar: four
Encoding: 52 52 9
Width: 646
GlyphClass: 1
Flags: W
LayerCount: 2
Fore
SplineSet
294 0 m 1,0,-1
 324 141 l 1,1,-1
 -16 141 l 1,2,-1
 7 252 l 1,3,-1
 421 668 l 1,4,-1
 592 668 l 1,5,-1
 508 275 l 1,6,-1
 600 275 l 1,7,-1
 572 141 l 1,8,-1
 480 141 l 1,9,-1
 450 0 l 1,10,-1
 294 0 l 1,0,-1
193 275 m 1,11,-1
 352 275 l 1,12,-1
 394 469 l 1,13,-1
 193 275 l 1,11,-1
EndSplineSet
Substitution2: "'tnum' Tabular Numbers lookup 14 subtable" four.tf
Substitution2: "'sups' Superscript lookup 9 subtable" uni2074
AlternateSubs2: "'aalt' Access All Alternates lookup 1 subtable" four.tf uni2074
EndChar

StartChar: five
Encoding: 53 53 10
Width: 616
GlyphClass: 1
Flags: W
LayerCount: 2
Fore
SplineSet
268 -12 m 0,0,1
 212 -12 212 -12 159.5 5.5 c 128,-1,2
 107 23 107 23 69 57.5 c 128,-1,3
 31 92 31 92 17 142 c 1,4,-1
 156 189 l 1,5,6
 164 145 164 145 197.5 122.5 c 128,-1,7
 231 100 231 100 269 100 c 0,8,9
 322 100 322 100 355 134 c 128,-1,10
 388 168 388 168 388 223 c 0,11,12
 388 262 388 262 372 287.5 c 128,-1,13
 356 313 356 313 330.5 325 c 128,-1,14
 305 337 305 337 277 337 c 0,15,16
 244 337 244 337 214 321.5 c 128,-1,17
 184 306 184 306 168 276 c 1,18,-1
 41 327 l 1,19,-1
 156 668 l 1,20,-1
 586 668 l 1,21,-1
 560 544 l 1,22,-1
 259 544 l 1,23,-1
 217 419 l 1,24,25
 242 433 242 433 272 440.5 c 128,-1,26
 302 448 302 448 333 448 c 0,27,28
 385 448 385 448 433.5 426.5 c 128,-1,29
 482 405 482 405 513 359.5 c 128,-1,30
 544 314 544 314 544 242 c 0,31,32
 544 162 544 162 507 105 c 128,-1,33
 470 48 470 48 407.5 18 c 128,-1,34
 345 -12 345 -12 268 -12 c 0,0,1
EndSplineSet
Substitution2: "'tnum' Tabular Numbers lookup 14 subtable" five.tf
Substitution2: "'aalt' Access All Alternates lookup 0 subtable" five.tf
EndChar

StartChar: six
Encoding: 54 54 11
Width: 629
GlyphClass: 1
Flags: W
LayerCount: 2
Fore
SplineSet
289 -12 m 0,0,1
 203 -12 203 -12 148.5 22.5 c 128,-1,2
 94 57 94 57 68.5 118 c 128,-1,3
 43 179 43 179 43 258 c 0,4,5
 43 344 43 344 65 420 c 128,-1,6
 87 496 87 496 128.5 554.5 c 128,-1,7
 170 613 170 613 231 646.5 c 128,-1,8
 292 680 292 680 370 680 c 0,9,10
 444 680 444 680 493 653 c 128,-1,11
 542 626 542 626 567 583 c 1,12,-1
 429 535 l 1,13,14
 418 552 418 552 399 561 c 128,-1,15
 380 570 380 570 352 570 c 0,16,17
 300 570 300 570 265 526 c 128,-1,18
 230 482 230 482 220 409 c 1,19,20
 246 429 246 429 275 440.5 c 128,-1,21
 304 452 304 452 349 452 c 0,22,23
 407 452 407 452 455.5 427 c 128,-1,24
 504 402 504 402 533 355 c 128,-1,25
 562 308 562 308 562 243 c 0,26,27
 562 171 562 171 526.5 113 c 128,-1,28
 491 55 491 55 429 21.5 c 128,-1,29
 367 -12 367 -12 289 -12 c 0,0,1
293 101 m 0,30,31
 341 101 341 101 373.5 137 c 128,-1,32
 406 173 406 173 407 227 c 0,33,34
 407 284 407 284 380 311.5 c 128,-1,35
 353 339 353 339 308 339 c 0,36,37
 250 339 250 339 221 302 c 128,-1,38
 192 265 192 265 192 209 c 0,39,40
 192 162 192 162 219.5 131.5 c 128,-1,41
 247 101 247 101 293 101 c 0,30,31
EndSplineSet
Substitution2: "'tnum' Tabular Numbers lookup 14 subtable" six.tf
Substitution2: "'aalt' Access All Alternates lookup 0 subtable" six.tf
EndChar

StartChar: seven
Encoding: 55 55 12
Width: 561
GlyphClass: 1
Flags: W
LayerCount: 2
Fore
SplineSet
13 0 m 1,0,-1
 400 543 l 1,1,-1
 53 543 l 1,2,-1
 80 668 l 1,3,-1
 593 668 l 1,4,-1
 567 543 l 1,5,-1
 194 0 l 1,6,-1
 13 0 l 1,0,-1
EndSplineSet
Substitution2: "'tnum' Tabular Numbers lookup 14 subtable" seven.tf
Substitution2: "'aalt' Access All Alternates lookup 0 subtable" seven.tf
EndChar

StartChar: eight
Encoding: 56 56 13
Width: 623
GlyphClass: 1
Flags: W
LayerCount: 2
Fore
SplineSet
274 -12 m 0,0,1
 193 -12 193 -12 134.5 13 c 128,-1,2
 76 38 76 38 44 83 c 128,-1,3
 12 128 12 128 12 186 c 0,4,5
 12 254 12 254 47.5 299 c 128,-1,6
 83 344 83 344 147 378 c 1,7,8
 135 400 135 400 128 424.5 c 128,-1,9
 121 449 121 449 121 477 c 0,10,11
 121 528 121 528 147 574.5 c 128,-1,12
 173 621 173 621 221 650.5 c 128,-1,13
 269 680 269 680 334 680 c 0,14,15
 386 680 386 680 425 655.5 c 128,-1,16
 464 631 464 631 486 593 c 128,-1,17
 508 555 508 555 508 512 c 0,18,19
 508 478 508 478 493 437 c 128,-1,20
 478 396 478 396 455 373 c 1,21,22
 499 350 499 350 527.5 313 c 128,-1,23
 556 276 556 276 556 211 c 0,24,25
 556 147 556 147 520.5 96.5 c 128,-1,26
 485 46 485 46 421.5 17 c 128,-1,27
 358 -12 358 -12 274 -12 c 0,0,1
307 417 m 0,28,29
 336 417 336 417 359 440 c 128,-1,30
 382 463 382 463 382 494 c 0,31,32
 382 520 382 520 364.5 537.5 c 128,-1,33
 347 555 347 555 321 555 c 0,34,35
 292 555 292 555 269 533 c 128,-1,36
 246 511 246 511 246 479 c 0,37,38
 246 453 246 453 263.5 435 c 128,-1,39
 281 417 281 417 307 417 c 0,28,29
280 114 m 0,40,41
 334 114 334 114 368 142.5 c 128,-1,42
 402 171 402 171 402 215 c 0,43,44
 402 253 402 253 370.5 273.5 c 128,-1,45
 339 294 339 294 291 294 c 0,46,47
 236 294 236 294 201.5 269 c 128,-1,48
 167 244 167 244 167 198 c 0,49,50
 167 161 167 161 198.5 137.5 c 128,-1,51
 230 114 230 114 280 114 c 0,40,41
EndSplineSet
Substitution2: "'tnum' Tabular Numbers lookup 14 subtable" eight.tf
Substitution2: "'aalt' Access All Alternates lookup 0 subtable" eight.tf
EndChar

StartChar: nine
Encoding: 57 57 14
Width: 576
GlyphClass: 1
Flags: W
LayerCount: 2
Fore
SplineSet
106 0 m 1,0,-1
 271 222 l 1,1,-1
 254 222 l 2,2,3
 194 224 194 224 151 252 c 128,-1,4
 108 280 108 280 85 324.5 c 128,-1,5
 62 369 62 369 62 420 c 0,6,7
 62 473 62 473 83.5 520.5 c 128,-1,8
 105 568 105 568 142.5 604 c 128,-1,9
 180 640 180 640 228.5 660.5 c 128,-1,10
 277 681 277 681 332 681 c 0,11,12
 396 681 396 681 446.5 653.5 c 128,-1,13
 497 626 497 626 526.5 578.5 c 128,-1,14
 556 531 556 531 556 472 c 0,15,16
 556 437 556 437 543.5 398.5 c 128,-1,17
 531 360 531 360 502 319 c 0,18,19
 484 293 484 293 458.5 256.5 c 128,-1,20
 433 220 433 220 405 180 c 128,-1,21
 377 140 377 140 351.5 103 c 128,-1,22
 326 66 326 66 307 38.5 c 128,-1,23
 288 11 288 11 280 0 c 1,24,-1
 106 0 l 1,0,-1
297 336 m 0,25,26
 334 336 334 336 361 353.5 c 128,-1,27
 388 371 388 371 402.5 397.5 c 128,-1,28
 417 424 417 424 417 452 c 0,29,30
 417 494 417 494 393 520 c 128,-1,31
 369 546 369 546 327 546 c 0,32,33
 290 546 290 546 262 529 c 128,-1,34
 234 512 234 512 218 484 c 128,-1,35
 202 456 202 456 202 422 c 0,36,37
 202 380 202 380 230.5 358 c 128,-1,38
 259 336 259 336 297 336 c 0,25,26
EndSplineSet
Substitution2: "'tnum' Tabular Numbers lookup 14 subtable" nine.tf
Substitution2: "'aalt' Access All Alternates lookup 0 subtable" nine.tf
EndChar

StartChar: A
Encoding: 65 65 15
Width: 698
GlyphClass: 2
Flags: W
AnchorPoint: "Anchor-2" 577 10 basechar 0
AnchorPoint: "Anchor-1" 427 668 basechar 0
AnchorPoint: "Anchor-0" 296 0 basechar 0
LayerCount: 2
Fore
SplineSet
-65 0 m 1,0,-1
 329 668 l 1,1,-1
 512 668 l 1,2,-1
 623 0 l 1,3,-1
 458 0 l 1,4,-1
 442 119 l 1,5,-1
 187 119 l 1,6,-1
 121 0 l 1,7,-1
 -65 0 l 1,0,-1
255 247 m 1,8,-1
 427 247 l 1,9,-1
 395 501 l 1,10,-1
 255 247 l 1,8,-1
EndSplineSet
Substitution2: "Single Substitution lookup 12 subtable" ordfeminine
Substitution2: "'aalt' Access All Alternates lookup 0 subtable" ordfeminine
EndChar

StartChar: B
Encoding: 66 66 16
Width: 643
GlyphClass: 1
Flags: W
LayerCount: 2
Fore
SplineSet
-23 0 m 1,0,-1
 119 668 l 1,1,-1
 413 668 l 2,2,3
 472 668 472 668 522 656 c 128,-1,4
 572 644 572 644 602.5 613 c 128,-1,5
 633 582 633 582 633 524 c 0,6,7
 633 468 633 468 604.5 423.5 c 128,-1,8
 576 379 576 379 523 355 c 1,9,10
 558 339 558 339 579 308.5 c 128,-1,11
 600 278 600 278 600 229 c 0,12,13
 600 149 600 149 556.5 98.5 c 128,-1,14
 513 48 513 48 441 24 c 128,-1,15
 369 0 369 0 283 0 c 2,16,-1
 -23 0 l 1,0,-1
224 404 m 1,17,-1
 363 404 l 2,18,19
 407 404 407 404 435.5 425.5 c 128,-1,20
 464 447 464 447 464 484 c 0,21,22
 464 509 464 509 446 524 c 128,-1,23
 428 539 428 539 391 539 c 2,24,-1
 253 539 l 1,25,-1
 224 404 l 1,17,-1
166 131 m 1,26,-1
 313 131 l 2,27,28
 366 131 366 131 399.5 157.5 c 128,-1,29
 433 184 433 184 433 222 c 0,30,31
 433 251 433 251 408 266.5 c 128,-1,32
 383 282 383 282 339 282 c 2,33,-1
 198 282 l 1,34,-1
 166 131 l 1,26,-1
EndSplineSet
EndChar

StartChar: C
Encoding: 67 67 17
Width: 673
GlyphClass: 2
Flags: W
AnchorPoint: "Anchor-1" 428 668 basechar 0
AnchorPoint: "Anchor-0" 311 0 basechar 0
LayerCount: 2
Fore
SplineSet
322 -12 m 0,0,1
 240 -12 240 -12 174 18.5 c 128,-1,2
 108 49 108 49 70 110.5 c 128,-1,3
 32 172 32 172 32 265 c 0,4,5
 32 354 32 354 59 429.5 c 128,-1,6
 86 505 86 505 136 561 c 128,-1,7
 186 617 186 617 257.5 648.5 c 128,-1,8
 329 680 329 680 417 680 c 0,9,10
 469 680 469 680 520.5 665.5 c 128,-1,11
 572 651 572 651 612 617 c 128,-1,12
 652 583 652 583 671 525 c 1,13,-1
 525 476 l 1,14,15
 507 518 507 518 474.5 534 c 128,-1,16
 442 550 442 550 401 550 c 0,17,18
 354 550 354 550 317 527.5 c 128,-1,19
 280 505 280 505 254 467 c 128,-1,20
 228 429 228 429 214 381.5 c 128,-1,21
 200 334 200 334 200 283 c 0,22,23
 200 202 200 202 238.5 161.5 c 128,-1,24
 277 121 277 121 338 120 c 0,25,26
 376 120 376 120 412 136 c 128,-1,27
 448 152 448 152 480 194 c 1,28,-1
 616 141 l 1,29,30
 570 70 570 70 497 29 c 128,-1,31
 424 -12 424 -12 322 -12 c 0,0,1
EndSplineSet
EndChar

StartChar: D
Encoding: 68 68 18
Width: 690
GlyphClass: 2
Flags: W
AnchorPoint: "Anchor-1" 404 668 basechar 0
AnchorPoint: "Anchor-0" 292 0 basechar 0
LayerCount: 2
Fore
SplineSet
-23 0 m 1,0,-1
 119 668 l 1,1,-1
 313 668 l 2,2,3
 501 668 501 668 592 577 c 128,-1,4
 683 486 683 486 651 312 c 0,5,6
 635 223 635 223 590.5 162.5 c 128,-1,7
 546 102 546 102 483 66.5 c 128,-1,8
 420 31 420 31 347 15.5 c 128,-1,9
 274 0 274 0 200 0 c 2,10,-1
 -23 0 l 1,0,-1
167 133 m 1,11,-1
 230 133 l 2,12,13
 311 133 311 133 365.5 161.5 c 128,-1,14
 420 190 420 190 450.5 240.5 c 128,-1,15
 481 291 481 291 488 355 c 0,16,17
 500 457 500 457 459.5 497 c 128,-1,18
 419 537 419 537 311 537 c 2,19,-1
 253 537 l 1,20,-1
 167 133 l 1,11,-1
EndSplineSet
EndChar

StartChar: E
Encoding: 69 69 19
Width: 582
GlyphClass: 2
Flags: W
AnchorPoint: "Anchor-2" 463 -12 basechar 0
AnchorPoint: "Anchor-1" 384 668 basechar 0
AnchorPoint: "Anchor-0" 238 0 basechar 0
LayerCount: 2
Fore
SplineSet
-23 0 m 1,0,-1
 119 668 l 1,1,-1
 637 668 l 1,2,-1
 607 529 l 1,3,-1
 251 529 l 1,4,-1
 226 413 l 1,5,-1
 443 413 l 1,6,-1
 414 274 l 1,7,-1
 197 274 l 1,8,-1
 168 139 l 1,9,-1
 524 139 l 1,10,-1
 495 0 l 1,11,-1
 -23 0 l 1,0,-1
EndSplineSet
EndChar

StartChar: F
Encoding: 70 70 20
Width: 545
GlyphClass: 1
Flags: W
LayerCount: 2
Fore
SplineSet
-23 0 m 1,0,-1
 119 668 l 1,1,-1
 600 668 l 1,2,-1
 571 529 l 1,3,-1
 251 529 l 1,4,-1
 226 413 l 1,5,-1
 546 413 l 1,6,-1
 517 274 l 1,7,-1
 197 274 l 1,8,-1
 138 0 l 1,9,-1
 -23 0 l 1,0,-1
EndSplineSet
EndChar

StartChar: G
Encoding: 71 71 21
Width: 733
GlyphClass: 2
Flags: W
AnchorPoint: "Anchor-1" 440 668 basechar 0
AnchorPoint: "Anchor-0" 304 0 basechar 0
LayerCount: 2
Fore
SplineSet
282 -12 m 0,0,1
 215 -12 215 -12 158 19 c 128,-1,2
 101 50 101 50 66 111 c 128,-1,3
 31 172 31 172 31 261 c 256,4,5
 31 350 31 350 58.5 426.5 c 128,-1,6
 86 503 86 503 137.5 560 c 128,-1,7
 189 617 189 617 261 648.5 c 128,-1,8
 333 680 333 680 422 680 c 0,9,10
 510 680 510 680 577.5 646 c 128,-1,11
 645 612 645 612 677 535 c 1,12,-1
 529 478 l 1,13,14
 519 504 519 504 485.5 527 c 128,-1,15
 452 550 452 550 400 550 c 0,16,17
 351 550 351 550 313.5 526.5 c 128,-1,18
 276 503 276 503 250.5 464 c 128,-1,19
 225 425 225 425 212 376.5 c 128,-1,20
 199 328 199 328 199 278 c 0,21,22
 199 198 199 198 238.5 157.5 c 128,-1,23
 278 117 278 117 344 117 c 0,24,25
 378 117 378 117 412 129.5 c 128,-1,26
 446 142 446 142 471.5 167 c 128,-1,27
 497 192 497 192 505 231 c 2,28,-1
 509 250 l 1,29,-1
 359 250 l 1,30,-1
 386 378 l 1,31,-1
 698 378 l 1,32,-1
 617 0 l 1,33,-1
 510 0 l 1,34,-1
 504 74 l 1,35,36
 421 -12 421 -12 282 -12 c 0,0,1
EndSplineSet
EndChar

StartChar: H
Encoding: 72 72 22
Width: 695
GlyphClass: 1
Flags: W
LayerCount: 2
Fore
SplineSet
-23 0 m 1,0,-1
 119 668 l 1,1,-1
 279 668 l 1,2,-1
 226 413 l 1,3,-1
 502 413 l 1,4,-1
 556 668 l 1,5,-1
 717 668 l 1,6,-1
 575 0 l 1,7,-1
 414 0 l 1,8,-1
 472 274 l 1,9,-1
 197 274 l 1,10,-1
 138 0 l 1,11,-1
 -23 0 l 1,0,-1
EndSplineSet
EndChar

StartChar: I
Encoding: 73 73 23
Width: 459
GlyphClass: 2
Flags: W
AnchorPoint: "Anchor-2" 242 0 basechar 0
AnchorPoint: "Anchor-1" 301 668 basechar 0
AnchorPoint: "Anchor-0" 151 0 basechar 0
LayerCount: 2
Fore
SplineSet
-13 0 m 1,0,-1
 13 124 l 1,1,-1
 105 124 l 1,2,-1
 195 544 l 1,3,-1
 103 544 l 1,4,-1
 129 668 l 1,5,-1
 474 668 l 1,6,-1
 447 544 l 1,7,-1
 355 544 l 1,8,-1
 267 124 l 1,9,-1
 358 124 l 1,10,-1
 331 0 l 1,11,-1
 -13 0 l 1,0,-1
EndSplineSet
EndChar

StartChar: J
Encoding: 74 74 24
Width: 566
GlyphClass: 1
Flags: W
LayerCount: 2
Fore
SplineSet
195 -12 m 0,0,1
 127 -12 127 -12 78 13 c 128,-1,2
 29 38 29 38 2 80.5 c 128,-1,3
 -25 123 -25 123 -28 176 c 1,4,-1
 129 228 l 1,5,6
 128 221 128 221 128 215 c 128,-1,7
 128 209 128 209 128 203 c 0,8,9
 128 162 128 162 146 137.5 c 128,-1,10
 164 113 164 113 212 113 c 0,11,12
 267 113 267 113 295 145 c 128,-1,13
 323 177 323 177 339 256 c 2,14,-1
 426 668 l 1,15,-1
 588 668 l 1,16,-1
 500 256 l 2,17,18
 478 153 478 153 437.5 94.5 c 128,-1,19
 397 36 397 36 336.5 12 c 128,-1,20
 276 -12 276 -12 195 -12 c 0,0,1
EndSplineSet
EndChar

StartChar: K
Encoding: 75 75 25
Width: 657
GlyphClass: 2
Flags: W
AnchorPoint: "Anchor-1" 418 668 basechar 0
AnchorPoint: "Anchor-0" 265 0 basechar 0
LayerCount: 2
Fore
SplineSet
-23 0 m 1,0,-1
 119 668 l 1,1,-1
 279 668 l 1,2,-1
 229 426 l 1,3,-1
 501 668 l 1,4,-1
 715 668 l 1,5,-1
 384 377 l 1,6,-1
 577 0 l 1,7,-1
 411 0 l 1,8,-1
 270 277 l 1,9,-1
 180 197 l 1,10,-1
 138 0 l 1,11,-1
 -23 0 l 1,0,-1
EndSplineSet
EndChar

StartChar: L
Encoding: 76 76 26
Width: 543
GlyphClass: 2
Flags: W
AnchorPoint: "Anchor-1" 361 668 basechar 0
AnchorPoint: "Anchor-0" 219 0 basechar 0
LayerCount: 2
Fore
SplineSet
-23 0 m 1,0,-1
 119 668 l 1,1,-1
 279 668 l 1,2,-1
 168 139 l 1,3,-1
 488 139 l 1,4,-1
 458 0 l 1,5,-1
 -23 0 l 1,0,-1
EndSplineSet
EndChar

StartChar: M
Encoding: 77 77 27
Width: 858
GlyphClass: 1
Flags: W
LayerCount: 2
Fore
SplineSet
-23 0 m 1,0,-1
 119 668 l 1,1,-1
 356 668 l 1,2,-1
 394 193 l 1,3,-1
 635 668 l 1,4,-1
 880 668 l 1,5,-1
 737 0 l 1,6,-1
 581 0 l 1,7,-1
 690 510 l 1,8,-1
 426 0 l 1,9,-1
 294 0 l 1,10,-1
 247 533 l 1,11,-1
 134 0 l 1,12,-1
 -23 0 l 1,0,-1
EndSplineSet
EndChar

StartChar: N
Encoding: 78 78 28
Width: 715
GlyphClass: 2
Flags: W
AnchorPoint: "Anchor-1" 456 668 basechar 0
AnchorPoint: "Anchor-0" 285 0 basechar 0
LayerCount: 2
Fore
SplineSet
-23 0 m 1,0,-1
 119 668 l 1,1,-1
 318 668 l 1,2,-1
 478 183 l 1,3,-1
 582 668 l 1,4,-1
 737 668 l 1,5,-1
 595 0 l 1,6,-1
 396 0 l 1,7,-1
 236 485 l 1,8,-1
 133 0 l 1,9,-1
 -23 0 l 1,0,-1
EndSplineSet
EndChar

StartChar: O
Encoding: 79 79 29
Width: 763
GlyphClass: 2
Flags: W
AnchorPoint: "Anchor-2" 636 10 basechar 0
AnchorPoint: "Anchor-1" 456 668 basechar 0
AnchorPoint: "Anchor-0" 329 0 basechar 0
LayerCount: 2
Fore
SplineSet
335 -12 m 0,0,1
 239 -12 239 -12 171.5 23.5 c 128,-1,2
 104 59 104 59 68 122.5 c 128,-1,3
 32 186 32 186 32 269 c 0,4,5
 32 355 32 355 61 429.5 c 128,-1,6
 90 504 90 504 143 560.5 c 128,-1,7
 196 617 196 617 268 648.5 c 128,-1,8
 340 680 340 680 426 680 c 0,9,10
 517 680 517 680 585.5 647 c 128,-1,11
 654 614 654 614 693 550 c 128,-1,12
 732 486 732 486 732 393 c 0,13,14
 732 306 732 306 702.5 232.5 c 128,-1,15
 673 159 673 159 619.5 104 c 128,-1,16
 566 49 566 49 493.5 18.5 c 128,-1,17
 421 -12 421 -12 335 -12 c 0,0,1
349 118 m 0,18,19
 414 118 414 118 462 154.5 c 128,-1,20
 510 191 510 191 537 251 c 128,-1,21
 564 311 564 311 564 379 c 0,22,23
 564 438 564 438 542.5 475.5 c 128,-1,24
 521 513 521 513 487 531.5 c 128,-1,25
 453 550 453 550 414 550 c 0,26,27
 365 550 365 550 325.5 527.5 c 128,-1,28
 286 505 286 505 258 467 c 128,-1,29
 230 429 230 429 215.5 382 c 128,-1,30
 201 335 201 335 201 286 c 0,31,32
 201 240 201 240 217.5 202 c 128,-1,33
 234 164 234 164 267 141 c 128,-1,34
 300 118 300 118 349 118 c 0,18,19
EndSplineSet
Substitution2: "Single Substitution lookup 12 subtable" ordmasculine
Substitution2: "'aalt' Access All Alternates lookup 0 subtable" ordmasculine
EndChar

StartChar: P
Encoding: 80 80 30
Width: 628
GlyphClass: 1
Flags: W
LayerCount: 2
Fore
SplineSet
-23 0 m 1,0,-1
 119 668 l 1,1,-1
 379 668 l 2,2,3
 476 668 476 668 532.5 646.5 c 128,-1,4
 589 625 589 625 613.5 585 c 128,-1,5
 638 545 638 545 638 490 c 0,6,7
 638 399 638 399 596 342 c 128,-1,8
 554 285 554 285 479 258.5 c 128,-1,9
 404 232 404 232 304 232 c 2,10,-1
 187 232 l 1,11,-1
 138 0 l 1,12,-1
 -23 0 l 1,0,-1
216 363 m 1,13,-1
 319 363 l 2,14,15
 388 363 388 363 429 388 c 128,-1,16
 470 413 470 413 470 468 c 0,17,18
 470 535 470 535 355 535 c 2,19,-1
 252 535 l 1,20,-1
 216 363 l 1,13,-1
EndSplineSet
EndChar

StartChar: Q
Encoding: 81 81 31
Width: 774
GlyphClass: 1
Flags: W
LayerCount: 2
Fore
SplineSet
617 -55 m 1,0,-1
 523 56 l 1,1,2
 483 36 483 36 436.5 25 c 128,-1,3
 390 14 390 14 340 14 c 0,4,5
 244 14 244 14 176.5 50 c 128,-1,6
 109 86 109 86 73 149.5 c 128,-1,7
 37 213 37 213 37 295 c 0,8,9
 37 381 37 381 66 455.5 c 128,-1,10
 95 530 95 530 147.5 586.5 c 128,-1,11
 200 643 200 643 272 674.5 c 128,-1,12
 344 706 344 706 431 706 c 0,13,14
 521 706 521 706 590 673 c 128,-1,15
 659 640 659 640 698 576 c 128,-1,16
 737 512 737 512 737 420 c 0,17,18
 737 339 737 339 707.5 261.5 c 128,-1,19
 678 184 678 184 622 127 c 1,20,-1
 709 25 l 1,21,-1
 617 -55 l 1,0,-1
354 145 m 0,22,23
 396 145 396 145 433 162 c 1,24,-1
 330 285 l 1,25,-1
 421 363 l 1,26,-1
 524 243 l 1,27,28
 545 278 545 278 557 321 c 128,-1,29
 569 364 569 364 569 405 c 0,30,31
 569 464 569 464 547.5 502 c 128,-1,32
 526 540 526 540 492 558 c 128,-1,33
 458 576 458 576 419 576 c 0,34,35
 370 576 370 576 330.5 553.5 c 128,-1,36
 291 531 291 531 263 493 c 128,-1,37
 235 455 235 455 220.5 407.5 c 128,-1,38
 206 360 206 360 206 311 c 0,39,40
 206 266 206 266 222.5 228.5 c 128,-1,41
 239 191 239 191 272 168 c 128,-1,42
 305 145 305 145 354 145 c 0,22,23
EndSplineSet
EndChar

StartChar: R
Encoding: 82 82 32
Width: 644
GlyphClass: 2
Flags: W
AnchorPoint: "Anchor-1" 411 668 basechar 0
AnchorPoint: "Anchor-0" 269 0 basechar 0
LayerCount: 2
Fore
SplineSet
-23 0 m 1,0,-1
 119 668 l 1,1,-1
 369 668 l 2,2,3
 491 668 491 668 560.5 627.5 c 128,-1,4
 630 587 630 587 630 489 c 0,5,6
 630 387 630 387 575.5 335.5 c 128,-1,7
 521 284 521 284 420 269 c 1,8,-1
 557 0 l 1,9,-1
 391 0 l 1,10,-1
 263 252 l 1,11,-1
 192 252 l 1,12,-1
 138 0 l 1,13,-1
 -23 0 l 1,0,-1
220 384 m 1,14,-1
 323 384 l 2,15,16
 362 384 362 384 393.5 390.5 c 128,-1,17
 425 397 425 397 444 416.5 c 128,-1,18
 463 436 463 436 463 473 c 0,19,20
 463 511 463 511 430.5 523 c 128,-1,21
 398 535 398 535 346 535 c 2,22,-1
 252 535 l 1,23,-1
 220 384 l 1,14,-1
EndSplineSet
EndChar

StartChar: S
Encoding: 83 83 33
Width: 642
GlyphClass: 2
Flags: W
AnchorPoint: "Anchor-1" 370 668 basechar 0
AnchorPoint: "Anchor-0" 288 0 basechar 0
LayerCount: 2
Fore
SplineSet
306 -12 m 0,0,1
 197 -12 197 -12 119 33 c 128,-1,2
 41 78 41 78 10 157 c 1,3,-1
 165 209 l 1,4,5
 173 176 173 176 196 155 c 128,-1,6
 219 134 219 134 250.5 124 c 128,-1,7
 282 114 282 114 313 114 c 0,8,9
 357 114 357 114 390.5 131 c 128,-1,10
 424 148 424 148 424 179 c 0,11,12
 424 204 424 204 404.5 221 c 128,-1,13
 385 238 385 238 352.5 250 c 128,-1,14
 320 262 320 262 281 274 c 128,-1,15
 242 286 242 286 203.5 301 c 128,-1,16
 165 316 165 316 132.5 338.5 c 128,-1,17
 100 361 100 361 80.5 394 c 128,-1,18
 61 427 61 427 61 475 c 0,19,20
 61 529 61 529 84.5 567.5 c 128,-1,21
 108 606 108 606 147.5 631 c 128,-1,22
 187 656 187 656 237 668 c 128,-1,23
 287 680 287 680 341 680 c 0,24,25
 391 680 391 680 441 666.5 c 128,-1,26
 491 653 491 653 534.5 621 c 128,-1,27
 578 589 578 589 606 535 c 1,28,-1
 451 483 l 1,29,30
 438 518 438 518 402 534.5 c 128,-1,31
 366 551 366 551 329 551 c 0,32,33
 278 551 278 551 251 534.5 c 128,-1,34
 224 518 224 518 224 492 c 0,35,36
 224 465 224 465 243.5 448.5 c 128,-1,37
 263 432 263 432 295.5 420 c 128,-1,38
 328 408 328 408 367 397.5 c 128,-1,39
 406 387 406 387 445 373.5 c 128,-1,40
 484 360 484 360 516.5 339 c 128,-1,41
 549 318 549 318 568.5 286 c 128,-1,42
 588 254 588 254 588 206 c 0,43,44
 588 134 588 134 548 85.5 c 128,-1,45
 508 37 508 37 443.5 12.5 c 128,-1,46
 379 -12 379 -12 306 -12 c 0,0,1
EndSplineSet
EndChar

StartChar: T
Encoding: 84 84 34
Width: 617
GlyphClass: 2
Flags: W
AnchorPoint: "Anchor-1" 398 668 basechar 0
AnchorPoint: "Anchor-0" 253 0 basechar 0
LayerCount: 2
Fore
SplineSet
158 0 m 1,0,-1
 270 529 l 1,1,-1
 57 529 l 1,2,-1
 87 668 l 1,3,-1
 673 668 l 1,4,-1
 644 529 l 1,5,-1
 430 529 l 1,6,-1
 319 0 l 1,7,-1
 158 0 l 1,0,-1
EndSplineSet
EndChar

StartChar: U
Encoding: 85 85 35
Width: 679
GlyphClass: 2
Flags: W
AnchorPoint: "Anchor-2" 376 0 basechar 0
AnchorPoint: "Anchor-1" 414 668 basechar 0
AnchorPoint: "Anchor-0" 287 0 basechar 0
LayerCount: 2
Fore
SplineSet
266 -12 m 0,0,1
 176 -12 176 -12 123.5 14 c 128,-1,2
 71 40 71 40 48.5 85 c 128,-1,3
 26 130 26 130 26 187 c 0,4,5
 26 212 26 212 29.5 238 c 128,-1,6
 33 264 33 264 39 292 c 2,7,-1
 120 668 l 1,8,-1
 281 668 l 1,9,-1
 198 279 l 2,10,11
 194 258 194 258 191 239.5 c 128,-1,12
 188 221 188 221 188 204 c 0,13,14
 188 164 188 164 210.5 140.5 c 128,-1,15
 233 117 233 117 294 117 c 0,16,17
 349 117 349 117 380.5 137 c 128,-1,18
 412 157 412 157 429.5 193.5 c 128,-1,19
 447 230 447 230 457 279 c 2,20,-1
 540 668 l 1,21,-1
 701 668 l 1,22,-1
 621 292 l 2,23,24
 601 198 601 198 570.5 138.5 c 128,-1,25
 540 79 540 79 497.5 46 c 128,-1,26
 455 13 455 13 397.5 0.5 c 128,-1,27
 340 -12 340 -12 266 -12 c 0,0,1
EndSplineSet
EndChar

StartChar: V
Encoding: 86 86 36
Width: 662
GlyphClass: 1
Flags: W
LayerCount: 2
Fore
SplineSet
166 0 m 1,0,-1
 82 668 l 1,1,-1
 240 668 l 1,2,-1
 289 177 l 1,3,-1
 546 668 l 1,4,-1
 724 668 l 1,5,-1
 356 0 l 1,6,-1
 166 0 l 1,0,-1
EndSplineSet
EndChar

StartChar: W
Encoding: 87 87 37
Width: 889
GlyphClass: 1
Flags: W
LayerCount: 2
Fore
SplineSet
101 0 m 1,0,-1
 82 668 l 1,1,-1
 235 668 l 1,2,-1
 230 222 l 1,3,-1
 419 668 l 1,4,-1
 588 668 l 1,5,-1
 588 205 l 1,6,-1
 783 668 l 1,7,-1
 951 668 l 1,8,-1
 648 0 l 1,9,-1
 468 0 l 1,10,-1
 468 470 l 1,11,-1
 266 0 l 1,12,-1
 101 0 l 1,0,-1
EndSplineSet
EndChar

StartChar: X
Encoding: 88 88 38
Width: 706
GlyphClass: 1
Flags: W
LayerCount: 2
Fore
SplineSet
-60 0 m 1,0,-1
 270 356 l 1,1,-1
 115 668 l 1,2,-1
 286 668 l 1,3,-1
 382 477 l 1,4,-1
 558 668 l 1,5,-1
 768 668 l 1,6,-1
 456 331 l 1,7,-1
 621 0 l 1,8,-1
 448 0 l 1,9,-1
 343 210 l 1,10,-1
 151 0 l 1,11,-1
 -60 0 l 1,0,-1
EndSplineSet
EndChar

StartChar: Y
Encoding: 89 89 39
Width: 700
GlyphClass: 2
Flags: W
AnchorPoint: "Anchor-1" 403 668 basechar 0
AnchorPoint: "Anchor-0" 297 0 basechar 0
LayerCount: 2
Fore
SplineSet
191 0 m 1,0,-1
 242 241 l 1,1,-1
 82 668 l 1,2,-1
 253 668 l 1,3,-1
 339 391 l 1,4,-1
 558 668 l 1,5,-1
 762 668 l 1,6,-1
 404 241 l 1,7,-1
 354 0 l 1,8,-1
 191 0 l 1,0,-1
EndSplineSet
EndChar

StartChar: Z
Encoding: 90 90 40
Width: 632
GlyphClass: 2
Flags: W
AnchorPoint: "Anchor-1" 407 668 basechar 0
AnchorPoint: "Anchor-0" 263 0 basechar 0
LayerCount: 2
Fore
SplineSet
-38 0 m 1,0,-1
 -12 121 l 1,1,-1
 411 529 l 1,2,-1
 100 529 l 1,3,-1
 130 668 l 1,4,-1
 668 668 l 1,5,-1
 642 547 l 1,6,-1
 221 139 l 1,7,-1
 560 139 l 1,8,-1
 530 0 l 1,9,-1
 -38 0 l 1,0,-1
EndSplineSet
EndChar

StartChar: a
Encoding: 97 97 41
Width: 545
GlyphClass: 2
Flags: W
AnchorPoint: "Anchor-2" 446 0 basechar 0
AnchorPoint: "Anchor-1" 298 496 basechar 0
AnchorPoint: "Anchor-0" 219 0 basechar 0
LayerCount: 2
Fore
SplineSet
130 -12 m 0,0,1
 92 -12 92 -12 58 3.5 c 128,-1,2
 24 19 24 19 3 48.5 c 128,-1,3
 -18 78 -18 78 -18 118 c 0,4,5
 -18 174 -18 174 14 209.5 c 128,-1,6
 46 245 46 245 99 266 c 128,-1,7
 152 287 152 287 214.5 298 c 128,-1,8
 277 309 277 309 338 315 c 1,9,10
 342 330 342 330 343 339 c 128,-1,11
 344 348 344 348 344 354 c 0,12,13
 344 383 344 383 325 395 c 128,-1,14
 306 407 306 407 272 407 c 0,15,16
 240 407 240 407 212 392.5 c 128,-1,17
 184 378 184 378 170 348 c 1,18,-1
 53 394 l 1,19,20
 91 453 91 453 150 481.5 c 128,-1,21
 209 510 209 510 293 510 c 0,22,23
 351 510 351 510 396.5 492.5 c 128,-1,24
 442 475 442 475 468 440 c 128,-1,25
 494 405 494 405 494 353 c 0,26,27
 494 333 494 333 488.5 303 c 128,-1,28
 483 273 483 273 476 243.5 c 128,-1,29
 469 214 469 214 465 193 c 0,30,31
 458 161 458 161 452.5 124 c 128,-1,32
 447 87 447 87 444 54.5 c 128,-1,33
 441 22 441 22 441 0 c 1,34,-1
 297 0 l 1,35,-1
 292 59 l 1,36,37
 258 18 258 18 220.5 3 c 128,-1,38
 183 -12 183 -12 130 -12 c 0,0,1
208 91 m 0,39,40
 249 91 249 91 278.5 117.5 c 128,-1,41
 308 144 308 144 325 213 c 2,42,-1
 328 225 l 1,43,44
 244 218 244 218 193.5 198.5 c 128,-1,45
 143 179 143 179 143 138 c 0,46,47
 143 116 143 116 162 103.5 c 128,-1,48
 181 91 181 91 208 91 c 0,39,40
EndSplineSet
Substitution2: "Single Substitution lookup 12 subtable" ordfeminine
Substitution2: "'aalt' Access All Alternates lookup 0 subtable" ordfeminine
EndChar

StartChar: b
Encoding: 98 98 42
Width: 592
GlyphClass: 1
Flags: W
LayerCount: 2
Fore
SplineSet
293 -12 m 0,0,1
 252 -12 252 -12 214 6 c 128,-1,2
 176 24 176 24 149 66 c 1,3,-1
 115 0 l 1,4,-1
 -21 0 l 1,5,-1
 121 668 l 1,6,-1
 276 668 l 1,7,-1
 227 436 l 1,8,9
 255 474 255 474 294 492 c 128,-1,10
 333 510 333 510 373 510 c 0,11,12
 423 510 423 510 464 486.5 c 128,-1,13
 505 463 505 463 529.5 417 c 128,-1,14
 554 371 554 371 554 303 c 0,15,16
 554 241 554 241 535.5 184 c 128,-1,17
 517 127 517 127 483 83 c 128,-1,18
 449 39 449 39 401 13.5 c 128,-1,19
 353 -12 353 -12 293 -12 c 0,0,1
266 105 m 0,20,21
 299 105 299 105 328.5 125 c 128,-1,22
 358 145 358 145 376.5 183 c 128,-1,23
 395 221 395 221 395 275 c 0,24,25
 395 328 395 328 374 360 c 128,-1,26
 353 392 353 392 310 392 c 0,27,28
 264 392 264 392 234 363.5 c 128,-1,29
 204 335 204 335 189.5 292.5 c 128,-1,30
 175 250 175 250 175 208 c 0,31,32
 175 156 175 156 202 130.5 c 128,-1,33
 229 105 229 105 266 105 c 0,20,21
EndSplineSet
EndChar

StartChar: c
Encoding: 99 99 43
Width: 531
GlyphClass: 2
Flags: W
AnchorPoint: "Anchor-1" 318 496 basechar 0
AnchorPoint: "Anchor-0" 212 0 basechar 0
LayerCount: 2
Fore
SplineSet
223 -12 m 0,0,1
 118 -12 118 -12 60 45.5 c 128,-1,2
 2 103 2 103 2 194 c 0,3,4
 2 284 2 284 42.5 355.5 c 128,-1,5
 83 427 83 427 154 468.5 c 128,-1,6
 225 510 225 510 316 510 c 0,7,8
 381 510 381 510 432.5 482.5 c 128,-1,9
 484 455 484 455 511 382 c 1,10,-1
 378 336 l 1,11,12
 371 368 371 368 350 380 c 128,-1,13
 329 392 329 392 299 392 c 0,14,15
 251 392 251 392 219.5 362.5 c 128,-1,16
 188 333 188 333 172 288 c 128,-1,17
 156 243 156 243 156 198 c 0,18,19
 156 148 156 148 180 126.5 c 128,-1,20
 204 105 204 105 236 105 c 256,21,22
 268 105 268 105 293 115 c 128,-1,23
 318 125 318 125 341 154 c 1,24,-1
 464 107 l 1,25,26
 416 40 416 40 351.5 14 c 128,-1,27
 287 -12 287 -12 223 -12 c 0,0,1
EndSplineSet
EndChar

StartChar: d
Encoding: 100 100 44
Width: 592
GlyphClass: 2
Flags: W
AnchorPoint: "Anchor-1" 412 796 basechar 0
AnchorPoint: "Anchor-0" 243 0 basechar 0
LayerCount: 2
Fore
SplineSet
187 -12 m 0,0,1
 105 -12 105 -12 54 42.5 c 128,-1,2
 3 97 3 97 3 191 c 0,3,4
 3 254 3 254 21 311.5 c 128,-1,5
 39 369 39 369 73.5 413.5 c 128,-1,6
 108 458 108 458 156.5 484 c 128,-1,7
 205 510 205 510 266 510 c 0,8,9
 314 510 314 510 351.5 486 c 128,-1,10
 389 462 389 462 405 421 c 1,11,-1
 458 668 l 1,12,-1
 613 668 l 1,13,14
 613 668 613 668 607 641.5 c 128,-1,15
 601 615 601 615 591.5 571.5 c 128,-1,16
 582 528 582 528 571 475 c 128,-1,17
 560 422 560 422 548.5 368.5 c 128,-1,18
 537 315 537 315 527.5 269 c 128,-1,19
 518 223 518 223 512 193 c 0,20,21
 505 156 505 156 497 105 c 128,-1,22
 489 54 489 54 488 0 c 1,23,-1
 339 0 l 1,24,-1
 334 63 l 1,25,26
 303 23 303 23 265 5.5 c 128,-1,27
 227 -12 227 -12 187 -12 c 0,0,1
251 105 m 0,28,29
 293 105 293 105 322.5 133.5 c 128,-1,30
 352 162 352 162 367 204.5 c 128,-1,31
 382 247 382 247 382 289 c 0,32,33
 382 327 382 327 368 349.5 c 128,-1,34
 354 372 354 372 333.5 382 c 128,-1,35
 313 392 313 392 293 392 c 0,36,37
 248 392 248 392 219 366.5 c 128,-1,38
 190 341 190 341 176 300.5 c 128,-1,39
 162 260 162 260 162 216 c 0,40,41
 162 170 162 170 183.5 137.5 c 128,-1,42
 205 105 205 105 251 105 c 0,28,29
EndSplineSet
EndChar

StartChar: e
Encoding: 101 101 45
Width: 567
GlyphClass: 2
Flags: W
AnchorPoint: "Anchor-2" 333 2 basechar 0
AnchorPoint: "Anchor-1" 321 496 basechar 0
AnchorPoint: "Anchor-0" 230 0 basechar 0
LayerCount: 2
Fore
SplineSet
229 -12 m 0,0,1
 124 -12 124 -12 63.5 42.5 c 128,-1,2
 3 97 3 97 3 196 c 0,3,4
 3 262 3 262 25.5 319 c 128,-1,5
 48 376 48 376 89 419 c 128,-1,6
 130 462 130 462 185.5 486 c 128,-1,7
 241 510 241 510 307 510 c 0,8,9
 414 510 414 510 472 452.5 c 128,-1,10
 530 395 530 395 530 298 c 0,11,12
 530 277 530 277 527.5 255 c 128,-1,13
 525 233 525 233 519 209 c 1,14,-1
 154 209 l 1,15,16
 153 203 153 203 152.5 198 c 128,-1,17
 152 193 152 193 152 188 c 0,18,19
 152 144 152 144 183 125 c 128,-1,20
 214 106 214 106 254 106 c 0,21,22
 284 106 284 106 312.5 115.5 c 128,-1,23
 341 125 341 125 358 142 c 1,24,-1
 472 98 l 1,25,26
 429 45 429 45 367 16.5 c 128,-1,27
 305 -12 305 -12 229 -12 c 0,0,1
168 299 m 1,28,-1
 395 299 l 1,29,30
 396 303 396 303 396 306 c 128,-1,31
 396 309 396 309 396 313 c 0,32,33
 396 357 396 357 368 378 c 128,-1,34
 340 399 340 399 302 399 c 0,35,36
 262 399 262 399 222 374 c 128,-1,37
 182 349 182 349 168 299 c 1,28,-1
EndSplineSet
EndChar

StartChar: f
Encoding: 102 102 46
Width: 379
GlyphClass: 1
Flags: W
LayerCount: 2
Fore
SplineSet
18 0 m 1,0,-1
 99 380 l 1,1,-1
 19 380 l 1,2,-1
 43 496 l 1,3,-1
 124 496 l 1,4,-1
 135 547 l 2,5,6
 147 601 147 601 161.5 636.5 c 128,-1,7
 176 672 176 672 200.5 691.5 c 128,-1,8
 225 711 225 711 265 719 c 128,-1,9
 305 727 305 727 366 727 c 2,10,-1
 434 727 l 1,11,-1
 409 608 l 1,12,-1
 368 608 l 2,13,14
 337 608 337 608 322 603 c 128,-1,15
 307 598 307 598 300 580.5 c 128,-1,16
 293 563 293 563 285 527 c 2,17,-1
 278 496 l 1,18,-1
 385 496 l 1,19,-1
 360 380 l 1,20,-1
 253 380 l 1,21,-1
 173 0 l 1,22,-1
 18 0 l 1,0,-1
EndSplineSet
EndChar

StartChar: g
Encoding: 103 103 47
Width: 594
GlyphClass: 2
Flags: W
AnchorPoint: "Anchor-1" 317 496 basechar 0
AnchorPoint: "Anchor-0" 191 -251 basechar 0
LayerCount: 2
Fore
SplineSet
194 -207 m 0,0,1
 144 -207 144 -207 99 -192 c 128,-1,2
 54 -177 54 -177 22 -149.5 c 128,-1,3
 -10 -122 -10 -122 -22 -85 c 1,4,-1
 112 -41 l 1,5,6
 119 -63 119 -63 143 -75.5 c 128,-1,7
 167 -88 167 -88 196 -88 c 0,8,9
 235 -88 235 -88 272 -65.5 c 128,-1,10
 309 -43 309 -43 319 6 c 2,11,-1
 337 91 l 1,12,13
 306 54 306 54 267 35.5 c 128,-1,14
 228 17 228 17 187 17 c 0,15,16
 140 17 140 17 98.5 40.5 c 128,-1,17
 57 64 57 64 31.5 108 c 128,-1,18
 6 152 6 152 6 214 c 0,19,20
 6 271 6 271 24.5 324 c 128,-1,21
 43 377 43 377 77.5 419.5 c 128,-1,22
 112 462 112 462 159 486.5 c 128,-1,23
 206 511 206 511 262 511 c 0,24,25
 310 511 310 511 350 490 c 128,-1,26
 390 469 390 469 409 429 c 1,27,-1
 443 496 l 1,28,-1
 577 496 l 1,29,30
 552 377 552 377 527 257 c 128,-1,31
 502 137 502 137 476 18 c 0,32,33
 458 -62 458 -62 413.5 -111.5 c 128,-1,34
 369 -161 369 -161 311 -184 c 128,-1,35
 253 -207 253 -207 194 -207 c 0,0,1
247 131 m 0,36,37
 293 131 293 131 323 155.5 c 128,-1,38
 353 180 353 180 368.5 219 c 128,-1,39
 384 258 384 258 384 301 c 0,40,41
 384 348 384 348 359 371.5 c 128,-1,42
 334 395 334 395 296 395 c 0,43,44
 253 395 253 395 223.5 372.5 c 128,-1,45
 194 350 194 350 179 313 c 128,-1,46
 164 276 164 276 164 234 c 0,47,48
 164 185 164 185 187.5 158 c 128,-1,49
 211 131 211 131 247 131 c 0,36,37
EndSplineSet
EndChar

StartChar: h
Encoding: 104 104 48
Width: 580
GlyphClass: 1
Flags: W
LayerCount: 2
Fore
SplineSet
-21 0 m 1,0,-1
 121 668 l 1,1,-1
 272 668 l 1,2,-1
 222 432 l 1,3,4
 243 461 243 461 286.5 485.5 c 128,-1,5
 330 510 330 510 396 510 c 0,6,7
 455 510 455 510 491.5 476.5 c 128,-1,8
 528 443 528 443 528 366 c 0,9,10
 528 347 528 347 525.5 326 c 128,-1,11
 523 305 523 305 518 281 c 2,12,-1
 458 0 l 1,13,-1
 302 0 l 1,14,-1
 358 263 l 2,15,16
 367 302 367 302 367 328 c 0,17,18
 367 362 367 362 353 377 c 128,-1,19
 339 392 339 392 311 392 c 0,20,21
 216 392 216 392 189 254 c 2,22,-1
 135 0 l 1,23,-1
 -21 0 l 1,0,-1
EndSplineSet
EndChar

StartChar: i
Encoding: 105 105 49
Width: 338
GlyphClass: 1
Flags: W
LayerCount: 2
Fore
SplineSet
266 578 m 0,0,1
 229 578 229 578 203 604.5 c 128,-1,2
 177 631 177 631 177 668 c 256,3,4
 177 705 177 705 203 731 c 128,-1,5
 229 757 229 757 266 757 c 0,6,7
 304 757 304 757 330 731 c 128,-1,8
 356 705 356 705 356 668 c 256,9,10
 356 631 356 631 330 604.5 c 128,-1,11
 304 578 304 578 266 578 c 0,0,1
48 0 m 1,12,-1
 129 380 l 1,13,-1
 26 380 l 1,14,-1
 51 496 l 1,15,-1
 309 496 l 1,16,-1
 204 0 l 1,17,-1
 48 0 l 1,12,-1
EndSplineSet
Substitution2: "Single Substitution lookup 4 subtable" dotlessi
Substitution2: "Single Substitution lookup 3 subtable" dotlessi
EndChar

StartChar: j
Encoding: 106 106 50
Width: 263
GlyphClass: 1
Flags: W
LayerCount: 2
Fore
SplineSet
206 578 m 256,0,1
 169 578 169 578 142.5 604.5 c 128,-1,2
 116 631 116 631 116 668 c 0,3,4
 116 706 116 706 142.5 732 c 128,-1,5
 169 758 169 758 206 758 c 256,6,7
 243 758 243 758 269.5 732 c 128,-1,8
 296 706 296 706 296 668 c 0,9,10
 296 631 296 631 269.5 604.5 c 128,-1,11
 243 578 243 578 206 578 c 256,0,1
-74 -162 m 0,12,13
 -105 -162 -105 -162 -128 -161.5 c 128,-1,14
 -151 -161 -151 -161 -174 -160 c 1,15,-1
 -148 -42 l 1,16,-1
 -87 -42 l 2,17,18
 -57 -42 -57 -42 -41.5 -35.5 c 128,-1,19
 -26 -29 -26 -29 -18.5 -11.5 c 128,-1,20
 -11 6 -11 6 -4 39 c 2,21,-1
 93 496 l 1,22,-1
 249 496 l 1,23,-1
 148 23 l 2,24,25
 135 -38 135 -38 118.5 -74.5 c 128,-1,26
 102 -111 102 -111 77.5 -130 c 128,-1,27
 53 -149 53 -149 16.5 -155.5 c 128,-1,28
 -20 -162 -20 -162 -74 -162 c 0,12,13
EndSplineSet
EndChar

StartChar: k
Encoding: 107 107 51
Width: 562
GlyphClass: 2
Flags: W
AnchorPoint: "Anchor-1" 397 796 basechar 0
AnchorPoint: "Anchor-0" 218 0 basechar 0
LayerCount: 2
Fore
SplineSet
-21 0 m 1,0,-1
 121 668 l 1,1,-1
 276 668 l 1,2,-1
 203 327 l 1,3,-1
 388 496 l 1,4,-1
 586 496 l 1,5,-1
 342 283 l 1,6,-1
 487 0 l 1,7,-1
 324 0 l 1,8,-1
 229 184 l 1,9,-1
 161 124 l 1,10,-1
 135 0 l 1,11,-1
 -21 0 l 1,0,-1
EndSplineSet
EndChar

StartChar: l
Encoding: 108 108 52
Width: 317
GlyphClass: 2
Flags: W
AnchorPoint: "Anchor-1" 275 796 basechar 0
AnchorPoint: "Anchor-0" 108 0 basechar 0
LayerCount: 2
Fore
SplineSet
147 0 m 2,0,1
 81 0 81 0 42.5 22 c 128,-1,2
 4 44 4 44 4 99 c 0,3,4
 4 108 4 108 5.5 118.5 c 128,-1,5
 7 129 7 129 9 140 c 2,6,-1
 121 668 l 1,7,-1
 277 668 l 1,8,-1
 179 204 l 2,9,10
 176 191 176 191 174 179.5 c 128,-1,11
 172 168 172 168 172 159 c 0,12,13
 172 142 172 142 183.5 133 c 128,-1,14
 195 124 195 124 227 124 c 2,15,-1
 270 124 l 1,16,-1
 244 0 l 1,17,-1
 147 0 l 2,0,1
EndSplineSet
EndChar

StartChar: m
Encoding: 109 109 53
Width: 895
GlyphClass: 1
Flags: W
LayerCount: 2
Fore
SplineSet
-20 0 m 1,0,-1
 85 496 l 1,1,-1
 221 496 l 1,2,-1
 226 432 l 1,3,4
 249 460 249 460 288.5 485 c 128,-1,5
 328 510 328 510 384 510 c 0,6,7
 443 510 443 510 476 489.5 c 128,-1,8
 509 469 509 469 523 427 c 1,9,10
 559 471 559 471 604 490.5 c 128,-1,11
 649 510 649 510 701 510 c 0,12,13
 776 510 776 510 810.5 473 c 128,-1,14
 845 436 845 436 845 370 c 0,15,16
 845 352 845 352 842.5 332 c 128,-1,17
 840 312 840 312 835 290 c 2,18,-1
 773 0 l 1,19,-1
 617 0 l 1,20,-1
 673 263 l 2,21,22
 678 286 678 286 681 305 c 128,-1,23
 684 324 684 324 684 338 c 0,24,25
 684 367 684 367 670.5 379.5 c 128,-1,26
 657 392 657 392 628 392 c 0,27,28
 537 392 537 392 509 261 c 2,29,-1
 454 0 l 1,30,-1
 298 0 l 1,31,-1
 354 263 l 2,32,33
 363 307 363 307 363 332 c 0,34,35
 363 367 363 367 349 379.5 c 128,-1,36
 335 392 335 392 309 392 c 0,37,38
 263 392 263 392 234 357.5 c 128,-1,39
 205 323 205 323 191 258 c 2,40,-1
 136 0 l 1,41,-1
 -20 0 l 1,0,-1
EndSplineSet
EndChar

StartChar: n
Encoding: 110 110 54
Width: 581
GlyphClass: 2
Flags: W
AnchorPoint: "Anchor-1" 344 496 basechar 0
AnchorPoint: "Anchor-0" 218 0 basechar 0
LayerCount: 2
Fore
SplineSet
-20 0 m 1,0,-1
 85 496 l 1,1,-1
 221 496 l 1,2,-1
 226 432 l 1,3,4
 247 461 247 461 289 485.5 c 128,-1,5
 331 510 331 510 397 510 c 0,6,7
 456 510 456 510 492.5 476.5 c 128,-1,8
 529 443 529 443 529 366 c 0,9,10
 529 347 529 347 526.5 326 c 128,-1,11
 524 305 524 305 519 281 c 2,12,-1
 459 0 l 1,13,-1
 303 0 l 1,14,-1
 359 263 l 2,15,16
 368 302 368 302 368 328 c 0,17,18
 368 362 368 362 354 377 c 128,-1,19
 340 392 340 392 312 392 c 0,20,21
 219 392 219 392 190 254 c 2,22,-1
 136 0 l 1,23,-1
 -20 0 l 1,0,-1
EndSplineSet
EndChar

StartChar: o
Encoding: 111 111 55
Width: 576
GlyphClass: 2
Flags: W
AnchorPoint: "Anchor-2" 467 10 basechar 0
AnchorPoint: "Anchor-1" 317 496 basechar 0
AnchorPoint: "Anchor-0" 235 0 basechar 0
LayerCount: 2
Fore
SplineSet
239 -13 m 0,0,1
 169 -13 169 -13 116 13.5 c 128,-1,2
 63 40 63 40 34 89 c 128,-1,3
 5 138 5 138 5 204 c 0,4,5
 5 292 5 292 42 361 c 128,-1,6
 79 430 79 430 146 470 c 128,-1,7
 213 510 213 510 302 510 c 0,8,9
 368 510 368 510 421 486 c 128,-1,10
 474 462 474 462 505 414 c 128,-1,11
 536 366 536 366 536 295 c 0,12,13
 536 207 536 207 499.5 137 c 128,-1,14
 463 67 463 67 396.5 27 c 128,-1,15
 330 -13 330 -13 239 -13 c 0,0,1
245 105 m 0,16,17
 291 105 291 105 321 131.5 c 128,-1,18
 351 158 351 158 366 200.5 c 128,-1,19
 381 243 381 243 381 292 c 0,20,21
 381 347 381 347 357 369.5 c 128,-1,22
 333 392 333 392 292 392 c 0,23,24
 246 392 246 392 216.5 364.5 c 128,-1,25
 187 337 187 337 173 294.5 c 128,-1,26
 159 252 159 252 159 206 c 0,27,28
 159 181 159 181 166.5 157.5 c 128,-1,29
 174 134 174 134 192.5 119.5 c 128,-1,30
 211 105 211 105 245 105 c 0,16,17
EndSplineSet
Substitution2: "Single Substitution lookup 12 subtable" ordmasculine
Substitution2: "'aalt' Access All Alternates lookup 0 subtable" ordmasculine
EndChar

StartChar: p
Encoding: 112 112 56
Width: 590
GlyphClass: 1
Flags: W
LayerCount: 2
Fore
SplineSet
-55 -161 m 1,0,-1
 85 496 l 1,1,-1
 219 496 l 1,2,-1
 225 428 l 1,3,4
 251 472 251 472 293 491 c 128,-1,5
 335 510 335 510 376 510 c 0,6,7
 429 510 429 510 468.5 484 c 128,-1,8
 508 458 508 458 530 412 c 128,-1,9
 552 366 552 366 552 305 c 0,10,11
 552 242 552 242 533.5 185 c 128,-1,12
 515 128 515 128 480.5 83.5 c 128,-1,13
 446 39 446 39 397 13 c 128,-1,14
 348 -13 348 -13 287 -13 c 0,15,16
 247 -13 247 -13 210.5 7 c 128,-1,17
 174 27 174 27 150 70 c 1,18,-1
 101 -161 l 1,19,-1
 -55 -161 l 1,0,-1
261 105 m 0,20,21
 306 105 306 105 335.5 130 c 128,-1,22
 365 155 365 155 379.5 195.5 c 128,-1,23
 394 236 394 236 394 282 c 0,24,25
 394 336 394 336 371 364 c 128,-1,26
 348 392 348 392 308 392 c 0,27,28
 264 392 264 392 234 364.5 c 128,-1,29
 204 337 204 337 189 295.5 c 128,-1,30
 174 254 174 254 174 210 c 0,31,32
 174 158 174 158 199.5 131.5 c 128,-1,33
 225 105 225 105 261 105 c 0,20,21
EndSplineSet
EndChar

StartChar: q
Encoding: 113 113 57
Width: 601
GlyphClass: 1
Flags: W
LayerCount: 2
Fore
SplineSet
183 -12 m 0,0,1
 101 -12 101 -12 52.5 45 c 128,-1,2
 4 102 4 102 4 196 c 0,3,4
 4 258 4 258 22.5 314.5 c 128,-1,5
 41 371 41 371 75 415 c 128,-1,6
 109 459 109 459 157 484.5 c 128,-1,7
 205 510 205 510 263 510 c 0,8,9
 304 510 304 510 342.5 491 c 128,-1,10
 381 472 381 472 404 427 c 1,11,-1
 440 496 l 1,12,-1
 575 496 l 1,13,14
 552 387 552 387 528.5 277.5 c 128,-1,15
 505 168 505 168 482 58 c 0,16,17
 478 42 478 42 475.5 27.5 c 128,-1,18
 473 13 473 13 473 2 c 0,19,20
 473 -15 473 -15 483 -24.5 c 128,-1,21
 493 -34 493 -34 520 -34 c 0,22,23
 552 -34 552 -34 608 -21 c 1,24,-1
 580 -151 l 1,25,26
 556 -161 556 -161 525 -167 c 128,-1,27
 494 -173 494 -173 462 -173 c 0,28,29
 423 -173 423 -173 387.5 -161.5 c 128,-1,30
 352 -150 352 -150 330 -122.5 c 128,-1,31
 308 -95 308 -95 308 -48 c 0,32,33
 308 -23 308 -23 313 -3.5 c 128,-1,34
 318 16 318 16 326 56 c 1,35,36
 298 22 298 22 261 5 c 128,-1,37
 224 -12 224 -12 183 -12 c 0,0,1
250 106 m 0,38,39
 280 106 280 106 308.5 124.5 c 128,-1,40
 337 143 337 143 357 181.5 c 128,-1,41
 377 220 377 220 380 279 c 0,42,43
 384 336 384 336 357.5 364.5 c 128,-1,44
 331 393 331 393 291 393 c 0,45,46
 237 393 237 393 200 351.5 c 128,-1,47
 163 310 163 310 162 224 c 0,48,49
 161 160 161 160 185.5 133 c 128,-1,50
 210 106 210 106 250 106 c 0,38,39
EndSplineSet
EndChar

StartChar: r
Encoding: 114 114 58
Width: 391
GlyphClass: 2
Flags: W
AnchorPoint: "Anchor-1" 249 496 basechar 0
AnchorPoint: "Anchor-0" 143 0 basechar 0
LayerCount: 2
Fore
SplineSet
-20 0 m 1,0,-1
 85 496 l 1,1,-1
 208 496 l 1,2,-1
 215 409 l 1,3,4
 241 455 241 455 276.5 482 c 128,-1,5
 312 509 312 509 377 510 c 2,6,-1
 403 510 l 1,7,-1
 371 358 l 1,8,9
 346 361 346 361 325 361 c 0,10,11
 260 361 260 361 229 327 c 128,-1,12
 198 293 198 293 185 231 c 2,13,-1
 136 0 l 1,14,-1
 -20 0 l 1,0,-1
EndSplineSet
EndChar

StartChar: s
Encoding: 115 115 59
Width: 515
GlyphClass: 2
Flags: W
AnchorPoint: "Anchor-1" 274 496 basechar 0
AnchorPoint: "Anchor-0" 215 0 basechar 0
LayerCount: 2
Fore
SplineSet
229 -13 m 0,0,1
 191 -13 191 -13 144.5 -4 c 128,-1,2
 98 5 98 5 56.5 33 c 128,-1,3
 15 61 15 61 -10 116 c 1,4,-1
 120 160 l 1,5,6
 128 126 128 126 159 111 c 128,-1,7
 190 96 190 96 224 96 c 0,8,9
 256 96 256 96 281 108 c 128,-1,10
 306 120 306 120 306 139 c 0,11,12
 306 157 306 157 286 168 c 128,-1,13
 266 179 266 179 234.5 188 c 128,-1,14
 203 197 203 197 168 208 c 128,-1,15
 133 219 133 219 101.5 236.5 c 128,-1,16
 70 254 70 254 50 283 c 128,-1,17
 30 312 30 312 30 357 c 0,18,19
 30 401 30 401 58 435.5 c 128,-1,20
 86 470 86 470 134.5 490 c 128,-1,21
 183 510 183 510 243 510 c 0,22,23
 315 510 315 510 375.5 486 c 128,-1,24
 436 462 436 462 471 400 c 1,25,-1
 339 355 l 1,26,27
 329 381 329 381 302.5 390 c 128,-1,28
 276 399 276 399 241 399 c 256,29,30
 206 399 206 399 190 387 c 128,-1,31
 174 375 174 375 174 362 c 0,32,33
 174 343 174 343 194 331 c 128,-1,34
 214 319 214 319 246 310.5 c 128,-1,35
 278 302 278 302 314 292 c 128,-1,36
 350 282 350 282 382 266 c 128,-1,37
 414 250 414 250 434 223.5 c 128,-1,38
 454 197 454 197 454 156 c 0,39,40
 454 79 454 79 393.5 33 c 128,-1,41
 333 -13 333 -13 229 -13 c 0,0,1
EndSplineSet
EndChar

StartChar: t
Encoding: 116 116 60
Width: 391
GlyphClass: 2
Flags: W
AnchorPoint: "Anchor-1" 249 496 basechar 0
AnchorPoint: "Anchor-0" 143 0 basechar 0
LayerCount: 2
Fore
SplineSet
193 0 m 2,0,1
 128 0 128 0 89 21.5 c 128,-1,2
 50 43 50 43 50 98 c 0,3,4
 50 116 50 116 57 150 c 2,5,-1
 106 380 l 1,6,-1
 28 380 l 1,7,-1
 53 496 l 1,8,-1
 131 496 l 1,9,-1
 157 620 l 1,10,-1
 312 620 l 1,11,-1
 286 496 l 1,12,-1
 394 496 l 1,13,-1
 370 380 l 1,14,-1
 261 380 l 1,15,-1
 224 205 l 2,16,17
 221 192 221 192 219 180.5 c 128,-1,18
 217 169 217 169 217 160 c 0,19,20
 217 143 217 143 228.5 133.5 c 128,-1,21
 240 124 240 124 272 124 c 2,22,-1
 315 124 l 1,23,-1
 289 0 l 1,24,-1
 193 0 l 2,0,1
EndSplineSet
EndChar

StartChar: u
Encoding: 117 117 61
Width: 578
GlyphClass: 2
Flags: W
AnchorPoint: "Anchor-2" 469 10 basechar 0
AnchorPoint: "Anchor-1" 322 496 basechar 0
AnchorPoint: "Anchor-0" 236 0 basechar 0
LayerCount: 2
Fore
SplineSet
159 -12 m 0,0,1
 104 -12 104 -12 73 8 c 128,-1,2
 42 28 42 28 29.5 61.5 c 128,-1,3
 17 95 17 95 17 134 c 0,4,5
 17 156 17 156 20 177.5 c 128,-1,6
 23 199 23 199 27 220 c 2,7,-1
 86 496 l 1,8,-1
 241 496 l 1,9,-1
 186 235 l 2,10,11
 184 225 184 225 181.5 208.5 c 128,-1,12
 179 192 179 192 179 175 c 0,13,14
 179 149 179 149 189.5 127.5 c 128,-1,15
 200 106 200 106 231 106 c 0,16,17
 270 106 270 106 303 136 c 128,-1,18
 336 166 336 166 350 234 c 2,19,-1
 406 496 l 1,20,-1
 561 496 l 1,21,-1
 456 0 l 1,22,-1
 321 0 l 1,23,-1
 316 64 l 1,24,25
 295 30 295 30 255 9 c 128,-1,26
 215 -12 215 -12 159 -12 c 0,0,1
EndSplineSet
EndChar

StartChar: v
Encoding: 118 118 62
Width: 533
GlyphClass: 1
Flags: W
LayerCount: 2
Fore
SplineSet
107 0 m 1,0,-1
 35 496 l 1,1,-1
 186 496 l 1,2,-1
 219 157 l 1,3,-1
 398 496 l 1,4,-1
 568 496 l 1,5,-1
 285 0 l 1,6,-1
 107 0 l 1,0,-1
EndSplineSet
EndChar

StartChar: w
Encoding: 119 119 63
Width: 727
GlyphClass: 1
Flags: W
LayerCount: 2
Fore
SplineSet
54 0 m 1,0,-1
 35 496 l 1,1,-1
 181 496 l 1,2,-1
 185 175 l 1,3,-1
 313 496 l 1,4,-1
 463 496 l 1,5,-1
 455 159 l 1,6,-1
 604 496 l 1,7,-1
 762 496 l 1,8,-1
 533 0 l 1,9,-1
 359 0 l 1,10,-1
 362 356 l 1,11,-1
 214 0 l 1,12,-1
 54 0 l 1,0,-1
EndSplineSet
EndChar

StartChar: x
Encoding: 120 120 64
Width: 536
GlyphClass: 1
Flags: W
LayerCount: 2
Fore
SplineSet
-71 0 m 1,0,-1
 179 270 l 1,1,-1
 66 496 l 1,2,-1
 216 496 l 1,3,-1
 276 376 l 1,4,-1
 387 496 l 1,5,-1
 571 496 l 1,6,-1
 340 246 l 1,7,-1
 464 0 l 1,8,-1
 313 0 l 1,9,-1
 242 141 l 1,10,-1
 113 0 l 1,11,-1
 -71 0 l 1,0,-1
EndSplineSet
EndChar

StartChar: y
Encoding: 121 121 65
Width: 527
GlyphClass: 2
Flags: W
AnchorPoint: "Anchor-1" 302 496 basechar 0
AnchorPoint: "Anchor-0" 211 0 basechar 0
LayerCount: 2
Fore
SplineSet
-44 -161 m 1,0,-1
 -21 -51 l 1,1,-1
 10 -51 l 2,2,3
 52 -51 52 -51 72.5 -46.5 c 128,-1,4
 93 -42 93 -42 102.5 -30.5 c 128,-1,5
 112 -19 112 -19 121 0 c 1,6,-1
 35 496 l 1,7,-1
 190 496 l 1,8,-1
 220 180 l 1,9,-1
 386 496 l 1,10,-1
 562 496 l 1,11,-1
 266 0 l 2,12,13
 233 -56 233 -56 209 -88.5 c 128,-1,14
 185 -121 185 -121 160 -136.5 c 128,-1,15
 135 -152 135 -152 99 -156.5 c 128,-1,16
 63 -161 63 -161 5 -161 c 2,17,-1
 -44 -161 l 1,0,-1
EndSplineSet
EndChar

StartChar: z
Encoding: 122 122 66
Width: 528
GlyphClass: 2
Flags: W
AnchorPoint: "Anchor-1" 317 496 basechar 0
AnchorPoint: "Anchor-0" 211 0 basechar 0
LayerCount: 2
Fore
SplineSet
-40 0 m 1,0,-1
 -14 121 l 1,1,-1
 296 375 l 1,2,-1
 65 375 l 1,3,-1
 91 496 l 1,4,-1
 539 496 l 1,5,-1
 513 375 l 1,6,-1
 203 121 l 1,7,-1
 462 121 l 1,8,-1
 437 0 l 1,9,-1
 -40 0 l 1,0,-1
EndSplineSet
EndChar

StartChar: circumflex
Encoding: 710 710 67
Width: 480
GlyphClass: 1
Flags: W
LayerCount: 2
Fore
SplineSet
89 574 m 1,0,-1
 278 711 l 2,1,2
 298 726 298 726 322 726 c 0,3,4
 355 726 355 726 377 701 c 2,5,-1
 495 574 l 1,6,-1
 379 574 l 1,7,-1
 320 635 l 1,8,-1
 236 574 l 1,9,-1
 89 574 l 1,0,-1
EndSplineSet
EndChar

StartChar: caron
Encoding: 711 711 68
Width: 476
GlyphClass: 1
Flags: W
LayerCount: 2
Fore
SplineSet
288 568 m 0,0,1
 256 568 256 568 234 593 c 2,2,-1
 120 720 l 1,3,-1
 235 720 l 1,4,-1
 291 659 l 1,5,-1
 375 720 l 1,6,-1
 522 720 l 1,7,-1
 332 583 l 2,8,9
 313 568 313 568 288 568 c 0,0,1
EndSplineSet
EndChar

StartChar: breve
Encoding: 728 728 69
Width: 385
GlyphClass: 1
Flags: W
LayerCount: 2
Fore
SplineSet
278 577 m 0,0,1
 219 577 219 577 180 608 c 128,-1,2
 141 639 141 639 136 688 c 1,3,-1
 229 688 l 1,4,5
 233 672 233 672 248 661.5 c 128,-1,6
 263 651 263 651 282 651 c 0,7,8
 303 651 303 651 319 661.5 c 128,-1,9
 335 672 335 672 341 688 c 1,10,-1
 435 688 l 1,11,12
 421 642 421 642 380.5 609.5 c 128,-1,13
 340 577 340 577 278 577 c 0,0,1
EndSplineSet
EndChar

StartChar: dotaccent
Encoding: 729 729 70
Width: 204
GlyphClass: 1
Flags: W
LayerCount: 2
Fore
SplineSet
170 578 m 256,0,1
 141 578 141 578 120 598.5 c 128,-1,2
 99 619 99 619 99 648 c 256,3,4
 99 677 99 677 120 698 c 128,-1,5
 141 719 141 719 170 719 c 256,6,7
 199 719 199 719 219.5 698 c 128,-1,8
 240 677 240 677 240 648 c 256,9,10
 240 619 240 619 219.5 598.5 c 128,-1,11
 199 578 199 578 170 578 c 256,0,1
EndSplineSet
EndChar

StartChar: ring
Encoding: 730 730 71
Width: 301
GlyphClass: 1
Flags: W
LayerCount: 2
Fore
SplineSet
222 535 m 0,0,1
 186 535 186 535 156 553 c 128,-1,2
 126 571 126 571 108 601.5 c 128,-1,3
 90 632 90 632 90 668 c 0,4,5
 90 705 90 705 108 734.5 c 128,-1,6
 126 764 126 764 156 782 c 128,-1,7
 186 800 186 800 222 800 c 0,8,9
 259 800 259 800 289 782 c 128,-1,10
 319 764 319 764 337 734.5 c 128,-1,11
 355 705 355 705 355 668 c 0,12,13
 355 632 355 632 337 601.5 c 128,-1,14
 319 571 319 571 289 553 c 128,-1,15
 259 535 259 535 222 535 c 0,0,1
222 621 m 0,16,17
 242 621 242 621 255.5 635 c 128,-1,18
 269 649 269 649 269 668 c 0,19,20
 269 688 269 688 255.5 701.5 c 128,-1,21
 242 715 242 715 222 715 c 0,22,23
 203 715 203 715 189 701.5 c 128,-1,24
 175 688 175 688 175 668 c 0,25,26
 175 649 175 649 189 635 c 128,-1,27
 203 621 203 621 222 621 c 0,16,17
EndSplineSet
EndChar

StartChar: ogonek
Encoding: 731 731 72
Width: 296
GlyphClass: 1
Flags: W
LayerCount: 2
Fore
SplineSet
73 -173 m 0,0,1
 24 -173 24 -173 -3 -161 c 128,-1,2
 -30 -149 -30 -149 -41 -131.5 c 128,-1,3
 -52 -114 -52 -114 -52 -96 c 0,4,5
 -52 -66 -52 -66 -25.5 -38 c 128,-1,6
 1 -10 1 -10 39 0 c 1,7,-1
 183 0 l 1,8,9
 142 -19 142 -19 109 -37 c 128,-1,10
 76 -55 76 -55 76 -75 c 0,11,12
 76 -89 76 -89 90 -93 c 128,-1,13
 104 -97 104 -97 119 -97 c 0,14,15
 133 -97 133 -97 148 -93.5 c 128,-1,16
 163 -90 163 -90 170 -88 c 1,17,-1
 154 -164 l 1,18,19
 141 -167 141 -167 116.5 -170 c 128,-1,20
 92 -173 92 -173 73 -173 c 0,0,1
EndSplineSet
EndChar

StartChar: quoteleft
Encoding: 8216 8216 73
Width: 281
GlyphClass: 1
Flags: W
LayerCount: 2
Fore
SplineSet
162 340 m 0,0,1
 121 340 121 340 94 369 c 128,-1,2
 67 398 67 398 67 438 c 0,3,4
 67 465 67 465 81 488 c 2,5,-1
 193 668 l 1,6,-1
 292 668 l 1,7,-1
 203 526 l 1,8,9
 229 515 229 515 245 491 c 128,-1,10
 261 467 261 467 261 438 c 0,11,12
 261 395 261 395 231.5 367.5 c 128,-1,13
 202 340 202 340 162 340 c 0,0,1
EndSplineSet
EndChar

StartChar: quoteright
Encoding: 8217 8217 74
Width: 282
GlyphClass: 1
Flags: W
LayerCount: 2
Fore
SplineSet
66 351 m 1,0,-1
 155 493 l 1,1,2
 130 505 130 505 113.5 529 c 128,-1,3
 97 553 97 553 97 582 c 0,4,5
 97 625 97 625 126.5 652.5 c 128,-1,6
 156 680 156 680 195 680 c 0,7,8
 236 680 236 680 264.5 651 c 128,-1,9
 293 622 293 622 293 584 c 0,10,11
 293 572 293 572 289 557 c 128,-1,12
 285 542 285 542 278 531 c 2,13,-1
 165 351 l 1,14,-1
 66 351 l 1,0,-1
EndSplineSet
EndChar

StartChar: quotesinglbase
Encoding: 8218 8218 75
Width: 282
GlyphClass: 1
Flags: W
LayerCount: 2
Fore
SplineSet
-40 -145 m 1,0,-1
 49 -3 l 1,1,2
 24 9 24 9 7.5 33 c 128,-1,3
 -9 57 -9 57 -9 86 c 0,4,5
 -9 128 -9 128 20.5 156 c 128,-1,6
 50 184 50 184 89 184 c 0,7,8
 130 184 130 184 158.5 155 c 128,-1,9
 187 126 187 126 187 88 c 0,10,11
 187 76 187 76 183 61 c 128,-1,12
 179 46 179 46 172 35 c 2,13,-1
 59 -145 l 1,14,-1
 -40 -145 l 1,0,-1
EndSplineSet
EndChar

StartChar: quotedblleft
Encoding: 8220 8220 76
Width: 505
GlyphClass: 1
Flags: W
LayerCount: 2
Fore
SplineSet
162 340 m 256,0,1
 122 340 122 340 94.5 367.5 c 128,-1,2
 67 395 67 395 67 435 c 0,3,4
 67 453 67 453 72.5 468 c 128,-1,5
 78 483 78 483 92 506 c 2,6,-1
 193 668 l 1,7,-1
 292 668 l 1,8,-1
 203 526 l 1,9,10
 229 515 229 515 245 491 c 128,-1,11
 261 467 261 467 261 438 c 0,12,13
 261 395 261 395 231.5 367.5 c 128,-1,14
 202 340 202 340 162 340 c 256,0,1
386 340 m 0,15,16
 345 340 345 340 318 368 c 128,-1,17
 291 396 291 396 291 429 c 0,18,19
 291 449 291 449 294.5 463 c 128,-1,20
 298 477 298 477 305 488 c 2,21,-1
 417 668 l 1,22,-1
 516 668 l 1,23,-1
 427 526 l 1,24,25
 453 514 453 514 469 489.5 c 128,-1,26
 485 465 485 465 485 436 c 0,27,28
 485 394 485 394 455.5 367 c 128,-1,29
 426 340 426 340 386 340 c 0,15,16
EndSplineSet
EndChar

StartChar: quotedblright
Encoding: 8221 8221 77
Width: 505
GlyphClass: 1
Flags: W
LayerCount: 2
Fore
SplineSet
290 350 m 1,0,-1
 379 492 l 1,1,2
 353 503 353 503 337 527.5 c 128,-1,3
 321 552 321 552 321 580 c 0,4,5
 321 624 321 624 350.5 651 c 128,-1,6
 380 678 380 678 420 678 c 256,7,8
 460 678 460 678 487.5 650.5 c 128,-1,9
 515 623 515 623 515 583 c 0,10,11
 515 565 515 565 509.5 550 c 128,-1,12
 504 535 504 535 490 512 c 2,13,-1
 389 350 l 1,14,-1
 290 350 l 1,0,-1
66 350 m 1,15,-1
 155 492 l 1,16,17
 129 504 129 504 113 528.5 c 128,-1,18
 97 553 97 553 97 582 c 0,19,20
 97 624 97 624 126.5 651 c 128,-1,21
 156 678 156 678 196 678 c 0,22,23
 237 678 237 678 264 650 c 128,-1,24
 291 622 291 622 291 589 c 0,25,26
 291 570 291 570 287.5 555.5 c 128,-1,27
 284 541 284 541 277 530 c 2,28,-1
 165 350 l 1,29,-1
 66 350 l 1,15,-1
EndSplineSet
EndChar

StartChar: dagger
Encoding: 8224 8224 79
Width: 594
GlyphClass: 1
Flags: W
LayerCount: 2
Fore
SplineSet
155 1 m 1,0,-1
 236 380 l 1,1,-1
 52 380 l 1,2,-1
 77 496 l 1,3,-1
 260 496 l 1,4,-1
 297 668 l 1,5,-1
 442 668 l 1,6,-1
 405 496 l 1,7,-1
 588 496 l 1,8,-1
 564 380 l 1,9,-1
 380 380 l 1,10,-1
 300 1 l 1,11,-1
 155 1 l 1,0,-1
EndSplineSet
EndChar

StartChar: daggerdbl
Encoding: 8225 8225 80
Width: 595
GlyphClass: 1
Flags: W
LayerCount: 2
Fore
SplineSet
155 1 m 1,0,-1
 192 173 l 1,1,-1
 8 173 l 1,2,-1
 33 288 l 1,3,-1
 216 288 l 1,4,-1
 236 380 l 1,5,-1
 52 380 l 1,6,-1
 77 496 l 1,7,-1
 260 496 l 1,8,-1
 297 668 l 1,9,-1
 442 668 l 1,10,-1
 405 496 l 1,11,-1
 589 496 l 1,12,-1
 564 380 l 1,13,-1
 381 380 l 1,14,-1
 361 288 l 1,15,-1
 544 288 l 1,16,-1
 520 173 l 1,17,-1
 336 173 l 1,18,-1
 301 1 l 1,19,-1
 155 1 l 1,0,-1
EndSplineSet
EndChar

StartChar: bullet
Encoding: 8226 8226 81
Width: 446
GlyphClass: 1
Flags: W
LayerCount: 2
Fore
SplineSet
207 88 m 256,0,1
 161 88 161 88 123.5 110.5 c 128,-1,2
 86 133 86 133 63.5 171 c 128,-1,3
 41 209 41 209 41 254 c 0,4,5
 41 300 41 300 63.5 337.5 c 128,-1,6
 86 375 86 375 123.5 397.5 c 128,-1,7
 161 420 161 420 207 420 c 256,8,9
 253 420 253 420 290.5 397.5 c 128,-1,10
 328 375 328 375 350.5 337.5 c 128,-1,11
 373 300 373 300 373 254 c 0,12,13
 373 209 373 209 350.5 171 c 128,-1,14
 328 133 328 133 290.5 110.5 c 128,-1,15
 253 88 253 88 207 88 c 256,0,1
EndSplineSet
EndChar

StartChar: ellipsis
Encoding: 8230 8230 82
Width: 807
GlyphClass: 1
Flags: W
LayerCount: 2
Fore
SplineSet
615 -12 m 0,0,1
 575 -12 575 -12 546 17 c 128,-1,2
 517 46 517 46 517 86 c 0,3,4
 517 127 517 127 546 155.5 c 128,-1,5
 575 184 575 184 615 184 c 0,6,7
 656 184 656 184 684 155.5 c 128,-1,8
 712 127 712 127 712 86 c 0,9,10
 712 46 712 46 684 17 c 128,-1,11
 656 -12 656 -12 615 -12 c 0,0,1
89 -12 m 256,12,13
 49 -12 49 -12 20 17 c 128,-1,14
 -9 46 -9 46 -9 86 c 0,15,16
 -9 127 -9 127 20 155.5 c 128,-1,17
 49 184 49 184 89 184 c 256,18,19
 129 184 129 184 157.5 155.5 c 128,-1,20
 186 127 186 127 186 86 c 0,21,22
 186 46 186 46 157.5 17 c 128,-1,23
 129 -12 129 -12 89 -12 c 256,12,13
351 -12 m 0,24,25
 311 -12 311 -12 283 17 c 128,-1,26
 255 46 255 46 255 86 c 0,27,28
 255 127 255 127 283 155.5 c 128,-1,29
 311 184 311 184 351 184 c 0,30,31
 392 184 392 184 420.5 155.5 c 128,-1,32
 449 127 449 127 449 86 c 0,33,34
 449 46 449 46 420.5 17 c 128,-1,35
 392 -12 392 -12 351 -12 c 0,24,25
EndSplineSet
EndChar

StartChar: perthousand
Encoding: 8240 8240 83
Width: 1472
GlyphClass: 1
Flags: W
LayerCount: 2
Fore
SplineSet
234 286 m 0,0,1
 183 286 183 286 143 309.5 c 128,-1,2
 103 333 103 333 79.5 372.5 c 128,-1,3
 56 412 56 412 56 461 c 0,4,5
 56 521 56 521 86.5 570.5 c 128,-1,6
 117 620 117 620 167 650 c 128,-1,7
 217 680 217 680 275 680 c 0,8,9
 326 680 326 680 366.5 656.5 c 128,-1,10
 407 633 407 633 430 593 c 128,-1,11
 453 553 453 553 453 503 c 0,12,13
 453 444 453 444 422.5 394.5 c 128,-1,14
 392 345 392 345 342 315.5 c 128,-1,15
 292 286 292 286 234 286 c 0,0,1
226 0 m 1,16,-1
 693 668 l 1,17,-1
 820 668 l 1,18,-1
 352 0 l 1,19,-1
 226 0 l 1,16,-1
246 405 m 0,20,21
 281 405 281 405 307.5 430.5 c 128,-1,22
 334 456 334 456 334 492 c 0,23,24
 334 521 334 521 313.5 541 c 128,-1,25
 293 561 293 561 263 561 c 0,26,27
 228 561 228 561 201.5 535 c 128,-1,28
 175 509 175 509 175 474 c 0,29,30
 175 444 175 444 195.5 424.5 c 128,-1,31
 216 405 216 405 246 405 c 0,20,21
769 -12 m 0,32,33
 718 -12 718 -12 678 11.5 c 128,-1,34
 638 35 638 35 615 75 c 128,-1,35
 592 115 592 115 592 165 c 0,36,37
 592 224 592 224 622.5 273.5 c 128,-1,38
 653 323 653 323 703 352.5 c 128,-1,39
 753 382 753 382 811 382 c 0,40,41
 862 382 862 382 902 358.5 c 128,-1,42
 942 335 942 335 965 295 c 128,-1,43
 988 255 988 255 988 205 c 0,44,45
 988 146 988 146 957.5 96.5 c 128,-1,46
 927 47 927 47 877 17.5 c 128,-1,47
 827 -12 827 -12 769 -12 c 0,32,33
1198 -12 m 0,48,49
 1147 -12 1147 -12 1107 11.5 c 128,-1,50
 1067 35 1067 35 1044 75 c 128,-1,51
 1021 115 1021 115 1021 165 c 0,52,53
 1021 224 1021 224 1051.5 273.5 c 128,-1,54
 1082 323 1082 323 1132 352.5 c 128,-1,55
 1182 382 1182 382 1240 382 c 0,56,57
 1291 382 1291 382 1331 358.5 c 128,-1,58
 1371 335 1371 335 1394 295 c 128,-1,59
 1417 255 1417 255 1417 205 c 0,60,61
 1417 146 1417 146 1386.5 96.5 c 128,-1,62
 1356 47 1356 47 1306 17.5 c 128,-1,63
 1256 -12 1256 -12 1198 -12 c 0,48,49
782 107 m 0,64,65
 816 107 816 107 842.5 132 c 128,-1,66
 869 157 869 157 869 192 c 0,67,68
 869 222 869 222 849 242.5 c 128,-1,69
 829 263 829 263 798 263 c 0,70,71
 764 263 764 263 737.5 237.5 c 128,-1,72
 711 212 711 212 711 177 c 0,73,74
 711 147 711 147 731 127 c 128,-1,75
 751 107 751 107 782 107 c 0,64,65
1211 107 m 0,76,77
 1245 107 1245 107 1271.5 132 c 128,-1,78
 1298 157 1298 157 1298 192 c 0,79,80
 1298 222 1298 222 1278 242.5 c 128,-1,81
 1258 263 1258 263 1227 263 c 0,82,83
 1193 263 1193 263 1166.5 237.5 c 128,-1,84
 1140 212 1140 212 1140 177 c 0,85,86
 1140 147 1140 147 1160 127 c 128,-1,87
 1180 107 1180 107 1211 107 c 0,76,77
EndSplineSet
EndChar

StartChar: guilsinglleft
Encoding: 8249 8249 84
Width: 401
GlyphClass: 1
Flags: W
LayerCount: 2
Fore
SplineSet
127 40 m 1,0,-1
 24 250 l 1,1,-1
 217 460 l 1,2,-1
 388 460 l 1,3,-1
 191 244 l 1,4,-1
 291 40 l 1,5,-1
 127 40 l 1,0,-1
EndSplineSet
EndChar

StartChar: guilsinglright
Encoding: 8250 8250 85
Width: 402
GlyphClass: 1
Flags: W
LayerCount: 2
Fore
SplineSet
-20 40 m 1,0,-1
 177 256 l 1,1,-1
 77 460 l 1,2,-1
 241 460 l 1,3,-1
 344 250 l 1,4,-1
 151 40 l 1,5,-1
 -20 40 l 1,0,-1
EndSplineSet
EndChar

StartChar: fraction
Encoding: 8260 8260 86
Width: 482
GlyphClass: 1
Flags: W
LayerCount: 2
Fore
SplineSet
-55 0 m 1,0,-1
 413 668 l 1,1,-1
 539 668 l 1,2,-1
 72 0 l 1,3,-1
 -55 0 l 1,0,-1
EndSplineSet
EndChar

StartChar: ordfeminine
Encoding: 170 170 87
Width: 395
GlyphClass: 1
Flags: W
LayerCount: 2
Fore
SplineSet
174 396 m 0,0,1
 131 396 131 396 108.5 419.5 c 128,-1,2
 86 443 86 443 86 477 c 0,3,4
 86 520 86 520 115.5 541 c 128,-1,5
 145 562 145 562 192 570.5 c 128,-1,6
 239 579 239 579 289 582 c 0,7,8
 291 585 291 585 292.5 590.5 c 128,-1,9
 294 596 294 596 294 601 c 0,10,11
 294 611 294 611 284 618 c 128,-1,12
 274 625 274 625 254 625 c 0,13,14
 241 625 241 625 227 619 c 128,-1,15
 213 613 213 613 207 599 c 1,16,-1
 127 631 l 1,17,18
 148 662 148 662 181 677 c 128,-1,19
 214 692 214 692 266 692 c 0,20,21
 298 692 298 692 325.5 683.5 c 128,-1,22
 353 675 353 675 370.5 654 c 128,-1,23
 388 633 388 633 388 596 c 0,24,25
 388 575 388 575 382 549 c 0,26,27
 373 510 373 510 367.5 475.5 c 128,-1,28
 362 441 362 441 358 403 c 1,29,-1
 272 403 l 1,30,-1
 270 435 l 1,31,32
 256 419 256 419 233 407.5 c 128,-1,33
 210 396 210 396 174 396 c 0,0,1
222 464 m 0,34,35
 239 464 239 464 254.5 475 c 128,-1,36
 270 486 270 486 277 510 c 2,37,-1
 282 528 l 1,38,-1
 256 525 l 2,39,40
 225 521 225 521 209 513.5 c 128,-1,41
 193 506 193 506 193 491 c 0,42,43
 192 478 192 478 201 471 c 128,-1,44
 210 464 210 464 222 464 c 0,34,35
EndSplineSet
EndChar

StartChar: guillemotleft
Encoding: 171 171 88
Width: 665
GlyphClass: 1
Flags: W
LayerCount: 2
Fore
SplineSet
379 40 m 1,0,-1
 276 250 l 1,1,-1
 469 460 l 1,2,-1
 640 460 l 1,3,-1
 443 244 l 1,4,-1
 543 40 l 1,5,-1
 379 40 l 1,0,-1
139 40 m 1,6,-1
 36 250 l 1,7,-1
 229 460 l 1,8,-1
 400 460 l 1,9,-1
 203 244 l 1,10,-1
 303 40 l 1,11,-1
 139 40 l 1,6,-1
EndSplineSet
EndChar

StartChar: logicalnot
Encoding: 172 172 89
Width: 696
GlyphClass: 1
Flags: W
LayerCount: 2
Fore
SplineSet
457 56 m 1,0,-1
 457 295 l 1,1,-1
 73 295 l 1,2,-1
 73 422 l 1,3,-1
 585 422 l 1,4,-1
 585 56 l 1,5,-1
 457 56 l 1,0,-1
EndSplineSet
EndChar

StartChar: registered
Encoding: 174 174 90
Width: 814
GlyphClass: 1
Flags: W
LayerCount: 2
Fore
SplineSet
407 -12 m 0,0,1
 336 -12 336 -12 273.5 15 c 128,-1,2
 211 42 211 42 163.5 89.5 c 128,-1,3
 116 137 116 137 89 199.5 c 128,-1,4
 62 262 62 262 62 334 c 0,5,6
 62 405 62 405 89 467.5 c 128,-1,7
 116 530 116 530 163.5 577.5 c 128,-1,8
 211 625 211 625 273.5 652 c 128,-1,9
 336 679 336 679 407 679 c 0,10,11
 479 679 479 679 542 652 c 128,-1,12
 605 625 605 625 652.5 577.5 c 128,-1,13
 700 530 700 530 727 467.5 c 128,-1,14
 754 405 754 405 754 334 c 0,15,16
 754 262 754 262 727 199.5 c 128,-1,17
 700 137 700 137 652.5 89.5 c 128,-1,18
 605 42 605 42 542 15 c 128,-1,19
 479 -12 479 -12 407 -12 c 0,0,1
407 57 m 256,20,21
 464 57 464 57 514.5 78.5 c 128,-1,22
 565 100 565 100 603 138 c 128,-1,23
 641 176 641 176 662.5 226.5 c 128,-1,24
 684 277 684 277 684 334 c 256,25,26
 684 391 684 391 662.5 441 c 128,-1,27
 641 491 641 491 603 529 c 128,-1,28
 565 567 565 567 514.5 588.5 c 128,-1,29
 464 610 464 610 407 610 c 256,30,31
 350 610 350 610 300.5 588.5 c 128,-1,32
 251 567 251 567 213 529 c 128,-1,33
 175 491 175 491 153.5 441 c 128,-1,34
 132 391 132 391 132 334 c 256,35,36
 132 277 132 277 153.5 226.5 c 128,-1,37
 175 176 175 176 213 138 c 128,-1,38
 251 100 251 100 300.5 78.5 c 128,-1,39
 350 57 350 57 407 57 c 256,20,21
250 161 m 1,40,-1
 250 529 l 1,41,-1
 401 529 l 2,42,43
 449 529 449 529 486.5 519.5 c 128,-1,44
 524 510 524 510 546 485.5 c 128,-1,45
 568 461 568 461 568 415 c 0,46,47
 568 384 568 384 550.5 354 c 128,-1,48
 533 324 533 324 481 310 c 1,49,-1
 588 161 l 1,50,-1
 480 161 l 1,51,-1
 379 300 l 1,52,-1
 347 300 l 1,53,-1
 347 161 l 1,54,-1
 250 161 l 1,40,-1
347 375 m 1,55,-1
 399 375 l 2,56,57
 428 375 428 375 447.5 382.5 c 128,-1,58
 467 390 467 390 467 414 c 256,59,60
 467 438 467 438 447.5 445.5 c 128,-1,61
 428 453 428 453 399 453 c 2,62,-1
 347 453 l 1,63,-1
 347 375 l 1,55,-1
EndSplineSet
EndChar

StartChar: macron
Encoding: 175 175 91
Width: 405
GlyphClass: 1
Flags: W
LayerCount: 2
Fore
SplineSet
104 570 m 1,0,-1
 125 668 l 1,1,-1
 424 668 l 1,2,-1
 403 570 l 1,3,-1
 104 570 l 1,0,-1
EndSplineSet
EndChar

StartChar: degree
Encoding: 176 176 92
Width: 411
GlyphClass: 1
Flags: W
LayerCount: 2
Fore
SplineSet
245 354 m 0,0,1
 201 354 201 354 164 376 c 128,-1,2
 127 398 127 398 105 435 c 128,-1,3
 83 472 83 472 83 517 c 256,4,5
 83 562 83 562 105 598.5 c 128,-1,6
 127 635 127 635 164 657 c 128,-1,7
 201 679 201 679 245 679 c 0,8,9
 290 679 290 679 327 657 c 128,-1,10
 364 635 364 635 385.5 598.5 c 128,-1,11
 407 562 407 562 407 517 c 256,12,13
 407 472 407 472 385.5 435 c 128,-1,14
 364 398 364 398 327 376 c 128,-1,15
 290 354 290 354 245 354 c 0,0,1
245 444 m 0,16,17
 276 444 276 444 297 465.5 c 128,-1,18
 318 487 318 487 318 517 c 256,19,20
 318 547 318 547 297 568.5 c 128,-1,21
 276 590 276 590 245 590 c 0,22,23
 215 590 215 590 193.5 568.5 c 128,-1,24
 172 547 172 547 172 517 c 256,25,26
 172 487 172 487 193.5 465.5 c 128,-1,27
 215 444 215 444 245 444 c 0,16,17
EndSplineSet
EndChar

StartChar: plusminus
Encoding: 177 177 93
Width: 701
GlyphClass: 1
Flags: W
LayerCount: 2
Fore
SplineSet
248 180 m 1,0,-1
 248 283 l 1,1,-1
 56 283 l 1,2,-1
 56 391 l 1,3,-1
 248 391 l 1,4,-1
 248 495 l 1,5,-1
 376 495 l 1,6,-1
 376 391 l 1,7,-1
 568 391 l 1,8,-1
 568 283 l 1,9,-1
 376 283 l 1,10,-1
 376 180 l 1,11,-1
 248 180 l 1,0,-1
56 0 m 1,12,-1
 56 128 l 1,13,-1
 568 128 l 1,14,-1
 568 0 l 1,15,-1
 56 0 l 1,12,-1
EndSplineSet
EndChar

StartChar: uni00B2
Encoding: 178 178 94
Width: 407
GlyphClass: 1
Flags: W
LayerCount: 2
Fore
SplineSet
70 403 m 1,0,-1
 87 484 l 1,1,2
 127 506 127 506 168 529.5 c 128,-1,3
 209 553 209 553 243.5 577 c 128,-1,4
 278 601 278 601 299.5 626 c 128,-1,5
 321 651 321 651 321 675 c 0,6,7
 321 693 321 693 307.5 702 c 128,-1,8
 294 711 294 711 277 711 c 0,9,10
 232 711 232 711 216 667 c 1,11,-1
 132 700 l 1,12,13
 175 788 175 788 288 788 c 0,14,15
 347 788 347 788 387 765.5 c 128,-1,16
 427 743 427 743 427 689 c 0,17,18
 427 650 427 650 399 612 c 128,-1,19
 371 574 371 574 328.5 542.5 c 128,-1,20
 286 511 286 511 240 491 c 1,21,-1
 388 491 l 1,22,-1
 370 403 l 1,23,-1
 70 403 l 1,0,-1
EndSplineSet
EndChar

StartChar: uni00B3
Encoding: 179 179 95
Width: 425
GlyphClass: 1
Flags: W
LayerCount: 2
Fore
SplineSet
253 396 m 0,0,1
 203 396 203 396 162 417 c 128,-1,2
 121 438 121 438 98 478 c 1,3,-1
 196 511 l 1,4,5
 210 472 210 472 254 472 c 0,6,7
 277 472 277 472 291 485 c 128,-1,8
 305 498 305 498 305 514 c 0,9,10
 305 535 305 535 286.5 543.5 c 128,-1,11
 268 552 268 552 233 552 c 2,12,-1
 218 552 l 1,13,-1
 236 636 l 1,14,-1
 251 636 l 2,15,16
 283 636 283 636 303.5 646.5 c 128,-1,17
 324 657 324 657 324 680 c 0,18,19
 324 693 324 693 312.5 703 c 128,-1,20
 301 713 301 713 278 713 c 0,21,22
 260 713 260 713 244 706 c 128,-1,23
 228 699 228 699 217 676 c 1,24,-1
 134 709 l 1,25,26
 157 748 157 748 194 768 c 128,-1,27
 231 788 231 788 286 788 c 0,28,29
 345 788 345 788 386.5 763 c 128,-1,30
 428 738 428 738 428 688 c 0,31,32
 428 654 428 654 409.5 631 c 128,-1,33
 391 608 391 608 362 599 c 1,34,35
 382 589 382 589 396 568.5 c 128,-1,36
 410 548 410 548 410 521 c 0,37,38
 410 481 410 481 388.5 453 c 128,-1,39
 367 425 367 425 331.5 410.5 c 128,-1,40
 296 396 296 396 253 396 c 0,0,1
EndSplineSet
EndChar

StartChar: acute
Encoding: 180 180 96
Width: 320
GlyphClass: 1
Flags: W
LayerCount: 2
Fore
SplineSet
105 574 m 1,0,1
 105 574 105 574 119.5 588 c 128,-1,2
 134 602 134 602 155 623 c 128,-1,3
 176 644 176 644 197 665 c 128,-1,4
 218 686 218 686 232.5 700.5 c 128,-1,5
 247 715 247 715 248 715 c 0,6,7
 263 727 263 727 282 727 c 0,8,9
 310 727 310 727 326 706 c 0,10,11
 339 692 339 692 339 671 c 0,12,13
 339 645 339 645 318 628 c 0,14,15
 316 626 316 626 302 617.5 c 128,-1,16
 288 609 288 609 271 599 c 128,-1,17
 254 589 254 589 241 581.5 c 128,-1,18
 228 574 228 574 228 574 c 1,19,-1
 105 574 l 1,0,1
EndSplineSet
EndChar

StartChar: uni03BC
Encoding: 956 956 97
Width: 577
GlyphClass: 1
Flags: W
LayerCount: 2
Fore
SplineSet
-55 -161 m 1,0,-1
 85 495 l 1,1,-1
 240 495 l 1,2,-1
 184 231 l 2,3,4
 172 175 172 175 182 140.5 c 128,-1,5
 192 106 192 106 244 106 c 0,6,7
 284 106 284 106 309 135 c 128,-1,8
 334 164 334 164 348 231 c 2,9,-1
 404 495 l 1,10,-1
 560 495 l 1,11,-1
 455 0 l 1,12,-1
 314 0 l 1,13,-1
 310 43 l 1,14,15
 297 20 297 20 270.5 7.5 c 128,-1,16
 244 -5 244 -5 217 -5 c 0,17,18
 192 -5 192 -5 171.5 6 c 128,-1,19
 151 17 151 17 143 40 c 1,20,-1
 101 -161 l 1,21,-1
 -55 -161 l 1,0,-1
EndSplineSet
EndChar

StartChar: paragraph
Encoding: 182 182 98
Width: 530
GlyphClass: 1
Flags: W
LayerCount: 2
Fore
SplineSet
62 -161 m 1,0,-1
 159 296 l 1,1,2
 110 310 110 310 80.5 348 c 128,-1,3
 51 386 51 386 51 438 c 0,4,5
 51 448 51 448 52 458 c 128,-1,6
 53 468 53 468 55 478 c 0,7,8
 67 531 67 531 101.5 574 c 128,-1,9
 136 617 136 617 184.5 642.5 c 128,-1,10
 233 668 233 668 285 668 c 2,11,-1
 572 668 l 1,12,-1
 557 600 l 1,13,-1
 509 600 l 1,14,-1
 347 -161 l 1,15,-1
 252 -161 l 1,16,-1
 413 600 l 1,17,-1
 320 600 l 1,18,-1
 158 -161 l 1,19,-1
 62 -161 l 1,0,-1
EndSplineSet
EndChar

StartChar: periodcentered
Encoding: 183 183 99
Width: 305
GlyphClass: 1
Flags: W
LayerCount: 2
Fore
SplineSet
136 151 m 256,0,1
 96 151 96 151 67 179.5 c 128,-1,2
 38 208 38 208 38 248 c 0,3,4
 38 289 38 289 67 317 c 128,-1,5
 96 345 96 345 136 345 c 256,6,7
 176 345 176 345 204.5 317 c 128,-1,8
 233 289 233 289 233 248 c 0,9,10
 233 208 233 208 204.5 179.5 c 128,-1,11
 176 151 176 151 136 151 c 256,0,1
EndSplineSet
EndChar

StartChar: cedilla
Encoding: 184 184 100
Width: 322
GlyphClass: 1
Flags: W
LayerCount: 2
Fore
SplineSet
61 -195 m 0,0,1
 30 -195 30 -195 4 -189.5 c 128,-1,2
 -22 -184 -22 -184 -35 -178 c 1,3,-1
 -9 -128 l 1,4,5
 20 -141 20 -141 51 -141 c 0,6,7
 72 -141 72 -141 87.5 -133 c 128,-1,8
 103 -125 103 -125 103 -109 c 0,9,10
 103 -98 103 -98 92 -91 c 128,-1,11
 81 -84 81 -84 64 -84 c 0,12,13
 51 -84 51 -84 46 -86.5 c 128,-1,14
 41 -89 41 -89 35 -89 c 0,15,16
 28 -89 28 -89 22 -84.5 c 128,-1,17
 16 -80 16 -80 16 -71 c 0,18,19
 16 -64 16 -64 22 -57 c 2,20,-1
 91 26 l 1,21,-1
 127 1 l 1,22,-1
 87 -47 l 1,23,24
 102 -44 102 -44 115 -44 c 0,25,26
 150 -44 150 -44 172 -60.5 c 128,-1,27
 194 -77 194 -77 194 -103 c 0,28,29
 194 -139 194 -139 173.5 -159 c 128,-1,30
 153 -179 153 -179 122 -187 c 128,-1,31
 91 -195 91 -195 61 -195 c 0,0,1
EndSplineSet
EndChar

StartChar: uni00B9
Encoding: 185 185 101
Width: 294
GlyphClass: 1
Flags: W
LayerCount: 2
Fore
SplineSet
153 403 m 1,0,-1
 205 647 l 1,1,-1
 121 647 l 1,2,-1
 140 735 l 1,3,4
 180 735 180 735 207 741.5 c 128,-1,5
 234 748 234 748 255 779 c 1,6,-1
 337 779 l 1,7,-1
 257 403 l 1,8,-1
 153 403 l 1,0,-1
EndSplineSet
EndChar

StartChar: ordmasculine
Encoding: 186 186 102
Width: 412
GlyphClass: 1
Flags: W
LayerCount: 2
Fore
SplineSet
240 396 m 0,0,1
 182 396 182 396 142 426.5 c 128,-1,2
 102 457 102 457 102 521 c 0,3,4
 102 597 102 597 148.5 643 c 128,-1,5
 195 689 195 689 271 689 c 0,6,7
 329 689 329 689 368.5 659 c 128,-1,8
 408 629 408 629 408 565 c 0,9,10
 408 507 408 507 384.5 469.5 c 128,-1,11
 361 432 361 432 323 414 c 128,-1,12
 285 396 285 396 240 396 c 0,0,1
248 473 m 0,13,14
 271 473 271 473 288 493.5 c 128,-1,15
 305 514 305 514 305 557 c 0,16,17
 305 585 305 585 293 598.5 c 128,-1,18
 281 612 281 612 263 612 c 0,19,20
 240 612 240 612 222.5 592 c 128,-1,21
 205 572 205 572 205 528 c 0,22,23
 205 500 205 500 217 486.5 c 128,-1,24
 229 473 229 473 248 473 c 0,13,14
EndSplineSet
EndChar

StartChar: guillemotright
Encoding: 187 187 103
Width: 666
GlyphClass: 1
Flags: W
LayerCount: 2
Fore
SplineSet
232 40 m 1,0,-1
 429 256 l 1,1,-1
 329 460 l 1,2,-1
 493 460 l 1,3,-1
 596 250 l 1,4,-1
 403 40 l 1,5,-1
 232 40 l 1,0,-1
-8 40 m 1,6,-1
 189 256 l 1,7,-1
 89 460 l 1,8,-1
 253 460 l 1,9,-1
 356 250 l 1,10,-1
 163 40 l 1,11,-1
 -8 40 l 1,6,-1
EndSplineSet
EndChar

StartChar: onequarter
Encoding: 188 188 104
Width: 930
GlyphClass: 1
Flags: W
LayerCount: 2
Fore
SplineSet
129 292 m 1,0,-1
 181 536 l 1,1,-1
 97 536 l 1,2,-1
 116 623 l 1,3,4
 156 623 156 623 183 630 c 128,-1,5
 210 637 210 637 231 668 c 1,6,-1
 313 668 l 1,7,-1
 233 292 l 1,8,-1
 129 292 l 1,0,-1
129 0 m 1,9,-1
 597 667 l 1,10,-1
 724 667 l 1,11,-1
 256 0 l 1,12,-1
 129 0 l 1,9,-1
646 0 m 1,13,-1
 662 75 l 1,14,-1
 470 75 l 1,15,-1
 487 152 l 1,16,-1
 715 375 l 1,17,-1
 829 375 l 1,18,-1
 784 161 l 1,19,-1
 841 161 l 1,20,-1
 822 75 l 1,21,-1
 765 75 l 1,22,-1
 749 0 l 1,23,-1
 646 0 l 1,13,-1
602 161 m 1,24,-1
 680 161 l 1,25,-1
 700 257 l 1,26,-1
 602 161 l 1,24,-1
EndSplineSet
Ligature2: "'frac' Diagonal Fractions lookup 10 subtable" one slash four
EndChar

StartChar: onehalf
Encoding: 189 189 105
Width: 919
GlyphClass: 1
Flags: W
LayerCount: 2
Fore
SplineSet
129 292 m 1,0,-1
 181 536 l 1,1,-1
 97 536 l 1,2,-1
 116 623 l 1,3,4
 156 623 156 623 183 630 c 128,-1,5
 210 637 210 637 231 668 c 1,6,-1
 313 668 l 1,7,-1
 233 292 l 1,8,-1
 129 292 l 1,0,-1
129 0 m 1,9,-1
 597 667 l 1,10,-1
 724 667 l 1,11,-1
 256 0 l 1,12,-1
 129 0 l 1,9,-1
496 0 m 1,13,-1
 513 81 l 1,14,15
 552 102 552 102 593 125.5 c 128,-1,16
 634 149 634 149 669 173 c 128,-1,17
 704 197 704 197 725.5 222 c 128,-1,18
 747 247 747 247 747 272 c 0,19,20
 747 290 747 290 733 299 c 128,-1,21
 719 308 719 308 702 308 c 0,22,23
 657 308 657 308 642 264 c 1,24,-1
 558 297 l 1,25,26
 599 384 599 384 714 384 c 0,27,28
 773 384 773 384 813.5 361.5 c 128,-1,29
 854 339 854 339 854 286 c 0,30,31
 854 247 854 247 826 209 c 128,-1,32
 798 171 798 171 755 139.5 c 128,-1,33
 712 108 712 108 666 88 c 1,34,-1
 815 88 l 1,35,-1
 796 0 l 1,36,-1
 496 0 l 1,13,-1
EndSplineSet
Ligature2: "'frac' Diagonal Fractions lookup 10 subtable" one slash two
EndChar

StartChar: threequarters
Encoding: 190 190 106
Width: 958
GlyphClass: 1
Flags: W
LayerCount: 2
Fore
SplineSet
230 287 m 0,0,1
 180 287 180 287 139 308 c 128,-1,2
 98 329 98 329 75 369 c 1,3,-1
 173 402 l 1,4,5
 187 363 187 363 231 363 c 0,6,7
 254 363 254 363 268 376 c 128,-1,8
 282 389 282 389 282 405 c 0,9,10
 282 426 282 426 263.5 434.5 c 128,-1,11
 245 443 245 443 210 443 c 2,12,-1
 195 443 l 1,13,-1
 213 527 l 1,14,-1
 228 527 l 2,15,16
 260 527 260 527 280.5 537.5 c 128,-1,17
 301 548 301 548 301 571 c 0,18,19
 301 584 301 584 289.5 594 c 128,-1,20
 278 604 278 604 255 604 c 0,21,22
 237 604 237 604 221 597 c 128,-1,23
 205 590 205 590 194 567 c 1,24,-1
 111 600 l 1,25,26
 134 639 134 639 171 659 c 128,-1,27
 208 679 208 679 263 679 c 0,28,29
 322 679 322 679 363.5 654 c 128,-1,30
 405 629 405 629 405 579 c 0,31,32
 405 545 405 545 386.5 522 c 128,-1,33
 368 499 368 499 339 490 c 1,34,35
 359 480 359 480 373 459.5 c 128,-1,36
 387 439 387 439 387 412 c 0,37,38
 387 372 387 372 365.5 344 c 128,-1,39
 344 316 344 316 308.5 301.5 c 128,-1,40
 273 287 273 287 230 287 c 0,0,1
198 0 m 1,41,-1
 666 667 l 1,42,-1
 793 667 l 1,43,-1
 325 0 l 1,44,-1
 198 0 l 1,41,-1
674 0 m 1,45,-1
 690 75 l 1,46,-1
 499 75 l 1,47,-1
 515 152 l 1,48,-1
 744 375 l 1,49,-1
 858 375 l 1,50,-1
 812 161 l 1,51,-1
 869 161 l 1,52,-1
 851 75 l 1,53,-1
 794 75 l 1,54,-1
 778 0 l 1,55,-1
 674 0 l 1,45,-1
630 161 m 1,56,-1
 709 161 l 1,57,-1
 729 257 l 1,58,-1
 630 161 l 1,56,-1
EndSplineSet
Ligature2: "'frac' Diagonal Fractions lookup 10 subtable" three slash four
EndChar

StartChar: less
Encoding: 60 60 107
Width: 640
GlyphClass: 1
Flags: W
LayerCount: 2
Fore
SplineSet
527 -12 m 1,0,-1
 34 200 l 1,1,-1
 34 299 l 1,2,-1
 527 510 l 1,3,-1
 527 368 l 1,4,-1
 203 250 l 1,5,-1
 527 130 l 1,6,-1
 527 -12 l 1,0,-1
EndSplineSet
EndChar

StartChar: equal
Encoding: 61 61 108
Width: 685
GlyphClass: 1
Flags: W
LayerCount: 2
Fore
SplineSet
60 283 m 1,0,-1
 60 410 l 1,1,-1
 572 410 l 1,2,-1
 572 283 l 1,3,-1
 60 283 l 1,0,-1
60 96 m 1,4,-1
 60 225 l 1,5,-1
 572 225 l 1,6,-1
 572 96 l 1,7,-1
 60 96 l 1,4,-1
EndSplineSet
EndChar

StartChar: greater
Encoding: 62 62 109
Width: 638
GlyphClass: 1
Flags: W
LayerCount: 2
Fore
SplineSet
78 -12 m 1,0,-1
 78 130 l 1,1,-1
 403 250 l 1,2,-1
 78 368 l 1,3,-1
 78 510 l 1,4,-1
 571 299 l 1,5,-1
 571 200 l 1,6,-1
 78 -12 l 1,0,-1
EndSplineSet
EndChar

StartChar: question
Encoding: 63 63 110
Width: 634
GlyphClass: 1
Flags: W
LayerCount: 2
Fore
SplineSet
185 243 m 1,0,1
 188 266 188 266 195 284 c 0,2,3
 211 328 211 328 245.5 359 c 128,-1,4
 280 390 280 390 326 411 c 0,5,6
 351 423 351 423 379 435 c 128,-1,7
 407 447 407 447 427 462 c 128,-1,8
 447 477 447 477 448 497 c 0,9,10
 450 526 450 526 425.5 539 c 128,-1,11
 401 552 401 552 356 552 c 0,12,13
 308 552 308 552 272.5 535 c 128,-1,14
 237 518 237 518 223 486 c 1,15,-1
 85 541 l 1,16,17
 128 617 128 617 201 648.5 c 128,-1,18
 274 680 274 680 368 680 c 0,19,20
 414 680 414 680 459 672 c 128,-1,21
 504 664 504 664 541 646.5 c 128,-1,22
 578 629 578 629 600.5 600 c 128,-1,23
 623 571 623 571 623 529 c 0,24,25
 623 480 623 480 602 445.5 c 128,-1,26
 581 411 581 411 546 387 c 128,-1,27
 511 363 511 363 468 345 c 0,28,29
 429 329 429 329 404 314 c 128,-1,30
 379 299 379 299 363 276 c 0,31,32
 359 269 359 269 354.5 261 c 128,-1,33
 350 253 350 253 346 243 c 1,34,-1
 185 243 l 1,0,1
237 -12 m 0,35,36
 197 -12 197 -12 168.5 17 c 128,-1,37
 140 46 140 46 140 86 c 0,38,39
 140 127 140 127 168.5 155 c 128,-1,40
 197 183 197 183 237 183 c 0,41,42
 278 183 278 183 306.5 155 c 128,-1,43
 335 127 335 127 335 86 c 0,44,45
 335 46 335 46 306.5 17 c 128,-1,46
 278 -12 278 -12 237 -12 c 0,35,36
EndSplineSet
EndChar

StartChar: at
Encoding: 64 64 111
Width: 753
GlyphClass: 1
Flags: W
LayerCount: 2
Fore
SplineSet
386 -12 m 0,0,1
 285 -12 285 -12 207 30 c 128,-1,2
 129 72 129 72 85 147.5 c 128,-1,3
 41 223 41 223 41 323 c 0,4,5
 41 395 41 395 68 459 c 128,-1,6
 95 523 95 523 142.5 573 c 128,-1,7
 190 623 190 623 252.5 651.5 c 128,-1,8
 315 680 315 680 386 680 c 0,9,10
 446 680 446 680 505 658 c 128,-1,11
 564 636 564 636 612.5 595 c 128,-1,12
 661 554 661 554 690.5 496.5 c 128,-1,13
 720 439 720 439 720 368 c 0,14,15
 720 308 720 308 698 259 c 128,-1,16
 676 210 676 210 636 181.5 c 128,-1,17
 596 153 596 153 541 153 c 0,18,19
 502 153 502 153 471 171.5 c 128,-1,20
 440 190 440 190 430 224 c 1,21,22
 402 188 402 188 367.5 170.5 c 128,-1,23
 333 153 333 153 299 153 c 0,24,25
 252 153 252 153 216.5 185 c 128,-1,26
 181 217 181 217 181 276 c 0,27,28
 181 346 181 346 212.5 400.5 c 128,-1,29
 244 455 244 455 300 486.5 c 128,-1,30
 356 518 356 518 428 518 c 0,31,32
 459 518 459 518 489 512.5 c 128,-1,33
 519 507 519 507 545 498 c 1,34,-1
 509 330 l 2,35,36
 505 308 505 308 503 298 c 128,-1,37
 501 288 501 288 501 280 c 0,38,39
 501 252 501 252 516.5 241.5 c 128,-1,40
 532 231 532 231 551 231 c 0,41,42
 583 231 583 231 604.5 249.5 c 128,-1,43
 626 268 626 268 637 298 c 128,-1,44
 648 328 648 328 648 363 c 0,45,46
 648 435 648 435 611.5 491 c 128,-1,47
 575 547 575 547 515 578.5 c 128,-1,48
 455 610 455 610 386 610 c 0,49,50
 328 610 328 610 278 586.5 c 128,-1,51
 228 563 228 563 190 523 c 128,-1,52
 152 483 152 483 131 431.5 c 128,-1,53
 110 380 110 380 110 323 c 0,54,55
 110 241 110 241 145.5 181 c 128,-1,56
 181 121 181 121 243.5 88.5 c 128,-1,57
 306 56 306 56 386 56 c 0,58,59
 424 56 424 56 457.5 65.5 c 128,-1,60
 491 75 491 75 522 94 c 1,61,-1
 522 16 l 1,62,63
 458 -12 458 -12 386 -12 c 0,0,1
325 250 m 0,64,65
 350 250 350 250 376 272.5 c 128,-1,66
 402 295 402 295 411 339 c 0,67,68
 420 381 420 381 423.5 399 c 128,-1,69
 427 417 427 417 428 421 c 128,-1,70
 429 425 429 425 429 425 c 1,71,72
 416 428 416 428 400 428 c 0,73,74
 364 428 364 428 337.5 409 c 128,-1,75
 311 390 311 390 296.5 360.5 c 128,-1,76
 282 331 282 331 282 298 c 0,77,78
 282 274 282 274 294.5 262 c 128,-1,79
 307 250 307 250 325 250 c 0,64,65
EndSplineSet
EndChar

StartChar: colon
Encoding: 58 58 112
Width: 247
GlyphClass: 1
Flags: W
LayerCount: 2
Fore
SplineSet
142 316 m 0,0,1
 102 316 102 316 73 344.5 c 128,-1,2
 44 373 44 373 44 413 c 0,3,4
 44 454 44 454 73 482.5 c 128,-1,5
 102 511 102 511 142 511 c 0,6,7
 183 511 183 511 211 482.5 c 128,-1,8
 239 454 239 454 239 413 c 0,9,10
 239 373 239 373 211 344.5 c 128,-1,11
 183 316 183 316 142 316 c 0,0,1
72 -12 m 256,12,13
 32 -12 32 -12 3 17 c 128,-1,14
 -26 46 -26 46 -26 86 c 0,15,16
 -26 127 -26 127 3 155 c 128,-1,17
 32 183 32 183 72 183 c 256,18,19
 112 183 112 183 140.5 155 c 128,-1,20
 169 127 169 127 169 86 c 0,21,22
 169 46 169 46 140.5 17 c 128,-1,23
 112 -12 112 -12 72 -12 c 256,12,13
EndSplineSet
EndChar

StartChar: bracketleft
Encoding: 91 91 114
Width: 340
GlyphClass: 1
Flags: W
LayerCount: 2
Fore
SplineSet
-57 -161 m 1,0,-1
 119 668 l 1,1,-1
 378 668 l 1,2,-1
 353 552 l 1,3,-1
 226 552 l 1,4,-1
 99 -46 l 1,5,-1
 227 -46 l 1,6,-1
 202 -161 l 1,7,-1
 -57 -161 l 1,0,-1
EndSplineSet
EndChar

StartChar: backslash
Encoding: 92 92 115
Width: 584
GlyphClass: 1
Flags: W
LayerCount: 2
Fore
SplineSet
348 0 m 1,0,-1
 87 668 l 1,1,-1
 240 668 l 1,2,-1
 499 0 l 1,3,-1
 348 0 l 1,0,-1
EndSplineSet
EndChar

StartChar: bracketright
Encoding: 93 93 116
Width: 342
GlyphClass: 1
Flags: W
LayerCount: 2
Fore
SplineSet
-71 -161 m 1,0,-1
 -46 -46 l 1,1,-1
 82 -46 l 1,2,-1
 209 552 l 1,3,-1
 81 552 l 1,4,-1
 105 668 l 1,5,-1
 364 668 l 1,6,-1
 188 -161 l 1,7,-1
 -71 -161 l 1,0,-1
EndSplineSet
EndChar

StartChar: asciicircum
Encoding: 94 94 117
Width: 589
GlyphClass: 1
Flags: W
LayerCount: 2
Fore
SplineSet
49 312 m 1,0,-1
 234 668 l 1,1,-1
 347 668 l 1,2,-1
 532 312 l 1,3,-1
 389 312 l 1,4,-1
 291 506 l 1,5,-1
 192 312 l 1,6,-1
 49 312 l 1,0,-1
EndSplineSet
EndChar

StartChar: underscore
Encoding: 95 95 118
Width: 457
GlyphClass: 1
Flags: W
LayerCount: 2
Fore
SplineSet
-30 -128 m 1,0,-1
 -30 0 l 1,1,-1
 380 0 l 1,2,-1
 380 -128 l 1,3,-1
 -30 -128 l 1,0,-1
EndSplineSet
EndChar

StartChar: grave
Encoding: 96 96 119
Width: 315
GlyphClass: 1
Flags: W
LayerCount: 2
Fore
SplineSet
206 574 m 1,0,1
 206 574 206 574 193 585 c 128,-1,2
 180 596 180 596 164 610.5 c 128,-1,3
 148 625 148 625 139 635 c 0,4,5
 127 652 127 652 127 670 c 0,6,7
 127 696 127 696 148 714 c 0,8,9
 162 727 162 727 183 727 c 0,10,11
 210 727 210 727 226 706 c 0,12,13
 235 694 235 694 250 672.5 c 128,-1,14
 265 651 265 651 279.5 628 c 128,-1,15
 294 605 294 605 304 589.5 c 128,-1,16
 314 574 314 574 314 574 c 1,17,-1
 206 574 l 1,0,1
EndSplineSet
EndChar

StartChar: exclam
Encoding: 33 33 120
Width: 298
GlyphClass: 1
Flags: W
LayerCount: 2
Fore
SplineSet
71 243 m 1,0,-1
 83 496 l 1,1,-1
 120 668 l 1,2,-1
 318 668 l 1,3,-1
 281 496 l 1,4,-1
 186 243 l 1,5,-1
 71 243 l 1,0,-1
97 -12 m 256,6,7
 57 -12 57 -12 28 17 c 128,-1,8
 -1 46 -1 46 -1 86 c 0,9,10
 -1 127 -1 127 28 155.5 c 128,-1,11
 57 184 57 184 97 184 c 256,12,13
 137 184 137 184 165.5 155.5 c 128,-1,14
 194 127 194 127 194 86 c 0,15,16
 194 46 194 46 165.5 17 c 128,-1,17
 137 -12 137 -12 97 -12 c 256,6,7
EndSplineSet
EndChar

StartChar: quotedbl
Encoding: 34 34 121
Width: 444
GlyphClass: 1
Flags: W
LayerCount: 2
Fore
SplineSet
305 434 m 1,0,-1
 290 668 l 1,1,-1
 432 668 l 1,2,-1
 418 434 l 1,3,-1
 305 434 l 1,0,-1
116 434 m 1,4,-1
 102 668 l 1,5,-1
 244 668 l 1,6,-1
 230 434 l 1,7,-1
 116 434 l 1,4,-1
EndSplineSet
EndChar

StartChar: numbersign
Encoding: 35 35 122
Width: 750
GlyphClass: 1
Flags: W
LayerCount: 2
Fore
SplineSet
118 0 m 1,0,-1
 136 127 l 1,1,-1
 8 127 l 1,2,-1
 28 266 l 1,3,-1
 156 266 l 1,4,-1
 176 401 l 1,5,-1
 48 401 l 1,6,-1
 68 541 l 1,7,-1
 196 541 l 1,8,-1
 215 668 l 1,9,-1
 355 668 l 1,10,-1
 336 541 l 1,11,-1
 473 541 l 1,12,-1
 492 668 l 1,13,-1
 633 668 l 1,14,-1
 614 541 l 1,15,-1
 743 541 l 1,16,-1
 722 402 l 1,17,-1
 594 402 l 1,18,-1
 575 267 l 1,19,-1
 703 267 l 1,20,-1
 683 127 l 1,21,-1
 554 127 l 1,22,-1
 536 0 l 1,23,-1
 395 0 l 1,24,-1
 413 127 l 1,25,-1
 277 127 l 1,26,-1
 259 0 l 1,27,-1
 118 0 l 1,0,-1
297 267 m 1,28,-1
 434 267 l 1,29,-1
 453 401 l 1,30,-1
 316 401 l 1,31,-1
 297 267 l 1,28,-1
EndSplineSet
EndChar

StartChar: dollar
Encoding: 36 36 123
Width: 643
GlyphClass: 1
Flags: W
LayerCount: 2
Fore
SplineSet
188 -86 m 1,0,-1
 207 -1 l 1,1,2
 135 16 135 16 84 56.5 c 128,-1,3
 33 97 33 97 10 157 c 1,4,-1
 165 210 l 1,5,6
 171 181 171 181 190.5 161 c 128,-1,7
 210 141 210 141 235 130 c 1,8,-1
 266 280 l 1,9,10
 229 292 229 292 193 307 c 128,-1,11
 157 322 157 322 127 344 c 128,-1,12
 97 366 97 366 79 398 c 128,-1,13
 61 430 61 430 61 476 c 0,14,15
 61 564 61 564 130 619.5 c 128,-1,16
 199 675 199 675 325 679 c 0,17,18
 335 680 335 680 341 680 c 128,-1,19
 347 680 347 680 352 680 c 1,20,-1
 366 747 l 1,21,-1
 441 747 l 1,22,-1
 425 671 l 1,23,24
 480 658 480 658 528 626 c 128,-1,25
 576 594 576 594 607 536 c 1,26,-1
 452 484 l 1,27,28
 445 503 445 503 430.5 516.5 c 128,-1,29
 416 530 416 530 397 538 c 1,30,-1
 367 398 l 1,31,32
 432 381 432 381 482 358 c 128,-1,33
 532 335 532 335 560.5 299 c 128,-1,34
 589 263 589 263 589 205 c 0,35,36
 589 136 589 136 550.5 87.5 c 128,-1,37
 512 39 512 39 448 13.5 c 128,-1,38
 384 -12 384 -12 305 -12 c 0,39,40
 299 -12 299 -12 292.5 -12 c 128,-1,41
 286 -12 286 -12 280 -11 c 1,42,-1
 264 -86 l 1,43,-1
 188 -86 l 1,0,-1
296 421 m 1,44,-1
 324 552 l 1,45,46
 275 551 275 551 249.5 534.5 c 128,-1,47
 224 518 224 518 224 493 c 0,48,49
 224 466 224 466 244.5 449.5 c 128,-1,50
 265 433 265 433 296 421 c 1,44,-1
326 114 m 0,51,52
 367 116 367 116 396 133.5 c 128,-1,53
 425 151 425 151 425 179 c 0,54,55
 425 208 425 208 400 225.5 c 128,-1,56
 375 243 375 243 337 256 c 1,57,-1
 307 115 l 1,58,59
 312 114 312 114 317 114 c 128,-1,60
 322 114 322 114 326 114 c 0,51,52
EndSplineSet
EndChar

StartChar: percent
Encoding: 37 37 124
Width: 1043
GlyphClass: 1
Flags: W
LayerCount: 2
Fore
SplineSet
234 286 m 0,0,1
 183 286 183 286 143 309.5 c 128,-1,2
 103 333 103 333 79.5 372.5 c 128,-1,3
 56 412 56 412 56 461 c 0,4,5
 56 521 56 521 86.5 570.5 c 128,-1,6
 117 620 117 620 167 650 c 128,-1,7
 217 680 217 680 275 680 c 0,8,9
 326 680 326 680 366.5 656.5 c 128,-1,10
 407 633 407 633 430 593 c 128,-1,11
 453 553 453 553 453 503 c 0,12,13
 453 444 453 444 422.5 394.5 c 128,-1,14
 392 345 392 345 342 315.5 c 128,-1,15
 292 286 292 286 234 286 c 0,0,1
226 0 m 1,16,-1
 693 668 l 1,17,-1
 820 668 l 1,18,-1
 352 0 l 1,19,-1
 226 0 l 1,16,-1
246 405 m 0,20,21
 281 405 281 405 307.5 430.5 c 128,-1,22
 334 456 334 456 334 492 c 0,23,24
 334 521 334 521 313.5 541 c 128,-1,25
 293 561 293 561 263 561 c 0,26,27
 228 561 228 561 201.5 535 c 128,-1,28
 175 509 175 509 175 474 c 0,29,30
 175 444 175 444 195.5 424.5 c 128,-1,31
 216 405 216 405 246 405 c 0,20,21
769 -12 m 0,32,33
 718 -12 718 -12 678 11.5 c 128,-1,34
 638 35 638 35 615 75 c 128,-1,35
 592 115 592 115 592 165 c 0,36,37
 592 224 592 224 622.5 273.5 c 128,-1,38
 653 323 653 323 703 352.5 c 128,-1,39
 753 382 753 382 811 382 c 0,40,41
 862 382 862 382 902 358.5 c 128,-1,42
 942 335 942 335 965 295 c 128,-1,43
 988 255 988 255 988 205 c 0,44,45
 988 146 988 146 957.5 96.5 c 128,-1,46
 927 47 927 47 877 17.5 c 128,-1,47
 827 -12 827 -12 769 -12 c 0,32,33
782 107 m 0,48,49
 816 107 816 107 842.5 132 c 128,-1,50
 869 157 869 157 869 192 c 0,51,52
 869 222 869 222 849 242.5 c 128,-1,53
 829 263 829 263 798 263 c 0,54,55
 764 263 764 263 737.5 237.5 c 128,-1,56
 711 212 711 212 711 177 c 0,57,58
 711 147 711 147 731 127 c 128,-1,59
 751 107 751 107 782 107 c 0,48,49
EndSplineSet
EndChar

StartChar: ampersand
Encoding: 38 38 125
Width: 683
GlyphClass: 1
Flags: W
LayerCount: 2
Fore
SplineSet
199 -10 m 0,0,1
 136 -10 136 -10 89.5 15 c 128,-1,2
 43 40 43 40 18 81 c 128,-1,3
 -7 122 -7 122 -7 169 c 0,4,5
 -7 230 -7 230 38 290.5 c 128,-1,6
 83 351 83 351 181 389 c 1,7,8
 139 452 139 452 139 521 c 0,9,10
 139 575 139 575 166.5 617 c 128,-1,11
 194 659 194 659 242.5 682.5 c 128,-1,12
 291 706 291 706 353 706 c 0,13,14
 405 706 405 706 445.5 684.5 c 128,-1,15
 486 663 486 663 510 626.5 c 128,-1,16
 534 590 534 590 534 544 c 0,17,18
 534 492 534 492 498 439 c 128,-1,19
 462 386 462 386 383 348 c 1,20,-1
 451 244 l 1,21,22
 481 273 481 273 506 309.5 c 128,-1,23
 531 346 531 346 549 389 c 1,24,-1
 676 389 l 1,25,26
 648 315 648 315 606 252.5 c 128,-1,27
 564 190 564 190 515 146 c 1,28,-1
 608 0 l 1,29,-1
 442 0 l 1,30,-1
 407 53 l 1,31,32
 349 19 349 19 296.5 4.5 c 128,-1,33
 244 -10 244 -10 199 -10 c 0,0,1
326 437 m 1,34,35
 371 459 371 459 389.5 485 c 128,-1,36
 408 511 408 511 408 534 c 0,37,38
 408 558 408 558 391.5 575 c 128,-1,39
 375 592 375 592 350 592 c 0,40,41
 319 592 319 592 298.5 576 c 128,-1,42
 278 560 278 560 278 531 c 0,43,44
 278 512 278 512 289.5 488 c 128,-1,45
 301 464 301 464 326 437 c 1,34,35
239 116 m 0,46,47
 265 116 265 116 288.5 123 c 128,-1,48
 312 130 312 130 343 147 c 1,49,-1
 247 290 l 1,50,51
 199 275 199 275 178 248.5 c 128,-1,52
 157 222 157 222 157 196 c 0,53,54
 157 165 157 165 180.5 140.5 c 128,-1,55
 204 116 204 116 239 116 c 0,46,47
EndSplineSet
EndChar

StartChar: quotesingle
Encoding: 39 39 126
Width: 258
GlyphClass: 1
Flags: W
LayerCount: 2
Fore
SplineSet
103 434 m 1,0,-1
 89 668 l 1,1,-1
 231 668 l 1,2,-1
 217 434 l 1,3,-1
 103 434 l 1,0,-1
EndSplineSet
EndChar

StartChar: parenleft
Encoding: 40 40 127
Width: 377
GlyphClass: 1
Flags: W
LayerCount: 2
Fore
SplineSet
89 -161 m 1,0,1
 50 -68 50 -68 32 14.5 c 128,-1,2
 14 97 14 97 14 171 c 0,3,4
 14 268 14 268 42 353.5 c 128,-1,5
 70 439 70 439 120 517 c 128,-1,6
 170 595 170 595 236 669 c 1,7,-1
 387 669 l 1,8,9
 278 537 278 537 218.5 412.5 c 128,-1,10
 159 288 159 288 159 155 c 0,11,12
 159 9 159 9 238 -161 c 1,13,-1
 89 -161 l 1,0,1
EndSplineSet
EndChar

StartChar: parenright
Encoding: 41 41 128
Width: 378
GlyphClass: 1
Flags: W
LayerCount: 2
Fore
SplineSet
-42 -161 m 1,0,1
 67 -29 67 -29 126.5 95.5 c 128,-1,2
 186 220 186 220 186 353 c 0,3,4
 186 499 186 499 107 669 c 1,5,-1
 256 669 l 1,6,7
 295 576 295 576 313 493.5 c 128,-1,8
 331 411 331 411 331 337 c 0,9,10
 331 240 331 240 303 154.5 c 128,-1,11
 275 69 275 69 225.5 -9 c 128,-1,12
 176 -87 176 -87 109 -161 c 1,13,-1
 -42 -161 l 1,0,1
EndSplineSet
EndChar

StartChar: asterisk
Encoding: 42 42 129
Width: 443
GlyphClass: 1
Flags: W
LayerCount: 2
Fore
SplineSet
263 336 m 1,0,-1
 222 428 l 1,1,-1
 148 361 l 1,2,-1
 89 426 l 1,3,-1
 164 494 l 1,4,-1
 76 544 l 1,5,-1
 120 619 l 1,6,-1
 207 569 l 1,7,-1
 228 668 l 1,8,-1
 314 650 l 1,9,-1
 293 551 l 1,10,-1
 392 562 l 1,11,-1
 402 475 l 1,12,-1
 302 464 l 1,13,-1
 343 372 l 1,14,-1
 263 336 l 1,0,-1
EndSplineSet
EndChar

StartChar: plus
Encoding: 43 43 130
Width: 645
GlyphClass: 1
Flags: W
LayerCount: 2
Fore
SplineSet
231 0 m 1,0,-1
 231 184 l 1,1,-1
 39 184 l 1,2,-1
 39 312 l 1,3,-1
 231 312 l 1,4,-1
 231 496 l 1,5,-1
 359 496 l 1,6,-1
 359 312 l 1,7,-1
 551 312 l 1,8,-1
 551 184 l 1,9,-1
 359 184 l 1,10,-1
 359 0 l 1,11,-1
 231 0 l 1,0,-1
EndSplineSet
EndChar

StartChar: comma
Encoding: 44 44 131
Width: 282
GlyphClass: 1
Flags: W
LayerCount: 2
Fore
SplineSet
-40 -145 m 1,0,-1
 51 -3 l 1,1,2
 24 8 24 8 7.5 32.5 c 128,-1,3
 -9 57 -9 57 -9 85 c 0,4,5
 -9 129 -9 129 20.5 156 c 128,-1,6
 50 183 50 183 90 183 c 0,7,8
 131 183 131 183 159 155.5 c 128,-1,9
 187 128 187 128 187 88 c 0,10,11
 187 70 187 70 181.5 55 c 128,-1,12
 176 40 176 40 162 17 c 2,13,-1
 59 -145 l 1,14,-1
 -40 -145 l 1,0,-1
EndSplineSet
EndChar

StartChar: hyphen
Encoding: 45 45 132
Width: 376
GlyphClass: 1
Flags: W
LayerCount: 2
Fore
SplineSet
10 184 m 1,0,-1
 38 313 l 1,1,-1
 364 313 l 1,2,-1
 336 184 l 1,3,-1
 10 184 l 1,0,-1
EndSplineSet
EndChar

StartChar: period
Encoding: 46 46 133
Width: 247
GlyphClass: 1
Flags: W
LayerCount: 2
Fore
SplineSet
82 -12 m 256,0,1
 42 -12 42 -12 13 17 c 128,-1,2
 -16 46 -16 46 -16 86 c 0,3,4
 -16 127 -16 127 13 155 c 128,-1,5
 42 183 42 183 82 183 c 256,6,7
 122 183 122 183 150.5 155 c 128,-1,8
 179 127 179 127 179 86 c 0,9,10
 179 46 179 46 150.5 17 c 128,-1,11
 122 -12 122 -12 82 -12 c 256,0,1
EndSplineSet
EndChar

StartChar: slash
Encoding: 47 47 134
Width: 442
GlyphClass: 1
Flags: W
LayerCount: 2
Fore
SplineSet
-55 0 m 1,0,-1
 348 668 l 1,1,-1
 499 668 l 1,2,-1
 98 0 l 1,3,-1
 -55 0 l 1,0,-1
EndSplineSet
EndChar

StartChar: braceleft
Encoding: 123 123 135
Width: 373
GlyphClass: 1
Flags: W
LayerCount: 2
Fore
SplineSet
180 -162 m 2,0,1
 89 -162 89 -162 48 -120 c 128,-1,2
 7 -78 7 -78 23 1 c 2,3,-1
 44 97 l 2,4,5
 55 144 55 144 46.5 168 c 128,-1,6
 38 192 38 192 -6 192 c 1,7,-1
 20 315 l 1,8,9
 67 315 67 315 84 340.5 c 128,-1,10
 101 366 101 366 110 409 c 2,11,-1
 131 505 l 2,12,13
 144 563 144 563 164 596 c 128,-1,14
 184 629 184 629 212 644 c 128,-1,15
 240 659 240 659 275.5 663 c 128,-1,16
 311 667 311 667 355 667 c 2,17,-1
 410 667 l 1,18,-1
 384 548 l 1,19,-1
 351 548 l 2,20,21
 319 548 319 548 301 539.5 c 128,-1,22
 283 531 283 531 277 503 c 2,23,-1
 251 380 l 2,24,25
 237 317 237 317 203 291 c 128,-1,26
 169 265 169 265 131 255 c 1,27,-1
 130 252 l 1,28,29
 177 239 177 239 192.5 208 c 128,-1,30
 208 177 208 177 197 127 c 2,31,-1
 172 13 l 2,32,33
 165 -18 165 -18 175 -30 c 128,-1,34
 185 -42 185 -42 220 -42 c 2,35,-1
 260 -42 l 1,36,-1
 234 -162 l 1,37,-1
 180 -162 l 2,0,1
EndSplineSet
EndChar

StartChar: bar
Encoding: 124 124 136
Width: 299
GlyphClass: 1
Flags: W
LayerCount: 2
Fore
SplineSet
59 -161 m 1,0,-1
 59 668 l 1,1,-1
 205 668 l 1,2,-1
 205 -161 l 1,3,-1
 59 -161 l 1,0,-1
EndSplineSet
EndChar

StartChar: braceright
Encoding: 125 125 137
Width: 373
GlyphClass: 1
Flags: W
LayerCount: 2
Fore
SplineSet
-70 -162 m 1,0,-1
 -45 -42 l 1,1,-1
 -11 -42 l 2,2,3
 21 -42 21 -42 39.5 -33.5 c 128,-1,4
 58 -25 58 -25 64 2 c 2,5,-1
 90 126 l 2,6,7
 104 190 104 190 138 216 c 128,-1,8
 172 242 172 242 210 252 c 1,9,-1
 211 255 l 1,10,11
 165 269 165 269 149.5 299 c 128,-1,12
 134 329 134 329 144 379 c 2,13,-1
 170 498 l 2,14,15
 176 527 176 527 165 537.5 c 128,-1,16
 154 548 154 548 120 548 c 2,17,-1
 81 548 l 1,18,-1
 106 667 l 1,19,-1
 161 667 l 2,20,21
 249 667 249 667 291 627.5 c 128,-1,22
 333 588 333 588 316 505 c 2,23,-1
 296 409 l 2,24,25
 286 361 286 361 294.5 338 c 128,-1,26
 303 315 303 315 346 315 c 1,27,-1
 320 192 l 1,28,29
 274 192 274 192 256 166 c 128,-1,30
 238 140 238 140 229 97 c 2,31,-1
 210 1 l 2,32,33
 198 -57 198 -57 178 -90 c 128,-1,34
 158 -123 158 -123 129.5 -138.5 c 128,-1,35
 101 -154 101 -154 65 -158 c 128,-1,36
 29 -162 29 -162 -16 -162 c 2,37,-1
 -70 -162 l 1,0,-1
EndSplineSet
EndChar

StartChar: asciitilde
Encoding: 126 126 138
Width: 533
GlyphClass: 1
Flags: W
LayerCount: 2
Fore
SplineSet
324 167 m 0,0,1
 298 167 298 167 277.5 176 c 128,-1,2
 257 185 257 185 239 197 c 128,-1,3
 221 209 221 209 203 218 c 128,-1,4
 185 227 185 227 164 227 c 0,5,6
 146 227 146 227 130 212 c 128,-1,7
 114 197 114 197 106 146 c 1,8,-1
 9 184 l 1,9,10
 31 261 31 261 70 305.5 c 128,-1,11
 109 350 109 350 180 350 c 0,12,13
 208 350 208 350 230 341 c 128,-1,14
 252 332 252 332 270 320 c 128,-1,15
 288 308 288 308 304.5 299 c 128,-1,16
 321 290 321 290 339 290 c 0,17,18
 356 290 356 290 372.5 305.5 c 128,-1,19
 389 321 389 321 396 370 c 1,20,-1
 494 333 l 1,21,22
 472 256 472 256 433.5 211.5 c 128,-1,23
 395 167 395 167 324 167 c 0,0,1
EndSplineSet
EndChar

StartChar: exclamdown
Encoding: 161 161 139
Width: 297
GlyphClass: 1
Flags: W
LayerCount: 2
Fore
SplineSet
166 324 m 0,0,1
 126 324 126 324 97.5 352 c 128,-1,2
 69 380 69 380 69 420 c 0,3,4
 69 461 69 461 97.5 489.5 c 128,-1,5
 126 518 126 518 166 518 c 0,6,7
 207 518 207 518 235 489.5 c 128,-1,8
 263 461 263 461 263 420 c 0,9,10
 263 380 263 380 235 352 c 128,-1,11
 207 324 207 324 166 324 c 0,0,1
-55 -162 m 1,12,-1
 -18 11 l 1,13,-1
 77 264 l 1,14,-1
 192 264 l 1,15,-1
 180 11 l 1,16,-1
 143 -162 l 1,17,-1
 -55 -162 l 1,12,-1
EndSplineSet
EndChar

StartChar: cent
Encoding: 162 162 140
Width: 531
GlyphClass: 1
Flags: W
LayerCount: 2
Fore
SplineSet
155 -87 m 1,0,-1
 172 -8 l 1,1,2
 90 6 90 6 46 60.5 c 128,-1,3
 2 115 2 115 2 195 c 0,4,5
 2 209 2 209 3.5 223 c 128,-1,6
 5 237 5 237 7 251 c 0,7,8
 28 362 28 362 101 430 c 128,-1,9
 174 498 174 498 282 508 c 1,10,-1
 295 571 l 1,11,-1
 368 571 l 1,12,-1
 354 507 l 1,13,14
 407 500 407 500 447.5 471.5 c 128,-1,15
 488 443 488 443 511 381 c 1,16,-1
 378 335 l 1,17,18
 372 358 372 358 359.5 371 c 128,-1,19
 347 384 347 384 329 388 c 1,20,-1
 270 109 l 1,21,22
 290 113 290 113 307.5 123.5 c 128,-1,23
 325 134 325 134 341 155 c 1,24,-1
 464 107 l 1,25,26
 420 45 420 45 362 18.5 c 128,-1,27
 304 -8 304 -8 245 -12 c 1,28,-1
 229 -87 l 1,29,-1
 155 -87 l 1,0,-1
198 114 m 1,30,-1
 255 383 l 1,31,32
 225 370 225 370 199.5 339 c 128,-1,33
 174 308 174 308 162 250 c 0,34,35
 156 220 156 220 156 198 c 0,36,37
 156 164 156 164 167.5 143.5 c 128,-1,38
 179 123 179 123 198 114 c 1,30,-1
EndSplineSet
EndChar

StartChar: sterling
Encoding: 163 163 141
Width: 617
GlyphClass: 1
Flags: W
LayerCount: 2
Fore
SplineSet
33 -12 m 1,0,-1
 2 104 l 1,1,2
 85 140 85 140 121.5 188.5 c 128,-1,3
 158 237 158 237 158 277 c 0,4,5
 158 287 158 287 155 295 c 1,6,-1
 43 295 l 1,7,-1
 58 368 l 1,8,-1
 133 368 l 1,9,10
 126 393 126 393 119.5 421 c 128,-1,11
 113 449 113 449 113 478 c 0,12,13
 113 531 113 531 137 569.5 c 128,-1,14
 161 608 161 608 201 632 c 128,-1,15
 241 656 241 656 289.5 667.5 c 128,-1,16
 338 679 338 679 388 679 c 0,17,18
 565 679 565 679 632 537 c 1,19,-1
 485 487 l 1,20,21
 463 525 463 525 437 540.5 c 128,-1,22
 411 556 411 556 374 556 c 0,23,24
 325 556 325 556 298 535 c 128,-1,25
 271 514 271 514 271 471 c 0,26,27
 271 430 271 430 298 368 c 1,28,-1
 458 368 l 1,29,-1
 443 295 l 1,30,-1
 315 295 l 1,31,32
 317 287 317 287 317 279 c 0,33,34
 317 246 317 246 283.5 200.5 c 128,-1,35
 250 155 250 155 181 117 c 1,36,37
 204 129 204 129 226 131.5 c 128,-1,38
 248 134 248 134 269 134 c 0,39,40
 307 134 307 134 341.5 123.5 c 128,-1,41
 376 113 376 113 407 113 c 0,42,43
 434 113 434 113 461.5 121 c 128,-1,44
 489 129 489 129 517 144 c 1,45,-1
 535 23 l 1,46,47
 497 6 497 6 456.5 -3 c 128,-1,48
 416 -12 416 -12 367 -12 c 0,49,50
 332 -12 332 -12 300.5 -3 c 128,-1,51
 269 6 269 6 238.5 15 c 128,-1,52
 208 24 208 24 175 24 c 0,53,54
 153 24 153 24 117.5 18 c 128,-1,55
 82 12 82 12 33 -12 c 1,0,-1
EndSplineSet
EndChar

StartChar: currency
Encoding: 164 164 142
Width: 678
GlyphClass: 1
Flags: W
LayerCount: 2
Fore
SplineSet
144 75 m 1,0,-1
 92 127 l 1,1,-1
 159 194 l 1,2,3
 140 221 140 221 129 253 c 128,-1,4
 118 285 118 285 118 321 c 0,5,6
 118 356 118 356 129 387.5 c 128,-1,7
 140 419 140 419 159 446 c 1,8,-1
 92 513 l 1,9,-1
 144 565 l 1,10,-1
 211 498 l 1,11,12
 238 518 238 518 270 528.5 c 128,-1,13
 302 539 302 539 337 539 c 0,14,15
 373 539 373 539 404.5 528.5 c 128,-1,16
 436 518 436 518 463 498 c 1,17,-1
 530 565 l 1,18,-1
 582 513 l 1,19,-1
 515 446 l 1,20,21
 555 391 555 391 555 321 c 0,22,23
 555 285 555 285 544.5 253 c 128,-1,24
 534 221 534 221 515 194 c 1,25,-1
 582 127 l 1,26,-1
 530 75 l 1,27,-1
 463 142 l 1,28,29
 408 102 408 102 337 102 c 256,30,31
 266 102 266 102 211 142 c 1,32,-1
 144 75 l 1,0,-1
337 221 m 256,33,34
 378 221 378 221 407 250.5 c 128,-1,35
 436 280 436 280 436 321 c 256,36,37
 436 362 436 362 407 390.5 c 128,-1,38
 378 419 378 419 337 419 c 256,39,40
 296 419 296 419 267 390.5 c 128,-1,41
 238 362 238 362 238 321 c 256,42,43
 238 280 238 280 267 250.5 c 128,-1,44
 296 221 296 221 337 221 c 256,33,34
EndSplineSet
EndChar

StartChar: yen
Encoding: 165 165 143
Width: 700
GlyphClass: 1
Flags: W
LayerCount: 2
Fore
SplineSet
191 0 m 1,0,-1
 207 75 l 1,1,-1
 83 75 l 1,2,-1
 99 148 l 1,3,-1
 222 148 l 1,4,-1
 236 212 l 1,5,-1
 112 212 l 1,6,-1
 128 286 l 1,7,-1
 225 286 l 1,8,-1
 82 667 l 1,9,-1
 253 667 l 1,10,-1
 339 390 l 1,11,-1
 558 667 l 1,12,-1
 762 667 l 1,13,-1
 442 286 l 1,14,-1
 544 286 l 1,15,-1
 528 212 l 1,16,-1
 398 212 l 1,17,-1
 385 148 l 1,18,-1
 515 148 l 1,19,-1
 499 75 l 1,20,-1
 370 75 l 1,21,-1
 354 0 l 1,22,-1
 191 0 l 1,0,-1
EndSplineSet
EndChar

StartChar: brokenbar
Encoding: 166 166 144
Width: 281
GlyphClass: 1
Flags: W
LayerCount: 2
Fore
SplineSet
59 358 m 1,0,-1
 59 668 l 1,1,-1
 187 668 l 1,2,-1
 187 358 l 1,3,-1
 59 358 l 1,0,-1
59 -161 m 1,4,-1
 59 150 l 1,5,-1
 187 150 l 1,6,-1
 187 -161 l 1,7,-1
 59 -161 l 1,4,-1
EndSplineSet
EndChar

StartChar: section
Encoding: 167 167 145
Width: 563
GlyphClass: 1
Flags: W
LayerCount: 2
Fore
SplineSet
138 -174 m 0,0,1
 66 -174 66 -174 11.5 -142 c 128,-1,2
 -43 -110 -43 -110 -59 -49 c 1,3,-1
 81 -2 l 1,4,5
 84 -29 84 -29 105.5 -41.5 c 128,-1,6
 127 -54 127 -54 152 -54 c 0,7,8
 181 -54 181 -54 206 -38.5 c 128,-1,9
 231 -23 231 -23 231 5 c 0,10,11
 231 26 231 26 212.5 44.5 c 128,-1,12
 194 63 194 63 166.5 81.5 c 128,-1,13
 139 100 139 100 112 120 c 0,14,15
 96 132 96 132 73 151 c 128,-1,16
 50 170 50 170 32.5 197 c 128,-1,17
 15 224 15 224 15 261 c 0,18,19
 15 307 15 307 34.5 338.5 c 128,-1,20
 54 370 54 370 86.5 392 c 128,-1,21
 119 414 119 414 159 429 c 1,22,23
 147 458 147 458 147 490 c 0,24,25
 147 536 147 536 171.5 579 c 128,-1,26
 196 622 196 622 246 650.5 c 128,-1,27
 296 679 296 679 371 679 c 0,28,29
 436 679 436 679 491 657 c 128,-1,30
 546 635 546 635 571 578 c 1,31,-1
 432 532 l 1,32,33
 427 548 427 548 408 555.5 c 128,-1,34
 389 563 389 563 367 563 c 0,35,36
 342 563 342 563 320.5 553 c 128,-1,37
 299 543 299 543 299 523 c 0,38,39
 299 501 299 501 328.5 480.5 c 128,-1,40
 358 460 358 460 407 422 c 0,41,42
 419 413 419 413 438.5 399 c 128,-1,43
 458 385 458 385 478.5 366 c 128,-1,44
 499 347 499 347 512.5 323.5 c 128,-1,45
 526 300 526 300 526 271 c 0,46,47
 526 221 526 221 494.5 175 c 128,-1,48
 463 129 463 129 375 97 c 1,49,50
 388 74 388 74 388 40 c 0,51,52
 388 5 388 5 372 -32.5 c 128,-1,53
 356 -70 356 -70 324 -102 c 128,-1,54
 292 -134 292 -134 245.5 -154 c 128,-1,55
 199 -174 199 -174 138 -174 c 0,0,1
304 177 m 1,56,57
 365 202 365 202 365 232 c 0,58,59
 365 244 365 244 354.5 257 c 128,-1,60
 344 270 344 270 325 284 c 0,61,62
 315 292 315 292 297 305 c 128,-1,63
 279 318 279 318 261.5 331 c 128,-1,64
 244 344 244 344 233 352 c 1,65,66
 203 346 203 346 187 332 c 128,-1,67
 171 318 171 318 171 301 c 0,68,69
 171 278 171 278 198 257 c 0,70,71
 207 250 207 250 224 237 c 128,-1,72
 241 224 241 224 259.5 210.5 c 128,-1,73
 278 197 278 197 291 187 c 128,-1,74
 304 177 304 177 304 177 c 1,56,57
EndSplineSet
EndChar

StartChar: dieresis
Encoding: 168 168 146
Width: 455
GlyphClass: 1
Flags: W
LayerCount: 2
Fore
SplineSet
199 578 m 256,0,1
 170 578 170 578 149 598.5 c 128,-1,2
 128 619 128 619 128 648 c 256,3,4
 128 677 128 677 149 698 c 128,-1,5
 170 719 170 719 199 719 c 256,6,7
 228 719 228 719 248.5 698 c 128,-1,8
 269 677 269 677 269 648 c 256,9,10
 269 619 269 619 248.5 598.5 c 128,-1,11
 228 578 228 578 199 578 c 256,0,1
393 578 m 256,12,13
 364 578 364 578 343 598.5 c 128,-1,14
 322 619 322 619 322 648 c 256,15,16
 322 677 322 677 343 698 c 128,-1,17
 364 719 364 719 393 719 c 256,18,19
 422 719 422 719 442 698 c 128,-1,20
 462 677 462 677 462 648 c 256,21,22
 462 619 462 619 442 598.5 c 128,-1,23
 422 578 422 578 393 578 c 256,12,13
EndSplineSet
EndChar

StartChar: copyright
Encoding: 169 169 147
Width: 814
GlyphClass: 1
Flags: W
LayerCount: 2
Fore
SplineSet
407 -12 m 0,0,1
 336 -12 336 -12 273.5 15 c 128,-1,2
 211 42 211 42 163.5 89.5 c 128,-1,3
 116 137 116 137 89 199.5 c 128,-1,4
 62 262 62 262 62 334 c 0,5,6
 62 405 62 405 89 467.5 c 128,-1,7
 116 530 116 530 163.5 577.5 c 128,-1,8
 211 625 211 625 273.5 652 c 128,-1,9
 336 679 336 679 407 679 c 0,10,11
 479 679 479 679 542 652 c 128,-1,12
 605 625 605 625 652.5 577.5 c 128,-1,13
 700 530 700 530 727 467.5 c 128,-1,14
 754 405 754 405 754 334 c 0,15,16
 754 262 754 262 727 199.5 c 128,-1,17
 700 137 700 137 652.5 89.5 c 128,-1,18
 605 42 605 42 542 15 c 128,-1,19
 479 -12 479 -12 407 -12 c 0,0,1
407 57 m 256,20,21
 464 57 464 57 514.5 78.5 c 128,-1,22
 565 100 565 100 603 138 c 128,-1,23
 641 176 641 176 662.5 226.5 c 128,-1,24
 684 277 684 277 684 334 c 256,25,26
 684 391 684 391 662.5 441 c 128,-1,27
 641 491 641 491 603 529 c 128,-1,28
 565 567 565 567 514.5 588.5 c 128,-1,29
 464 610 464 610 407 610 c 256,30,31
 350 610 350 610 300.5 588.5 c 128,-1,32
 251 567 251 567 213 529 c 128,-1,33
 175 491 175 491 153.5 441 c 128,-1,34
 132 391 132 391 132 334 c 256,35,36
 132 277 132 277 153.5 226.5 c 128,-1,37
 175 176 175 176 213 138 c 128,-1,38
 251 100 251 100 300.5 78.5 c 128,-1,39
 350 57 350 57 407 57 c 256,20,21
410 145 m 0,40,41
 322 145 322 145 274.5 197 c 128,-1,42
 227 249 227 249 227 334 c 0,43,44
 227 391 227 391 250.5 433 c 128,-1,45
 274 475 274 475 315 498.5 c 128,-1,46
 356 522 356 522 410 522 c 0,47,48
 457 522 457 522 502.5 501.5 c 128,-1,49
 548 481 548 481 573 428 c 1,50,-1
 481 394 l 1,51,52
 472 417 472 417 455 427 c 128,-1,53
 438 437 438 437 416 437 c 0,54,55
 387 437 387 437 363 413.5 c 128,-1,56
 339 390 339 390 339 334 c 0,57,58
 339 276 339 276 363.5 253 c 128,-1,59
 388 230 388 230 416 230 c 0,60,61
 463 230 463 230 482 264 c 1,62,-1
 572 231 l 1,63,64
 544 183 544 183 499 164 c 128,-1,65
 454 145 454 145 410 145 c 0,40,41
EndSplineSet
EndChar

StartChar: questiondown
Encoding: 191 191 148
Width: 634
GlyphClass: 1
Flags: W
LayerCount: 2
Fore
SplineSet
364 325 m 0,0,1
 324 325 324 325 296 353 c 128,-1,2
 268 381 268 381 268 421 c 0,3,4
 268 462 268 462 296 490.5 c 128,-1,5
 324 519 324 519 364 519 c 0,6,7
 405 519 405 519 433.5 490.5 c 128,-1,8
 462 462 462 462 462 421 c 0,9,10
 462 381 462 381 433.5 353 c 128,-1,11
 405 325 405 325 364 325 c 0,0,1
417 265 m 1,12,13
 414 242 414 242 407 224 c 0,14,15
 391 181 391 181 356.5 149.5 c 128,-1,16
 322 118 322 118 276 97 c 0,17,18
 251 86 251 86 223 73.5 c 128,-1,19
 195 61 195 61 175 46 c 128,-1,20
 155 31 155 31 154 11 c 0,21,22
 153 -17 153 -17 177 -30.5 c 128,-1,23
 201 -44 201 -44 246 -44 c 0,24,25
 294 -44 294 -44 330 -27 c 128,-1,26
 366 -10 366 -10 379 22 c 1,27,-1
 517 -33 l 1,28,29
 474 -109 474 -109 401 -140.5 c 128,-1,30
 328 -172 328 -172 234 -172 c 0,31,32
 188 -172 188 -172 143 -164 c 128,-1,33
 98 -156 98 -156 61 -138.5 c 128,-1,34
 24 -121 24 -121 1.5 -92 c 128,-1,35
 -21 -63 -21 -63 -21 -21 c 0,36,37
 -21 28 -21 28 0 62.5 c 128,-1,38
 21 97 21 97 56.5 121 c 128,-1,39
 92 145 92 145 134 163 c 0,40,41
 173 180 173 180 198 195 c 128,-1,42
 223 210 223 210 239 232 c 0,43,44
 244 239 244 239 248 247 c 128,-1,45
 252 255 252 255 256 265 c 1,46,-1
 417 265 l 1,12,13
EndSplineSet
EndChar

StartChar: germandbls
Encoding: 223 223 149
Width: 631
GlyphClass: 1
Flags: W
LayerCount: 2
Fore
SplineSet
303 -13 m 0,0,1
 290 -13 290 -13 277.5 -12.5 c 128,-1,2
 265 -12 265 -12 253 -11 c 1,3,-1
 241 123 l 1,4,5
 282 112 282 112 312 112 c 0,6,7
 364 112 364 112 394 138.5 c 128,-1,8
 424 165 424 165 424 214 c 0,9,10
 424 298 424 298 307 298 c 2,11,-1
 277 298 l 1,12,-1
 302 415 l 1,13,-1
 328 415 l 2,14,15
 382 415 382 415 414 438 c 128,-1,16
 446 461 446 461 450 498 c 0,17,18
 453 524 453 524 434 545 c 128,-1,19
 415 566 415 566 365 566 c 0,20,21
 305 566 305 566 273 536 c 128,-1,22
 241 506 241 506 224 424 c 2,23,-1
 134 0 l 1,24,-1
 -23 0 l 1,25,-1
 70 435 l 2,26,27
 90 526 90 526 129 579.5 c 128,-1,28
 168 633 168 633 229.5 656 c 128,-1,29
 291 679 291 679 376 679 c 0,30,31
 439 679 439 679 490 661.5 c 128,-1,32
 541 644 541 644 571.5 609 c 128,-1,33
 602 574 602 574 602 520 c 0,34,35
 602 470 602 470 580.5 433 c 128,-1,36
 559 396 559 396 516 368 c 1,37,38
 548 352 548 352 567 316.5 c 128,-1,39
 586 281 586 281 586 232 c 0,40,41
 586 150 586 150 550.5 95.5 c 128,-1,42
 515 41 515 41 451.5 14 c 128,-1,43
 388 -13 388 -13 303 -13 c 0,0,1
EndSplineSet
EndChar

StartChar: AE
Encoding: 198 198 150
Width: 1016
GlyphClass: 1
Flags: W
LayerCount: 2
Fore
SplineSet
-65 0 m 1,0,-1
 553 668 l 1,1,-1
 1071 668 l 1,2,-1
 1042 529 l 1,3,-1
 685 529 l 1,4,-1
 660 413 l 1,5,-1
 879 413 l 1,6,-1
 849 275 l 1,7,-1
 631 275 l 1,8,-1
 602 139 l 1,9,-1
 959 139 l 1,10,-1
 929 0 l 1,11,-1
 411 0 l 1,12,-1
 437 119 l 1,13,-1
 241 119 l 1,14,-1
 136 0 l 1,15,-1
 -65 0 l 1,0,-1
354 247 m 1,16,-1
 464 247 l 1,17,-1
 501 421 l 1,18,-1
 354 247 l 1,16,-1
EndSplineSet
EndChar

StartChar: florin
Encoding: 402 402 151
Width: 390
GlyphClass: 1
Flags: W
LayerCount: 2
Fore
SplineSet
-10 -173 m 0,0,1
 -30 -173 -30 -173 -50 -170.5 c 128,-1,2
 -70 -168 -70 -168 -87 -164 c 1,3,-1
 -59 -31 l 1,4,5
 -53 -32 -53 -32 -46.5 -32.5 c 128,-1,6
 -40 -33 -40 -33 -34 -33 c 0,7,8
 4 -33 4 -33 17.5 -14 c 128,-1,9
 31 5 31 5 38 39 c 2,10,-1
 111 381 l 1,11,-1
 29 381 l 1,12,-1
 53 496 l 1,13,-1
 135 496 l 1,14,-1
 153 578 l 2,15,16
 166 637 166 637 193 669.5 c 128,-1,17
 220 702 220 702 264.5 715.5 c 128,-1,18
 309 729 309 729 376 729 c 2,19,-1
 445 729 l 1,20,-1
 419 608 l 1,21,-1
 377 608 l 2,22,23
 337 608 337 608 322.5 600 c 128,-1,24
 308 592 308 592 302 564 c 2,25,-1
 287 496 l 1,26,-1
 395 496 l 1,27,-1
 371 381 l 1,28,-1
 263 381 l 1,29,-1
 179 -16 l 2,30,31
 163 -95 163 -95 114 -134 c 128,-1,32
 65 -173 65 -173 -10 -173 c 0,0,1
EndSplineSet
EndChar

StartChar: integral
Encoding: 8747 8747 152
Width: 344
GlyphClass: 1
Flags: W
LayerCount: 2
Fore
SplineSet
54 -174 m 0,0,1
 29 -174 29 -174 6 -163 c 128,-1,2
 -17 -152 -17 -152 -31 -133.5 c 128,-1,3
 -45 -115 -45 -115 -45 -93 c 0,4,5
 -45 -64 -45 -64 -28.5 -47 c 128,-1,6
 -12 -30 -12 -30 10 -30 c 0,7,8
 34 -30 34 -30 50.5 -46.5 c 128,-1,9
 67 -63 67 -63 67 -86 c 0,10,11
 67 -96 67 -96 64 -105 c 1,12,13
 81 -97 81 -97 87 -70.5 c 128,-1,14
 93 -44 93 -44 93 2 c 0,15,16
 93 16 93 16 92 52 c 128,-1,17
 91 88 91 88 90 135.5 c 128,-1,18
 89 183 89 183 88 233 c 128,-1,19
 87 283 87 283 86 326.5 c 128,-1,20
 85 370 85 370 85 396 c 0,21,22
 85 508 85 508 109 569.5 c 128,-1,23
 133 631 133 631 171.5 655.5 c 128,-1,24
 210 680 210 680 255 680 c 0,25,26
 302 680 302 680 330 654 c 128,-1,27
 358 628 358 628 357 596 c 0,28,29
 357 569 357 569 341 552.5 c 128,-1,30
 325 536 325 536 302 536 c 0,31,32
 280 536 280 536 263 550 c 128,-1,33
 246 564 246 564 246 589 c 0,34,35
 246 602 246 602 249 611 c 1,36,37
 220 597 220 597 220 504 c 0,38,39
 220 490 220 490 221 454.5 c 128,-1,40
 222 419 222 419 223 371.5 c 128,-1,41
 224 324 224 324 225 274 c 128,-1,42
 226 224 226 224 227 180.5 c 128,-1,43
 228 137 228 137 228 110 c 0,44,45
 228 -2 228 -2 204 -63.5 c 128,-1,46
 180 -125 180 -125 140.5 -149.5 c 128,-1,47
 101 -174 101 -174 54 -174 c 0,0,1
EndSplineSet
EndChar

StartChar: approxequal
Encoding: 8776 8776 153
Width: 556
GlyphClass: 1
Flags: W
LayerCount: 2
Fore
SplineSet
354 257 m 0,0,1
 319 257 319 257 290.5 272 c 128,-1,2
 262 287 262 287 235.5 302 c 128,-1,3
 209 317 209 317 180 317 c 0,4,5
 164 317 164 317 152.5 305.5 c 128,-1,6
 141 294 141 294 140 256 c 1,7,-1
 36 294 l 1,8,9
 43 362 43 362 73 401.5 c 128,-1,10
 103 441 103 441 170 441 c 0,11,12
 208 441 208 441 238 426 c 128,-1,13
 268 411 268 411 293 395.5 c 128,-1,14
 318 380 318 380 342 380 c 0,15,16
 357 380 357 380 369 392 c 128,-1,17
 381 404 381 404 382 441 c 1,18,-1
 486 404 l 1,19,20
 479 336 479 336 449.5 296.5 c 128,-1,21
 420 257 420 257 354 257 c 0,0,1
354 59 m 0,22,23
 319 59 319 59 290.5 74 c 128,-1,24
 262 89 262 89 235.5 103.5 c 128,-1,25
 209 118 209 118 180 118 c 0,26,27
 164 118 164 118 152.5 106.5 c 128,-1,28
 141 95 141 95 140 57 c 1,29,-1
 36 95 l 1,30,31
 43 163 43 163 73 203 c 128,-1,32
 103 243 103 243 170 243 c 0,33,34
 208 243 208 243 238 228 c 128,-1,35
 268 213 268 213 293 197.5 c 128,-1,36
 318 182 318 182 342 182 c 0,37,38
 357 182 357 182 369 194 c 128,-1,39
 381 206 381 206 382 244 c 1,40,-1
 486 206 l 1,41,42
 479 137 479 137 449.5 98 c 128,-1,43
 420 59 420 59 354 59 c 0,22,23
EndSplineSet
EndChar

StartChar: notequal
Encoding: 8800 8800 154
Width: 661
GlyphClass: 1
Flags: W
LayerCount: 2
Fore
SplineSet
64 0 m 1,0,-1
 131 96 l 1,1,-1
 58 96 l 1,2,-1
 58 225 l 1,3,-1
 221 225 l 1,4,-1
 262 283 l 1,5,-1
 58 283 l 1,6,-1
 58 410 l 1,7,-1
 352 410 l 1,8,-1
 411 495 l 1,9,-1
 564 495 l 1,10,-1
 504 410 l 1,11,-1
 570 410 l 1,12,-1
 570 283 l 1,13,-1
 414 283 l 1,14,-1
 374 225 l 1,15,-1
 570 225 l 1,16,-1
 570 96 l 1,17,-1
 285 96 l 1,18,-1
 217 0 l 1,19,-1
 64 0 l 1,0,-1
EndSplineSet
EndChar

StartChar: lessequal
Encoding: 8804 8804 155
Width: 676
GlyphClass: 1
Flags: W
LayerCount: 2
Fore
SplineSet
565 136 m 1,0,-1
 53 260 l 1,1,-1
 53 386 l 1,2,-1
 565 510 l 1,3,-1
 565 381 l 1,4,-1
 228 324 l 1,5,-1
 565 265 l 1,6,-1
 565 136 l 1,0,-1
53 0 m 1,7,-1
 53 128 l 1,8,-1
 565 128 l 1,9,-1
 565 0 l 1,10,-1
 53 0 l 1,7,-1
EndSplineSet
EndChar

StartChar: greaterequal
Encoding: 8805 8805 156
Width: 702
GlyphClass: 1
Flags: W
LayerCount: 2
Fore
SplineSet
79 136 m 1,0,-1
 79 265 l 1,1,-1
 416 324 l 1,2,-1
 79 381 l 1,3,-1
 79 510 l 1,4,-1
 591 386 l 1,5,-1
 591 260 l 1,6,-1
 79 136 l 1,0,-1
79 0 m 1,7,-1
 79 128 l 1,8,-1
 591 128 l 1,9,-1
 591 0 l 1,10,-1
 79 0 l 1,7,-1
EndSplineSet
EndChar

StartChar: lozenge
Encoding: 9674 9674 157
Width: 607
GlyphClass: 1
Flags: W
LayerCount: 2
Fore
SplineSet
301 -91 m 1,0,-1
 38 313 l 1,1,-1
 301 716 l 1,2,-1
 563 313 l 1,3,-1
 301 -91 l 1,0,-1
301 124 m 1,4,-1
 425 313 l 1,5,-1
 301 502 l 1,6,-1
 176 313 l 1,7,-1
 301 124 l 1,4,-1
EndSplineSet
EndChar

StartChar: summation
Encoding: 8721 8721 158
Width: 793
GlyphClass: 1
Flags: W
LayerCount: 2
Fore
SplineSet
113 -162 m 1,0,-1
 113 -34 l 1,1,-1
 350 254 l 1,2,-1
 113 540 l 1,3,-1
 113 668 l 1,4,-1
 648 668 l 1,5,-1
 648 540 l 1,6,-1
 283 540 l 1,7,-1
 522 254 l 1,8,-1
 283 -34 l 1,9,-1
 648 -34 l 1,10,-1
 648 -162 l 1,11,-1
 113 -162 l 1,0,-1
EndSplineSet
EndChar

StartChar: minus
Encoding: 8722 8722 159
Width: 645
GlyphClass: 1
Flags: W
LayerCount: 2
Fore
SplineSet
39 184 m 1,0,-1
 39 312 l 1,1,-1
 551 312 l 1,2,-1
 551 184 l 1,3,-1
 39 184 l 1,0,-1
EndSplineSet
EndChar

StartChar: uni2215
Encoding: 8725 8725 160
Width: 482
GlyphClass: 1
Flags: W
LayerCount: 2
Fore
SplineSet
-55 0 m 1,0,-1
 413 668 l 1,1,-1
 539 668 l 1,2,-1
 72 0 l 1,3,-1
 -55 0 l 1,0,-1
EndSplineSet
EndChar

StartChar: uni2219
Encoding: 8729 8729 161
Width: 281
GlyphClass: 1
Flags: W
LayerCount: 2
Fore
SplineSet
125 157 m 256,0,1
 85 157 85 157 56 186 c 128,-1,2
 27 215 27 215 27 255 c 0,3,4
 27 296 27 296 56 323.5 c 128,-1,5
 85 351 85 351 125 351 c 256,6,7
 165 351 165 351 193.5 323.5 c 128,-1,8
 222 296 222 296 222 255 c 0,9,10
 222 215 222 215 193.5 186 c 128,-1,11
 165 157 165 157 125 157 c 256,0,1
EndSplineSet
EndChar

StartChar: radical
Encoding: 8730 8730 162
Width: 615
GlyphClass: 1
Flags: W
LayerCount: 2
Fore
SplineSet
271 -162 m 1,0,-1
 161 93 l 1,1,-1
 19 93 l 1,2,-1
 19 225 l 1,3,-1
 252 225 l 1,4,-1
 332 29 l 1,5,-1
 502 668 l 1,6,-1
 646 668 l 1,7,-1
 427 -162 l 1,8,-1
 271 -162 l 1,0,-1
EndSplineSet
EndChar

StartChar: infinity
Encoding: 8734 8734 163
Width: 757
GlyphClass: 1
Flags: W
LayerCount: 2
Fore
SplineSet
201 97 m 0,0,1
 153 97 153 97 114 117 c 128,-1,2
 75 137 75 137 52 173 c 128,-1,3
 29 209 29 209 29 255 c 256,4,5
 29 301 29 301 52.5 336 c 128,-1,6
 76 371 76 371 116 391.5 c 128,-1,7
 156 412 156 412 205 412 c 0,8,9
 255 412 255 412 293 390.5 c 128,-1,10
 331 369 331 369 362 336 c 1,11,12
 394 369 394 369 432.5 390.5 c 128,-1,13
 471 412 471 412 520 412 c 0,14,15
 570 412 570 412 609.5 391.5 c 128,-1,16
 649 371 649 371 672.5 336 c 128,-1,17
 696 301 696 301 696 255 c 256,18,19
 696 209 696 209 673 173 c 128,-1,20
 650 137 650 137 611.5 117 c 128,-1,21
 573 97 573 97 524 97 c 0,22,23
 470 97 470 97 431.5 120 c 128,-1,24
 393 143 393 143 362 176 c 1,25,26
 331 143 331 143 293 120 c 128,-1,27
 255 97 255 97 201 97 c 0,0,1
208 204 m 0,28,29
 236 204 236 204 257.5 219.5 c 128,-1,30
 279 235 279 235 296 256 c 1,31,32
 279 276 279 276 257.5 291 c 128,-1,33
 236 306 236 306 210 306 c 0,34,35
 185 306 185 306 167 292.5 c 128,-1,36
 149 279 149 279 149 256 c 0,37,38
 149 234 149 234 165.5 219 c 128,-1,39
 182 204 182 204 208 204 c 0,28,29
517 204 m 0,40,41
 543 204 543 204 559.5 219 c 128,-1,42
 576 234 576 234 576 256 c 0,43,44
 576 279 576 279 558.5 292.5 c 128,-1,45
 541 306 541 306 515 306 c 0,46,47
 490 306 490 306 468 291 c 128,-1,48
 446 276 446 276 429 256 c 1,49,50
 446 235 446 235 467.5 219.5 c 128,-1,51
 489 204 489 204 517 204 c 0,40,41
EndSplineSet
EndChar

StartChar: uni03A9
Encoding: 937 937 164
Width: 744
GlyphClass: 1
Flags: W
LayerCount: 2
Fore
SplineSet
53 0 m 1,0,-1
 53 115 l 1,1,-1
 190 115 l 1,2,-1
 190 139 l 1,3,4
 129 178 129 178 91 243.5 c 128,-1,5
 53 309 53 309 53 386 c 0,6,7
 53 447 53 447 75.5 500 c 128,-1,8
 98 553 98 553 138.5 593.5 c 128,-1,9
 179 634 179 634 232 657 c 128,-1,10
 285 680 285 680 346 680 c 256,11,12
 407 680 407 680 460 657 c 128,-1,13
 513 634 513 634 553.5 593.5 c 128,-1,14
 594 553 594 553 616.5 500 c 128,-1,15
 639 447 639 447 639 386 c 0,16,17
 639 309 639 309 601.5 243.5 c 128,-1,18
 564 178 564 178 502 139 c 1,19,-1
 502 115 l 1,20,-1
 639 115 l 1,21,-1
 639 0 l 1,22,-1
 371 0 l 1,23,-1
 371 223 l 1,24,25
 413 229 413 229 446 253 c 128,-1,26
 479 277 479 277 498 313.5 c 128,-1,27
 517 350 517 350 517 392 c 0,28,29
 517 440 517 440 494 479 c 128,-1,30
 471 518 471 518 432 541 c 128,-1,31
 393 564 393 564 346 564 c 256,32,33
 299 564 299 564 259.5 541 c 128,-1,34
 220 518 220 518 197 479 c 128,-1,35
 174 440 174 440 174 392 c 0,36,37
 174 350 174 350 193.5 313.5 c 128,-1,38
 213 277 213 277 246.5 253 c 128,-1,39
 280 229 280 229 321 223 c 1,40,-1
 321 0 l 1,41,-1
 53 0 l 1,0,-1
EndSplineSet
EndChar

StartChar: estimated
Encoding: 8494 8494 165
Width: 610
GlyphClass: 1
Flags: W
LayerCount: 2
Fore
SplineSet
292 -12 m 0,0,1
 220 -12 220 -12 160.5 23 c 128,-1,2
 101 58 101 58 65.5 117.5 c 128,-1,3
 30 177 30 177 30 249 c 256,4,5
 30 321 30 321 65.5 380 c 128,-1,6
 101 439 101 439 160.5 474.5 c 128,-1,7
 220 510 220 510 292 510 c 256,8,9
 364 510 364 510 423 474.5 c 128,-1,10
 482 439 482 439 517 380 c 128,-1,11
 552 321 552 321 552 249 c 1,12,-1
 167 249 l 1,13,-1
 167 104 l 1,14,15
 192 82 192 82 224 70 c 128,-1,16
 256 58 256 58 292 58 c 0,17,18
 336 58 336 58 374.5 77 c 128,-1,19
 413 96 413 96 439 128 c 1,20,-1
 507 103 l 1,21,22
 472 51 472 51 415.5 19.5 c 128,-1,23
 359 -12 359 -12 292 -12 c 0,0,1
167 315 m 1,24,-1
 415 315 l 1,25,-1
 415 394 l 1,26,27
 363 440 363 440 292 440 c 0,28,29
 256 440 256 440 224 428 c 128,-1,30
 192 416 192 416 167 394 c 1,31,-1
 167 315 l 1,24,-1
EndSplineSet
EndChar

StartChar: partialdiff
Encoding: 8706 8706 166
Width: 594
GlyphClass: 1
Flags: W
LayerCount: 2
Fore
SplineSet
269 -12 m 0,0,1
 197 -12 197 -12 141 15.5 c 128,-1,2
 85 43 85 43 53 93 c 128,-1,3
 21 143 21 143 21 212 c 0,4,5
 21 274 21 274 51 324.5 c 128,-1,6
 81 375 81 375 132 405 c 128,-1,7
 183 435 183 435 245 435 c 0,8,9
 315 435 315 435 358.5 408.5 c 128,-1,10
 402 382 402 382 422 356 c 1,11,12
 414 475 414 475 344 521 c 128,-1,13
 274 567 274 567 152 560 c 1,14,-1
 152 680 l 1,15,16
 177 680 177 680 214.5 679 c 128,-1,17
 252 678 252 678 295.5 669.5 c 128,-1,18
 339 661 339 661 381.5 639.5 c 128,-1,19
 424 618 424 618 459 578 c 128,-1,20
 494 538 494 538 515 474 c 128,-1,21
 536 410 536 410 536 315 c 0,22,23
 536 218 536 218 508 144 c 128,-1,24
 480 70 480 70 421 29 c 128,-1,25
 362 -12 362 -12 269 -12 c 0,0,1
276 107 m 256,26,27
 319 107 319 107 349 137.5 c 128,-1,28
 379 168 379 168 379 211 c 0,29,30
 379 255 379 255 349 285 c 128,-1,31
 319 315 319 315 276 315 c 256,32,33
 233 315 233 315 202.5 285 c 128,-1,34
 172 255 172 255 172 211 c 0,35,36
 172 168 172 168 202.5 137.5 c 128,-1,37
 233 107 233 107 276 107 c 256,26,27
EndSplineSet
EndChar

StartChar: uni0394
Encoding: 916 916 167
Width: 715
GlyphClass: 1
Flags: W
LayerCount: 2
Fore
SplineSet
-29 0 m 1,0,-1
 287 680 l 1,1,-1
 604 0 l 1,2,-1
 -29 0 l 1,0,-1
159 115 m 1,3,-1
 415 115 l 1,4,-1
 287 418 l 1,5,-1
 159 115 l 1,3,-1
EndSplineSet
EndChar

StartChar: product
Encoding: 8719 8719 168
Width: 790
GlyphClass: 1
Flags: W
LayerCount: 2
Fore
SplineSet
113 -161 m 1,0,-1
 113 668 l 1,1,-1
 645 668 l 1,2,-1
 645 -161 l 1,3,-1
 517 -161 l 1,4,-1
 517 552 l 1,5,-1
 241 552 l 1,6,-1
 241 -161 l 1,7,-1
 113 -161 l 1,0,-1
EndSplineSet
EndChar

StartChar: pi
Encoding: 960 960 169
Width: 638
GlyphClass: 1
Flags: W
LayerCount: 2
Fore
SplineSet
36 0 m 1,0,-1
 117 380 l 1,1,-1
 28 380 l 1,2,-1
 53 496 l 1,3,-1
 642 496 l 1,4,-1
 617 380 l 1,5,-1
 529 380 l 1,6,-1
 480 152 l 2,7,8
 477 139 477 139 477 130 c 0,9,10
 477 117 477 117 487.5 111 c 128,-1,11
 498 105 498 105 526 105 c 2,12,-1
 559 105 l 1,13,-1
 536 1 l 1,14,-1
 458 1 l 2,15,16
 393 1 393 1 365.5 23.5 c 128,-1,17
 338 46 338 46 338 84 c 0,18,19
 338 102 338 102 342 118 c 2,20,-1
 398 380 l 1,21,-1
 248 380 l 1,22,-1
 167 0 l 1,23,-1
 36 0 l 1,0,-1
EndSplineSet
EndChar

StartChar: hungarumlaut
Encoding: 733 733 170
Width: 502
GlyphClass: 1
Flags: W
LayerCount: 2
Fore
SplineSet
89 572 m 1,0,1
 89 572 89 572 103.5 586 c 128,-1,2
 118 600 118 600 139 621 c 128,-1,3
 160 642 160 642 181 663 c 128,-1,4
 202 684 202 684 216.5 698.5 c 128,-1,5
 231 713 231 713 232 713 c 0,6,7
 246 726 246 726 267 726 c 0,8,9
 294 726 294 726 310 705 c 0,10,11
 323 689 323 689 323 668 c 0,12,13
 323 641 323 641 302 626 c 0,14,15
 300 625 300 625 286 616.5 c 128,-1,16
 272 608 272 608 255 597.5 c 128,-1,17
 238 587 238 587 225 579.5 c 128,-1,18
 212 572 212 572 212 572 c 1,19,-1
 89 572 l 1,0,1
297 572 m 1,20,21
 297 572 297 572 311 586 c 128,-1,22
 325 600 325 600 346 621 c 128,-1,23
 367 642 367 642 388 663 c 128,-1,24
 409 684 409 684 423.5 698.5 c 128,-1,25
 438 713 438 713 439 713 c 0,26,27
 453 726 453 726 474 726 c 0,28,29
 501 726 501 726 517 705 c 0,30,31
 530 689 530 689 530 668 c 0,32,33
 530 641 530 641 509 626 c 0,34,35
 507 625 507 625 493 616.5 c 128,-1,36
 479 608 479 608 462 597.5 c 128,-1,37
 445 587 445 587 432 579.5 c 128,-1,38
 419 572 419 572 419 572 c 1,39,-1
 297 572 l 1,20,21
EndSplineSet
EndChar

StartChar: tilde
Encoding: 732 732 171
Width: 461
GlyphClass: 1
Flags: W
LayerCount: 2
Fore
SplineSet
370 568 m 0,0,1
 342 568 342 568 323.5 574 c 128,-1,2
 305 580 305 580 291 587.5 c 128,-1,3
 277 595 277 595 263 601 c 128,-1,4
 249 607 249 607 229 607 c 0,5,6
 198 607 198 607 178 574 c 1,7,-1
 89 574 l 1,8,9
 98 603 98 603 117.5 629.5 c 128,-1,10
 137 656 137 656 164.5 672.5 c 128,-1,11
 192 689 192 689 225 689 c 0,12,13
 265 689 265 689 288 679 c 128,-1,14
 311 669 311 669 327.5 658.5 c 128,-1,15
 344 648 344 648 364 648 c 0,16,17
 386 648 386 648 397 656 c 128,-1,18
 408 664 408 664 417 674 c 128,-1,19
 426 684 426 684 441 688 c 0,20,21
 444 689 444 689 447 689.5 c 128,-1,22
 450 690 450 690 453 690 c 0,23,24
 469 690 469 690 480.5 678.5 c 128,-1,25
 492 667 492 667 492 651 c 0,26,27
 492 636 492 636 482 623 c 0,28,29
 472 608 472 608 445.5 588 c 128,-1,30
 419 568 419 568 370 568 c 0,0,1
EndSplineSet
EndChar

StartChar: endash
Encoding: 8211 8211 172
Width: 536
GlyphClass: 1
Flags: W
LayerCount: 2
Fore
SplineSet
38 185 m 1,0,-1
 38 313 l 1,1,-1
 464 313 l 1,2,-1
 464 185 l 1,3,-1
 38 185 l 1,0,-1
EndSplineSet
EndChar

StartChar: emdash
Encoding: 8212 8212 173
Width: 870
GlyphClass: 1
Flags: W
LayerCount: 2
Fore
SplineSet
38 185 m 1,0,-1
 38 313 l 1,1,-1
 798 313 l 1,2,-1
 798 185 l 1,3,-1
 38 185 l 1,0,-1
EndSplineSet
EndChar

StartChar: trademark
Encoding: 8482 8482 174
Width: 1013
GlyphClass: 1
Flags: W
LayerCount: 2
Fore
SplineSet
487 301 m 1,0,-1
 487 668 l 1,1,-1
 660 668 l 1,2,-1
 726 432 l 1,3,-1
 793 668 l 1,4,-1
 966 668 l 1,5,-1
 966 301 l 1,6,-1
 859 301 l 1,7,-1
 859 558 l 1,8,-1
 775 301 l 1,9,-1
 678 301 l 1,10,-1
 594 558 l 1,11,-1
 594 301 l 1,12,-1
 487 301 l 1,0,-1
234 301 m 1,13,-1
 234 575 l 1,14,-1
 113 575 l 1,15,-1
 113 668 l 1,16,-1
 463 668 l 1,17,-1
 463 575 l 1,18,-1
 343 575 l 1,19,-1
 343 301 l 1,20,-1
 234 301 l 1,13,-1
EndSplineSet
EndChar

StartChar: Euro
Encoding: 8364 8364 175
Width: 704
GlyphClass: 1
Flags: W
LayerCount: 2
Fore
SplineSet
367 -12 m 0,0,1
 293 -12 293 -12 233.5 14.5 c 128,-1,2
 174 41 174 41 137.5 95 c 128,-1,3
 101 149 101 149 94 231 c 1,4,-1
 -13 231 l 1,5,-1
 43 305 l 1,6,-1
 94 305 l 1,7,8
 97 332 97 332 103 366 c 1,9,-1
 15 366 l 1,10,-1
 71 440 l 1,11,-1
 123 440 l 1,12,13
 164 555 164 555 251.5 617.5 c 128,-1,14
 339 680 339 680 454 680 c 0,15,16
 504 680 504 680 552.5 666.5 c 128,-1,17
 601 653 601 653 640.5 619.5 c 128,-1,18
 680 586 680 586 700 525 c 1,19,-1
 561 475 l 1,20,21
 543 519 543 519 512.5 536 c 128,-1,22
 482 553 482 553 443 553 c 0,23,24
 390 553 390 553 347.5 523.5 c 128,-1,25
 305 494 305 494 279 440 c 1,26,-1
 474 440 l 1,27,-1
 418 366 l 1,28,-1
 254 366 l 1,29,30
 250 348 250 348 248.5 334.5 c 128,-1,31
 247 321 247 321 245 305 c 1,32,-1
 370 305 l 1,33,-1
 314 231 l 1,34,-1
 250 231 l 1,35,36
 261 175 261 175 294 146.5 c 128,-1,37
 327 118 327 118 371 118 c 0,38,39
 407 118 407 118 447 133 c 128,-1,40
 487 148 487 148 518 194 c 1,41,-1
 647 140 l 1,42,43
 603 68 603 68 534 28 c 128,-1,44
 465 -12 465 -12 367 -12 c 0,0,1
EndSplineSet
EndChar

StartChar: uni2113
Encoding: 8467 8467 176
Width: 506
GlyphClass: 1
Flags: W
LayerCount: 2
Fore
SplineSet
219 -12 m 0,0,1
 176 -12 176 -12 141 0.5 c 128,-1,2
 106 13 106 13 85 40.5 c 128,-1,3
 64 68 64 68 64 113 c 0,4,5
 64 123 64 123 65.5 134 c 128,-1,6
 67 145 67 145 69 157 c 1,7,-1
 -5 112 l 1,8,-1
 18 218 l 1,9,-1
 92 265 l 1,10,-1
 132 452 l 2,11,12
 158 576 158 576 215 628 c 128,-1,13
 272 680 272 680 356 680 c 0,14,15
 429 680 429 680 469.5 650 c 128,-1,16
 510 620 510 620 510 561 c 0,17,18
 510 499 510 499 475.5 449.5 c 128,-1,19
 441 400 441 400 381.5 356 c 128,-1,20
 322 312 322 312 247 264 c 1,21,-1
 231 191 l 2,22,23
 221 145 221 145 233 127.5 c 128,-1,24
 245 110 245 110 276 110 c 0,25,26
 299 110 299 110 320.5 119 c 128,-1,27
 342 128 342 128 362 141 c 1,28,-1
 400 52 l 1,29,30
 373 32 373 32 327 10 c 128,-1,31
 281 -12 281 -12 219 -12 c 0,0,1
270 373 m 1,32,33
 301 392 301 392 327 420.5 c 128,-1,34
 353 449 353 449 369 480.5 c 128,-1,35
 385 512 385 512 385 540 c 0,36,37
 385 573 385 573 354 573 c 0,38,39
 330 573 330 573 317 555 c 128,-1,40
 304 537 304 537 296 501 c 2,41,-1
 270 373 l 1,32,33
EndSplineSet
EndChar

StartChar: Lslash
Encoding: 321 321 177
Width: 595
GlyphClass: 1
Flags: W
LayerCount: 2
Fore
SplineSet
28 0 m 1,0,-1
 76 225 l 1,1,-1
 -15 177 l 1,2,-1
 11 300 l 1,3,-1
 103 348 l 1,4,-1
 171 668 l 1,5,-1
 331 668 l 1,6,-1
 283 445 l 1,7,-1
 459 538 l 1,8,-1
 433 414 l 1,9,-1
 258 322 l 1,10,-1
 219 140 l 1,11,-1
 539 140 l 1,12,-1
 510 0 l 1,13,-1
 28 0 l 1,0,-1
EndSplineSet
EndChar

StartChar: lslash
Encoding: 322 322 178
Width: 342
GlyphClass: 1
Flags: W
LayerCount: 2
Fore
SplineSet
172 0 m 2,0,1
 107 0 107 0 68 21.5 c 128,-1,2
 29 43 29 43 29 98 c 0,3,4
 29 108 29 108 30.5 118.5 c 128,-1,5
 32 129 32 129 34 140 c 2,6,-1
 53 228 l 1,7,-1
 -23 188 l 1,8,-1
 3 309 l 1,9,-1
 79 349 l 1,10,-1
 146 668 l 1,11,-1
 301 668 l 1,12,-1
 254 442 l 1,13,-1
 376 507 l 1,14,-1
 350 385 l 1,15,-1
 229 321 l 1,16,-1
 204 205 l 2,17,18
 201 192 201 192 199 180.5 c 128,-1,19
 197 169 197 169 197 160 c 0,20,21
 197 142 197 142 208.5 133 c 128,-1,22
 220 124 220 124 252 124 c 2,23,-1
 294 124 l 1,24,-1
 269 0 l 1,25,-1
 172 0 l 2,0,1
EndSplineSet
EndChar

StartChar: oslash
Encoding: 248 248 179
Width: 577
GlyphClass: 1
Flags: W
LayerCount: 2
Fore
SplineSet
242 -12 m 0,0,1
 149 -12 149 -12 88 32 c 1,2,-1
 26 -27 l 1,3,-1
 -25 27 l 1,4,-1
 38 85 l 1,5,6
 22 110 22 110 13.5 140 c 128,-1,7
 5 170 5 170 5 204 c 0,8,9
 5 292 5 292 42.5 361 c 128,-1,10
 80 430 80 430 147.5 470 c 128,-1,11
 215 510 215 510 304 510 c 0,12,13
 346 510 346 510 383.5 500 c 128,-1,14
 421 490 421 490 451 470 c 1,15,-1
 514 529 l 1,16,-1
 565 475 l 1,17,-1
 503 418 l 1,18,19
 520 393 520 393 529 363 c 128,-1,20
 538 333 538 333 538 295 c 0,21,22
 538 207 538 207 501.5 137.5 c 128,-1,23
 465 68 465 68 398.5 28 c 128,-1,24
 332 -12 332 -12 242 -12 c 0,0,1
161 200 m 1,25,-1
 351 376 l 1,26,27
 329 392 329 392 296 392 c 0,28,29
 247 392 247 392 214.5 359 c 128,-1,30
 182 326 182 326 170 274 c 0,31,32
 165 255 165 255 163 236 c 128,-1,33
 161 217 161 217 161 200 c 1,25,-1
248 106 m 0,34,35
 297 106 297 106 329.5 139 c 128,-1,36
 362 172 362 172 374 222 c 0,37,38
 379 242 379 242 381 263 c 128,-1,39
 383 284 383 284 382 306 c 1,40,-1
 189 125 l 1,41,42
 200 116 200 116 214 111 c 128,-1,43
 228 106 228 106 248 106 c 0,34,35
EndSplineSet
EndChar

StartChar: Oslash
Encoding: 216 216 180
Width: 761
GlyphClass: 1
Flags: W
LayerCount: 2
Fore
SplineSet
333 -12 m 0,0,1
 268 -12 268 -12 215 5.5 c 128,-1,2
 162 23 162 23 124 54 c 1,3,-1
 55 -11 l 1,4,-1
 4 43 l 1,5,-1
 75 109 l 1,6,7
 30 177 30 177 30 269 c 0,8,9
 30 282 30 282 31.5 295 c 128,-1,10
 33 308 33 308 34 321 c 0,11,12
 48 430 48 430 102 510.5 c 128,-1,13
 156 591 156 591 239.5 635.5 c 128,-1,14
 323 680 323 680 425 680 c 0,15,16
 547 680 547 680 626 622 c 1,17,-1
 695 686 l 1,18,-1
 746 633 l 1,19,-1
 678 569 l 1,20,21
 730 500 730 500 730 394 c 0,22,23
 730 371 730 371 727 345 c 0,24,25
 716 240 716 240 663 159.5 c 128,-1,26
 610 79 610 79 525 33.5 c 128,-1,27
 440 -12 440 -12 333 -12 c 0,0,1
206 231 m 1,28,-1
 510 514 l 1,29,30
 490 532 490 532 464.5 541 c 128,-1,31
 439 550 439 550 413 550 c 0,32,33
 364 550 364 550 319 524.5 c 128,-1,34
 274 499 274 499 242.5 448 c 128,-1,35
 211 397 211 397 201 321 c 0,36,37
 200 312 200 312 199.5 303 c 128,-1,38
 199 294 199 294 199 286 c 0,39,40
 199 255 199 255 206 231 c 1,28,-1
348 118 m 0,41,42
 404 118 404 118 449 147.5 c 128,-1,43
 494 177 494 177 523.5 228 c 128,-1,44
 553 279 553 279 560 345 c 0,45,46
 561 354 561 354 561.5 363 c 128,-1,47
 562 372 562 372 562 380 c 0,48,49
 562 400 562 400 559 417.5 c 128,-1,50
 556 435 556 435 551 451 c 1,51,-1
 241 163 l 1,52,53
 260 142 260 142 286.5 130 c 128,-1,54
 313 118 313 118 348 118 c 0,41,42
EndSplineSet
EndChar

StartChar: Thorn
Encoding: 222 222 181
Width: 623
GlyphClass: 1
Flags: W
LayerCount: 2
Fore
SplineSet
-23 0 m 1,0,-1
 119 668 l 1,1,-1
 280 668 l 1,2,-1
 259 563 l 1,3,-1
 347 563 l 2,4,5
 426 563 426 563 485.5 547.5 c 128,-1,6
 545 532 545 532 578.5 494.5 c 128,-1,7
 612 457 612 457 612 389 c 0,8,9
 612 368 612 368 609 344 c 0,10,11
 599 271 599 271 564 228 c 128,-1,12
 529 185 529 185 478 163.5 c 128,-1,13
 427 142 427 142 369 135 c 128,-1,14
 311 128 311 128 255 128 c 2,15,-1
 166 128 l 1,16,-1
 139 0 l 1,17,-1
 -23 0 l 1,0,-1
196 269 m 1,18,-1
 294 269 l 2,19,20
 350 269 350 269 380 280 c 128,-1,21
 410 291 410 291 423.5 308.5 c 128,-1,22
 437 326 437 326 441 347 c 0,23,24
 444 361 444 361 444 372 c 0,25,26
 444 399 444 399 420.5 412.5 c 128,-1,27
 397 426 397 426 332 426 c 2,28,-1
 230 426 l 1,29,-1
 196 269 l 1,18,-1
EndSplineSet
EndChar

StartChar: ae
Encoding: 230 230 182
Width: 886
GlyphClass: 1
Flags: W
LayerCount: 2
Fore
SplineSet
165 -13 m 0,0,1
 113 -13 113 -13 71.5 2 c 128,-1,2
 30 17 30 17 6 46 c 128,-1,3
 -18 75 -18 75 -18 118 c 0,4,5
 -18 175 -18 175 14.5 210.5 c 128,-1,6
 47 246 47 246 100 265 c 128,-1,7
 153 284 153 284 217.5 291.5 c 128,-1,8
 282 299 282 299 345 299 c 1,9,10
 350 324 350 324 352 335.5 c 128,-1,11
 354 347 354 347 354 353 c 0,12,13
 354 382 354 382 335 394.5 c 128,-1,14
 316 407 316 407 282 407 c 0,15,16
 251 407 251 407 223 392.5 c 128,-1,17
 195 378 195 378 181 348 c 1,18,-1
 63 394 l 1,19,20
 101 452 101 452 160 481 c 128,-1,21
 219 510 219 510 303 510 c 0,22,23
 352 510 352 510 388 494 c 128,-1,24
 424 478 424 478 442 452 c 1,25,26
 477 480 477 480 521 495 c 128,-1,27
 565 510 565 510 627 510 c 0,28,29
 734 510 734 510 792 452 c 128,-1,30
 850 394 850 394 850 297 c 0,31,32
 850 276 850 276 847 254 c 128,-1,33
 844 232 844 232 839 209 c 1,34,-1
 473 209 l 1,35,36
 472 203 472 203 471.5 198 c 128,-1,37
 471 193 471 193 471 188 c 0,38,39
 471 144 471 144 502 125 c 128,-1,40
 533 106 533 106 573 106 c 0,41,42
 603 106 603 106 632 116 c 128,-1,43
 661 126 661 126 678 143 c 1,44,-1
 791 98 l 1,45,46
 749 45 749 45 687 16.5 c 128,-1,47
 625 -12 625 -12 549 -12 c 0,48,49
 485 -12 485 -12 441 13 c 128,-1,50
 397 38 397 38 372 78 c 1,51,52
 329 30 329 30 275 8.5 c 128,-1,53
 221 -13 221 -13 165 -13 c 0,0,1
487 299 m 1,54,-1
 715 299 l 1,55,56
 716 303 716 303 716 306 c 128,-1,57
 716 309 716 309 716 313 c 0,58,59
 716 356 716 356 688 377 c 128,-1,60
 660 398 660 398 622 398 c 0,61,62
 581 398 581 398 541 373.5 c 128,-1,63
 501 349 501 349 487 299 c 1,54,-1
212 91 m 256,64,65
 246 94 246 94 267.5 108 c 128,-1,66
 289 122 289 122 302 141 c 128,-1,67
 315 160 315 160 321.5 178.5 c 128,-1,68
 328 197 328 197 332 209 c 1,69,70
 245 210 245 210 197 199.5 c 128,-1,71
 149 189 149 189 144 145 c 0,72,73
 141 120 141 120 159.5 104 c 128,-1,74
 178 88 178 88 212 91 c 256,64,65
EndSplineSet
EndChar

StartChar: eth
Encoding: 240 240 183
Width: 581
GlyphClass: 1
Flags: W
LayerCount: 2
Fore
SplineSet
228 -12 m 0,0,1
 166 -12 166 -12 122.5 6.5 c 128,-1,2
 79 25 79 25 52.5 56 c 128,-1,3
 26 87 26 87 14 125 c 128,-1,4
 2 163 2 163 2 201 c 0,5,6
 2 275 2 275 35.5 332.5 c 128,-1,7
 69 390 69 390 127.5 423 c 128,-1,8
 186 456 186 456 262 456 c 0,9,10
 303 456 303 456 346 436.5 c 128,-1,11
 389 417 389 417 409 384 c 1,12,13
 411 405 411 405 409 432 c 0,14,15
 407 461 407 461 398 491.5 c 128,-1,16
 389 522 389 522 366 547 c 1,17,-1
 289 483 l 1,18,-1
 252 530 l 1,19,-1
 315 584 l 1,20,21
 296 593 296 593 269 598.5 c 128,-1,22
 242 604 242 604 207 604 c 1,23,-1
 233 726 l 1,24,25
 295 724 295 724 342 710 c 128,-1,26
 389 696 389 696 424 673 c 1,27,-1
 498 734 l 1,28,-1
 535 686 l 1,29,-1
 470 633 l 1,30,31
 515 584 515 584 533.5 514.5 c 128,-1,32
 552 445 552 445 547 371 c 0,33,34
 539 235 539 235 493.5 150.5 c 128,-1,35
 448 66 448 66 379 27 c 128,-1,36
 310 -12 310 -12 228 -12 c 0,0,1
237 101 m 0,37,38
 299 101 299 101 328 140.5 c 128,-1,39
 357 180 357 180 357 238 c 0,40,41
 357 285 357 285 331 311.5 c 128,-1,42
 305 338 305 338 261 338 c 0,43,44
 209 338 209 338 175 300.5 c 128,-1,45
 141 263 141 263 141 205 c 0,46,47
 141 160 141 160 168 130.5 c 128,-1,48
 195 101 195 101 237 101 c 0,37,38
EndSplineSet
EndChar

StartChar: thorn
Encoding: 254 254 184
Width: 589
GlyphClass: 1
Flags: W
LayerCount: 2
Fore
SplineSet
-55 -161 m 1,0,-1
 121 668 l 1,1,-1
 276 668 l 1,2,-1
 227 434 l 1,3,4
 255 475 255 475 295 493 c 128,-1,5
 335 511 335 511 376 511 c 0,6,7
 403 511 403 511 433.5 502 c 128,-1,8
 464 493 464 493 491 470 c 128,-1,9
 518 447 518 447 534.5 407.5 c 128,-1,10
 551 368 551 368 551 306 c 256,11,12
 551 244 551 244 533 187 c 128,-1,13
 515 130 515 130 480.5 85 c 128,-1,14
 446 40 446 40 397.5 14 c 128,-1,15
 349 -12 349 -12 287 -12 c 0,16,17
 261 -12 261 -12 233 -1.5 c 128,-1,18
 205 9 205 9 183 28.5 c 128,-1,19
 161 48 161 48 151 75 c 1,20,-1
 101 -161 l 1,21,-1
 -55 -161 l 1,0,-1
261 107 m 0,22,23
 301 107 301 107 326.5 125 c 128,-1,24
 352 143 352 143 366.5 170 c 128,-1,25
 381 197 381 197 387 225 c 128,-1,26
 393 253 393 253 393 273 c 0,27,28
 393 338 393 338 370 365 c 128,-1,29
 347 392 347 392 306 392 c 0,30,31
 263 392 263 392 233.5 365 c 128,-1,32
 204 338 204 338 188.5 297 c 128,-1,33
 173 256 173 256 173 214 c 0,34,35
 173 162 173 162 200 134.5 c 128,-1,36
 227 107 227 107 261 107 c 0,22,23
EndSplineSet
EndChar

StartChar: multiply
Encoding: 215 215 185
Width: 618
GlyphClass: 1
Flags: W
LayerCount: 2
Fore
SplineSet
149 22 m 1,0,-1
 58 112 l 1,1,-1
 194 248 l 1,2,-1
 55 385 l 1,3,-1
 146 476 l 1,4,-1
 284 337 l 1,5,-1
 421 476 l 1,6,-1
 512 385 l 1,7,-1
 373 248 l 1,8,-1
 509 112 l 1,9,-1
 418 22 l 1,10,-1
 284 158 l 1,11,-1
 149 22 l 1,0,-1
EndSplineSet
EndChar

StartChar: divide
Encoding: 247 247 186
Width: 645
GlyphClass: 1
Flags: W
LayerCount: 2
Fore
SplineSet
296 351 m 256,0,1
 264 351 264 351 240.5 374.5 c 128,-1,2
 217 398 217 398 217 431 c 256,3,4
 217 464 217 464 240.5 487 c 128,-1,5
 264 510 264 510 296 510 c 256,6,7
 328 510 328 510 351.5 487 c 128,-1,8
 375 464 375 464 375 431 c 256,9,10
 375 398 375 398 351.5 374.5 c 128,-1,11
 328 351 328 351 296 351 c 256,0,1
40 186 m 1,12,-1
 40 314 l 1,13,-1
 552 314 l 1,14,-1
 552 186 l 1,15,-1
 40 186 l 1,12,-1
296 -12 m 256,16,17
 264 -12 264 -12 240.5 11.5 c 128,-1,18
 217 35 217 35 217 68 c 0,19,20
 217 100 217 100 240.5 123.5 c 128,-1,21
 264 147 264 147 296 147 c 256,22,23
 328 147 328 147 351.5 123.5 c 128,-1,24
 375 100 375 100 375 68 c 0,25,26
 375 35 375 35 351.5 11.5 c 128,-1,27
 328 -12 328 -12 296 -12 c 256,16,17
EndSplineSet
EndChar

StartChar: OE
Encoding: 338 338 187
Width: 1095
GlyphClass: 1
Flags: W
LayerCount: 2
Fore
SplineSet
328 -12 m 0,0,1
 235 -12 235 -12 168.5 24 c 128,-1,2
 102 60 102 60 66.5 123.5 c 128,-1,3
 31 187 31 187 31 269 c 0,4,5
 31 294 31 294 34 321 c 0,6,7
 48 431 48 431 102 511.5 c 128,-1,8
 156 592 156 592 239.5 636 c 128,-1,9
 323 680 323 680 425 680 c 0,10,11
 493 680 493 680 551 658.5 c 128,-1,12
 609 637 609 637 642 596 c 1,13,-1
 657 668 l 1,14,-1
 1150 668 l 1,15,-1
 1120 529 l 1,16,-1
 764 529 l 1,17,-1
 739 413 l 1,18,-1
 957 413 l 1,19,-1
 928 275 l 1,20,-1
 710 275 l 1,21,-1
 681 140 l 1,22,-1
 1037 140 l 1,23,-1
 1008 0 l 1,24,-1
 515 0 l 1,25,-1
 528 59 l 1,26,27
 491 22 491 22 437 5 c 128,-1,28
 383 -12 383 -12 328 -12 c 0,0,1
348 119 m 0,29,30
 404 119 404 119 449.5 148 c 128,-1,31
 495 177 495 177 524.5 228.5 c 128,-1,32
 554 280 554 280 561 345 c 0,33,34
 562 354 562 354 562.5 363 c 128,-1,35
 563 372 563 372 563 380 c 0,36,37
 563 439 563 439 541.5 476.5 c 128,-1,38
 520 514 520 514 486 532 c 128,-1,39
 452 550 452 550 413 550 c 0,40,41
 365 550 365 550 320 524.5 c 128,-1,42
 275 499 275 499 243.5 448 c 128,-1,43
 212 397 212 397 202 321 c 0,44,45
 201 312 201 312 200.5 303 c 128,-1,46
 200 294 200 294 200 286 c 0,47,48
 200 241 200 241 216.5 203 c 128,-1,49
 233 165 233 165 266 142 c 128,-1,50
 299 119 299 119 348 119 c 0,29,30
EndSplineSet
EndChar

StartChar: oe
Encoding: 339 339 188
Width: 937
GlyphClass: 1
Flags: W
LayerCount: 2
Fore
SplineSet
220 -12 m 0,0,1
 114 -12 114 -12 56.5 39 c 128,-1,2
 -1 90 -1 90 -1 181 c 0,3,4
 -1 210 -1 210 5 243 c 0,5,6
 23 339 23 339 70 398 c 128,-1,7
 117 457 117 457 181 484 c 128,-1,8
 245 511 245 511 314 511 c 0,9,10
 378 511 378 511 420.5 486 c 128,-1,11
 463 461 463 461 483 427 c 1,12,13
 504 453 504 453 539.5 472 c 128,-1,14
 575 491 575 491 616 501 c 128,-1,15
 657 511 657 511 694 511 c 0,16,17
 798 511 798 511 850 455.5 c 128,-1,18
 902 400 902 400 902 307 c 0,19,20
 902 263 902 263 890 210 c 1,21,-1
 522 210 l 1,22,23
 521 204 521 204 520.5 198.5 c 128,-1,24
 520 193 520 193 520 188 c 0,25,26
 520 145 520 145 550.5 125.5 c 128,-1,27
 581 106 581 106 619 106 c 0,28,29
 649 106 649 106 677.5 116 c 128,-1,30
 706 126 706 126 723 143 c 1,31,-1
 834 99 l 1,32,33
 785 46 785 46 724.5 17 c 128,-1,34
 664 -12 664 -12 588 -12 c 0,35,36
 533 -12 533 -12 485.5 6.5 c 128,-1,37
 438 25 438 25 413 56 c 1,38,39
 368 20 368 20 314.5 4 c 128,-1,40
 261 -12 261 -12 220 -12 c 0,0,1
540 300 m 1,41,-1
 766 300 l 1,42,43
 767 305 767 305 767.5 310.5 c 128,-1,44
 768 316 768 316 768 321 c 0,45,46
 768 360 768 360 741 379 c 128,-1,47
 714 398 714 398 678 398 c 0,48,49
 650 398 650 398 621.5 387 c 128,-1,50
 593 376 593 376 571 354 c 128,-1,51
 549 332 549 332 540 300 c 1,41,-1
237 107 m 0,52,53
 280 107 280 107 307.5 127 c 128,-1,54
 335 147 335 147 351.5 180 c 128,-1,55
 368 213 368 213 376 250 c 0,56,57
 382 279 382 279 382 302 c 0,58,59
 382 347 382 347 360 369.5 c 128,-1,60
 338 392 338 392 298 392 c 0,61,62
 252 392 252 392 216.5 361.5 c 128,-1,63
 181 331 181 331 163 259 c 0,64,65
 155 225 155 225 155 198 c 0,66,67
 155 161 155 161 173 134 c 128,-1,68
 191 107 191 107 237 107 c 0,52,53
EndSplineSet
EndChar

StartChar: Eth
Encoding: 208 208 249
Width: 738
GlyphClass: 1
Flags: W
LayerCount: 2
Fore
SplineSet
24 0 m 1,0,-1
 82 275 l 1,1,-1
 6 275 l 1,2,-1
 36 412 l 1,3,-1
 112 412 l 1,4,-1
 166 668 l 1,5,-1
 360 668 l 2,6,7
 536 668 536 668 621 594 c 128,-1,8
 706 520 706 520 706 393 c 0,9,10
 706 263 706 263 647 175.5 c 128,-1,11
 588 88 588 88 484.5 44 c 128,-1,12
 381 0 381 0 247 0 c 2,13,-1
 24 0 l 1,0,-1
214 133 m 1,14,-1
 277 133 l 2,15,16
 405 133 405 133 471.5 205.5 c 128,-1,17
 538 278 538 278 538 402 c 0,18,19
 538 470 538 470 500 503.5 c 128,-1,20
 462 537 462 537 358 537 c 2,21,-1
 300 537 l 1,22,-1
 273 412 l 1,23,-1
 389 412 l 1,24,-1
 359 275 l 1,25,-1
 244 275 l 1,26,-1
 214 133 l 1,14,-1
EndSplineSet
EndChar

StartChar: one.tf
Encoding: 65539 -1 251
Width: 640
GlyphClass: 1
Flags: W
LayerCount: 2
Fore
SplineSet
25 0 m 1,0,-1
 51 124 l 1,1,-1
 207 124 l 1,2,-1
 274 447 l 1,3,-1
 120 447 l 1,4,-1
 147 570 l 1,5,6
 201 570 201 570 238 577.5 c 128,-1,7
 275 585 275 585 303.5 606 c 128,-1,8
 332 627 332 627 357 667 c 1,9,-1
 475 667 l 1,10,-1
 360 124 l 1,11,-1
 501 124 l 1,12,-1
 474 0 l 1,13,-1
 25 0 l 1,0,-1
EndSplineSet
Substitution2: "'pnum' Proportional Numbers lookup 13 subtable" one
Substitution2: "'aalt' Access All Alternates lookup 0 subtable" one
EndChar

StartChar: Aogonek
Encoding: 260 260 262
Width: 698
GlyphClass: 2
Flags: W
AnchorPoint: "Anchor-2" 577 10 basechar 0
AnchorPoint: "Anchor-1" 427 668 basechar 0
AnchorPoint: "Anchor-0" 296 0 basechar 0
LayerCount: 2
Fore
SplineSet
-65 0 m 1,0,-1
 329 668 l 1,1,-1
 512 668 l 1,2,-1
 623 0 l 1,3,4
 602 -2 602 -2 576 -13 c 128,-1,5
 550 -24 550 -24 531.5 -40 c 128,-1,6
 513 -56 513 -56 513 -75 c 0,7,8
 513 -88 513 -88 525.5 -93 c 128,-1,9
 538 -98 538 -98 553 -98 c 256,10,11
 568 -98 568 -98 583 -94 c 128,-1,12
 598 -90 598 -90 604 -89 c 1,13,-1
 588 -164 l 1,14,15
 576 -168 576 -168 551 -171 c 128,-1,16
 526 -174 526 -174 507 -174 c 0,17,18
 460 -174 460 -174 432.5 -162.5 c 128,-1,19
 405 -151 405 -151 394 -133.5 c 128,-1,20
 383 -116 383 -116 383 -99 c 0,21,22
 383 -62 383 -62 414 -36 c 128,-1,23
 445 -10 445 -10 482 0 c 1,24,-1
 458 0 l 1,25,-1
 442 119 l 1,26,-1
 187 119 l 1,27,-1
 121 0 l 1,28,-1
 -65 0 l 1,0,-1
255 247 m 1,29,-1
 427 247 l 1,30,-1
 395 501 l 1,31,-1
 255 247 l 1,29,-1
EndSplineSet
EndChar

StartChar: eogonek
Encoding: 281 281 269
Width: 568
GlyphClass: 2
Flags: W
AnchorPoint: "Anchor-2" 333 2 basechar 0
AnchorPoint: "Anchor-1" 321 496 basechar 0
AnchorPoint: "Anchor-0" 230 0 basechar 0
LayerCount: 2
Fore
SplineSet
219 -173 m 0,0,1
 165 -173 165 -173 137 -159 c 128,-1,2
 109 -145 109 -145 100.5 -124 c 128,-1,3
 92 -103 92 -103 95 -84 c 0,4,5
 98 -62 98 -62 119.5 -40 c 128,-1,6
 141 -18 141 -18 169 -7 c 1,7,8
 91 7 91 7 47 59.5 c 128,-1,9
 3 112 3 112 3 196 c 0,10,11
 3 262 3 262 25.5 319 c 128,-1,12
 48 376 48 376 89 419 c 128,-1,13
 130 462 130 462 185.5 486 c 128,-1,14
 241 510 241 510 307 510 c 0,15,16
 414 510 414 510 472 452.5 c 128,-1,17
 530 395 530 395 530 298 c 0,18,19
 530 277 530 277 527.5 255 c 128,-1,20
 525 233 525 233 519 209 c 1,21,-1
 154 209 l 1,22,23
 153 203 153 203 152.5 198 c 128,-1,24
 152 193 152 193 152 188 c 0,25,26
 152 144 152 144 183 125 c 128,-1,27
 214 106 214 106 254 106 c 0,28,29
 284 106 284 106 312.5 115.5 c 128,-1,30
 341 125 341 125 358 142 c 1,31,-1
 472 98 l 1,32,33
 416 28 416 28 328 2 c 1,34,-1
 329 2 l 1,35,36
 289 -11 289 -11 258.5 -31 c 128,-1,37
 228 -51 228 -51 223 -69 c 0,38,39
 219 -87 219 -87 234 -92 c 128,-1,40
 249 -97 249 -97 265 -97 c 0,41,42
 279 -97 279 -97 294 -93.5 c 128,-1,43
 309 -90 309 -90 316 -88 c 1,44,-1
 300 -164 l 1,45,46
 287 -167 287 -167 262.5 -170 c 128,-1,47
 238 -173 238 -173 219 -173 c 0,0,1
168 299 m 1,48,-1
 395 299 l 1,49,50
 396 303 396 303 396 306 c 128,-1,51
 396 309 396 309 396 313 c 0,52,53
 396 357 396 357 368 378 c 128,-1,54
 340 399 340 399 302 399 c 0,55,56
 262 399 262 399 222 374 c 128,-1,57
 182 349 182 349 168 299 c 1,48,-1
EndSplineSet
EndChar

StartChar: uni0326
Encoding: 806 806 282
Width: 0
GlyphClass: 4
Flags: W
AnchorPoint: "Anchor-3" 38 -251 basemark 0
AnchorPoint: "Anchor-3" 91 0 mark 0
AnchorPoint: "Anchor-0" 91 0 mark 0
LayerCount: 2
Fore
SplineSet
-38 -246 m 1,0,-1
 -81 -201 l 1,1,2
 -31 -201 -31 -201 -0.5 -184.5 c 128,-1,3
 30 -168 30 -168 30 -134 c 0,4,5
 30 -114 30 -114 18.5 -99 c 128,-1,6
 7 -84 7 -84 -15 -80 c 1,7,-1
 86 -40 l 1,8,9
 118 -53 118 -53 134 -75 c 128,-1,10
 150 -97 150 -97 150 -123 c 0,11,12
 150 -164 150 -164 123.5 -192.5 c 128,-1,13
 97 -221 97 -221 54 -234.5 c 128,-1,14
 11 -248 11 -248 -38 -246 c 1,0,-1
EndSplineSet
EndChar

StartChar: uogonek
Encoding: 371 371 292
Width: 584
GlyphClass: 2
Flags: W
AnchorPoint: "Anchor-2" 469 10 basechar 0
AnchorPoint: "Anchor-1" 322 496 basechar 0
AnchorPoint: "Anchor-0" 236 0 basechar 0
LayerCount: 2
Fore
SplineSet
159 -12 m 0,0,1
 104 -12 104 -12 73 8 c 128,-1,2
 42 28 42 28 29.5 61.5 c 128,-1,3
 17 95 17 95 17 134 c 0,4,5
 17 156 17 156 20 177.5 c 128,-1,6
 23 199 23 199 27 220 c 2,7,-1
 86 496 l 1,8,-1
 241 496 l 1,9,-1
 186 235 l 2,10,11
 184 225 184 225 181.5 208.5 c 128,-1,12
 179 192 179 192 179 175 c 0,13,14
 179 149 179 149 189.5 127.5 c 128,-1,15
 200 106 200 106 231 106 c 0,16,17
 270 106 270 106 303 136 c 128,-1,18
 336 166 336 166 350 234 c 2,19,-1
 406 496 l 1,20,-1
 561 496 l 1,21,-1
 456 0 l 1,22,23
 415 -19 415 -19 382 -37 c 128,-1,24
 349 -55 349 -55 349 -75 c 0,25,26
 349 -89 349 -89 363 -93 c 128,-1,27
 377 -97 377 -97 392 -97 c 0,28,29
 406 -97 406 -97 421 -93.5 c 128,-1,30
 436 -90 436 -90 443 -88 c 1,31,-1
 427 -164 l 1,32,33
 414 -167 414 -167 389.5 -170 c 128,-1,34
 365 -173 365 -173 346 -173 c 0,35,36
 297 -173 297 -173 270 -160.5 c 128,-1,37
 243 -148 243 -148 232.5 -129.5 c 128,-1,38
 222 -111 222 -111 222 -94 c 0,39,40
 222 -60 222 -60 252 -33 c 128,-1,41
 282 -6 282 -6 321 3 c 1,42,-1
 316 64 l 1,43,44
 295 30 295 30 255 9 c 128,-1,45
 215 -12 215 -12 159 -12 c 0,0,1
EndSplineSet
EndChar

StartChar: Hbar
Encoding: 294 294 301
Width: 740
GlyphClass: 1
Flags: W
LayerCount: 2
Fore
SplineSet
3 0 m 1,0,-1
 108 496 l 1,1,-1
 50 496 l 1,2,-1
 71 594 l 1,3,-1
 129 594 l 1,4,-1
 145 668 l 1,5,-1
 305 668 l 1,6,-1
 290 594 l 1,7,-1
 566 594 l 1,8,-1
 582 668 l 1,9,-1
 743 668 l 1,10,-1
 727 594 l 1,11,-1
 781 594 l 1,12,-1
 760 496 l 1,13,-1
 706 496 l 1,14,-1
 601 0 l 1,15,-1
 440 0 l 1,16,-1
 498 274 l 1,17,-1
 223 274 l 1,18,-1
 164 0 l 1,19,-1
 3 0 l 1,0,-1
252 413 m 1,20,-1
 528 413 l 1,21,-1
 546 496 l 1,22,-1
 269 496 l 1,23,-1
 252 413 l 1,20,-1
EndSplineSet
EndChar

StartChar: hbar
Encoding: 295 295 302
Width: 644
GlyphClass: 1
Flags: W
LayerCount: 2
Fore
SplineSet
43 0 m 1,0,-1
 161 555 l 1,1,-1
 65 555 l 1,2,-1
 82 633 l 1,3,-1
 177 633 l 1,4,-1
 191 698 l 1,5,-1
 342 698 l 1,6,-1
 328 633 l 1,7,-1
 451 633 l 1,8,-1
 434 555 l 1,9,-1
 312 555 l 1,10,-1
 286 432 l 1,11,12
 307 461 307 461 350.5 485.5 c 128,-1,13
 394 510 394 510 460 510 c 0,14,15
 519 510 519 510 555.5 476.5 c 128,-1,16
 592 443 592 443 592 366 c 0,17,18
 592 347 592 347 589.5 326 c 128,-1,19
 587 305 587 305 582 281 c 2,20,-1
 522 0 l 1,21,-1
 366 0 l 1,22,-1
 422 263 l 2,23,24
 431 302 431 302 431 328 c 0,25,26
 431 362 431 362 417 377 c 128,-1,27
 403 392 403 392 375 392 c 0,28,29
 280 392 280 392 253 254 c 2,30,-1
 199 0 l 1,31,-1
 43 0 l 1,0,-1
EndSplineSet
EndChar

StartChar: dcroat
Encoding: 273 273 318
Width: 638
GlyphClass: 1
Flags: W
LayerCount: 2
Fore
SplineSet
187 -13 m 0,0,1
 105 -13 105 -13 54 42 c 128,-1,2
 3 97 3 97 3 191 c 0,3,4
 3 254 3 254 21.5 311.5 c 128,-1,5
 40 369 40 369 74.5 414 c 128,-1,6
 109 459 109 459 157.5 484.5 c 128,-1,7
 206 510 206 510 267 510 c 0,8,9
 315 510 315 510 352.5 486 c 128,-1,10
 390 462 390 462 406 421 c 1,11,-1
 435 555 l 1,12,-1
 287 555 l 1,13,-1
 304 633 l 1,14,-1
 451 633 l 1,15,-1
 465 698 l 1,16,-1
 620 698 l 1,17,18
 620 698 620 698 616 680.5 c 128,-1,19
 612 663 612 663 606 633 c 1,20,-1
 673 633 l 1,21,-1
 656 555 l 1,22,-1
 589 555 l 1,23,24
 579 509 579 509 568 457 c 128,-1,25
 557 405 557 405 546.5 354.5 c 128,-1,26
 536 304 536 304 527 262 c 128,-1,27
 518 220 518 220 513 193 c 0,28,29
 506 156 506 156 498 105 c 128,-1,30
 490 54 490 54 489 -1 c 1,31,-1
 340 -1 l 1,32,-1
 335 63 l 1,33,34
 304 23 304 23 266 5 c 128,-1,35
 228 -13 228 -13 187 -13 c 0,0,1
248 105 m 0,36,37
 290 105 290 105 319.5 133.5 c 128,-1,38
 349 162 349 162 364 204.5 c 128,-1,39
 379 247 379 247 379 289 c 0,40,41
 379 327 379 327 365 349.5 c 128,-1,42
 351 372 351 372 330.5 382 c 128,-1,43
 310 392 310 392 290 392 c 0,44,45
 245 392 245 392 216 366.5 c 128,-1,46
 187 341 187 341 172.5 301 c 128,-1,47
 158 261 158 261 158 216 c 0,48,49
 158 170 158 170 179.5 137.5 c 128,-1,50
 201 105 201 105 248 105 c 0,36,37
EndSplineSet
EndChar

StartChar: acutecomb.case
Encoding: 65548 -1 332
Width: 0
GlyphClass: 4
Flags: W
AnchorPoint: "Anchor-4" 263 884 basemark 0
AnchorPoint: "Anchor-4" 196 668 mark 0
AnchorPoint: "Anchor-1" 196 668 mark 0
LayerCount: 2
Fore
SplineSet
123 731 m 1,0,1
 159 766 159 766 193.5 800.5 c 128,-1,2
 228 835 228 835 257 863 c 0,3,4
 271 877 271 877 281.5 880.5 c 128,-1,5
 292 884 292 884 301 884 c 0,6,7
 327 884 327 884 342 866.5 c 128,-1,8
 357 849 357 849 357 828 c 0,9,10
 357 802 357 802 337 785 c 0,11,12
 332 781 332 781 317.5 772 c 128,-1,13
 303 763 303 763 286.5 753.5 c 128,-1,14
 270 744 270 744 258 737.5 c 128,-1,15
 246 731 246 731 246 731 c 1,16,-1
 123 731 l 1,0,1
EndSplineSet
EndChar

StartChar: caron.alt
Encoding: 65550 -1 335
Width: 205
GlyphClass: 1
Flags: W
LayerCount: 2
Fore
SplineSet
75 496 m 1,0,1
 89 534 89 534 102 573 c 128,-1,2
 115 612 115 612 128 650 c 0,3,4
 135 670 135 670 150.5 679 c 128,-1,5
 166 688 166 688 182 688 c 0,6,7
 206 688 206 688 221 671.5 c 128,-1,8
 236 655 236 655 236 634 c 0,9,10
 236 621 236 621 232.5 612.5 c 128,-1,11
 229 604 229 604 221 593 c 2,12,-1
 158 496 l 1,13,-1
 75 496 l 1,0,1
EndSplineSet
EndChar

StartChar: uni2074
Encoding: 8308 8308 345
Width: 433
GlyphClass: 1
Flags: W
LayerCount: 2
Fore
SplineSet
250 402 m 1,0,-1
 266 477 l 1,1,-1
 74 477 l 1,2,-1
 91 554 l 1,3,-1
 319 777 l 1,4,-1
 433 777 l 1,5,-1
 388 563 l 1,6,-1
 445 563 l 1,7,-1
 426 477 l 1,8,-1
 369 477 l 1,9,-1
 353 402 l 1,10,-1
 250 402 l 1,0,-1
206 563 m 1,11,-1
 284 563 l 1,12,-1
 304 659 l 1,13,-1
 206 563 l 1,11,-1
EndSplineSet
EndChar

StartChar: gravecomb.case
Encoding: 65555 -1 348
Width: 0
GlyphClass: 4
Flags: W
AnchorPoint: "Anchor-4" 203 884 basemark 0
AnchorPoint: "Anchor-4" 198 668 mark 0
AnchorPoint: "Anchor-1" 198 668 mark 0
LayerCount: 2
Fore
SplineSet
167 731 m 1,0,1
 162 735 162 735 149 746 c 128,-1,2
 136 757 136 757 122.5 770 c 128,-1,3
 109 783 109 783 101 793 c 0,4,5
 88 809 88 809 88 830 c 0,6,7
 88 853 88 853 104.5 868.5 c 128,-1,8
 121 884 121 884 143 884 c 0,9,10
 171 884 171 884 187 863 c 0,11,12
 197 851 197 851 210.5 831 c 128,-1,13
 224 811 224 811 238 789.5 c 128,-1,14
 252 768 252 768 262 751.5 c 128,-1,15
 272 735 272 735 275 731 c 1,16,-1
 167 731 l 1,0,1
EndSplineSet
EndChar

StartChar: uni030B
Encoding: 779 779 349
Width: 0
GlyphClass: 4
Flags: W
AnchorPoint: "Anchor-4" 313 726 basemark 0
AnchorPoint: "Anchor-4" 224 496 mark 0
AnchorPoint: "Anchor-1" 224 496 mark 0
LayerCount: 2
Fore
SplineSet
69 572 m 1,0,1
 69 572 69 572 83.5 586 c 128,-1,2
 98 600 98 600 119 621 c 128,-1,3
 140 642 140 642 161 663 c 128,-1,4
 182 684 182 684 196.5 698.5 c 128,-1,5
 211 713 211 713 212 713 c 0,6,7
 226 726 226 726 247 726 c 0,8,9
 274 726 274 726 290 705 c 0,10,11
 303 689 303 689 303 668 c 0,12,13
 303 641 303 641 282 626 c 0,14,15
 280 625 280 625 266 616.5 c 128,-1,16
 252 608 252 608 235 597.5 c 128,-1,17
 218 587 218 587 205 579.5 c 128,-1,18
 192 572 192 572 192 572 c 1,19,-1
 69 572 l 1,0,1
277 572 m 1,20,21
 277 572 277 572 291 586 c 128,-1,22
 305 600 305 600 326 621 c 128,-1,23
 347 642 347 642 368 663 c 128,-1,24
 389 684 389 684 403.5 698.5 c 128,-1,25
 418 713 418 713 419 713 c 0,26,27
 433 726 433 726 454 726 c 0,28,29
 481 726 481 726 497 705 c 0,30,31
 510 689 510 689 510 668 c 0,32,33
 510 641 510 641 489 626 c 0,34,35
 487 625 487 625 473 616.5 c 128,-1,36
 459 608 459 608 442 597.5 c 128,-1,37
 425 587 425 587 412 579.5 c 128,-1,38
 399 572 399 572 399 572 c 1,39,-1
 277 572 l 1,20,21
EndSplineSet
Substitution2: "'case' Case-Sensitive Forms lookup 15 subtable" uni030B.case
Substitution2: "Single Substitution lookup 7 subtable" uni030B.case
Substitution2: "Single Substitution lookup 6 subtable" uni030B.case
Substitution2: "Single Substitution lookup 4 subtable" uni030B.case
Substitution2: "Single Substitution lookup 3 subtable" uni030B.case
Substitution2: "'aalt' Access All Alternates lookup 0 subtable" uni030B.case
EndChar

StartChar: dotlessi
Encoding: 305 305 351
Width: 326
GlyphClass: 2
Flags: W
AnchorPoint: "Anchor-2" 211 0 basechar 0
AnchorPoint: "Anchor-1" 202 496 basechar 0
AnchorPoint: "Anchor-0" 110 0 basechar 0
LayerCount: 2
Fore
SplineSet
48 0 m 1,0,-1
 129 380 l 1,1,-1
 26 380 l 1,2,-1
 51 496 l 1,3,-1
 309 496 l 1,4,-1
 204 0 l 1,5,-1
 48 0 l 1,0,-1
EndSplineSet
EndChar

StartChar: uni00B5
Encoding: 181 181 356
Width: 599
GlyphClass: 2
Flags: W
AnchorPoint: "Anchor-2" 469 10 basechar 0
LayerCount: 2
Fore
SplineSet
-53 -161 m 1,0,-1
 86 496 l 1,1,-1
 241 496 l 1,2,-1
 186 235 l 2,3,4
 177 195 177 195 177 162 c 0,5,6
 177 137 177 137 191.5 121.5 c 128,-1,7
 206 106 206 106 231 106 c 0,8,9
 270 106 270 106 303 136 c 128,-1,10
 336 166 336 166 350 234 c 2,11,-1
 406 496 l 1,12,-1
 561 496 l 1,13,-1
 490 163 l 2,14,15
 481 124 481 124 526 124 c 0,16,17
 533 124 533 124 539.5 125 c 128,-1,18
 546 126 546 126 554 130 c 1,19,-1
 528 6 l 1,20,21
 509 2 509 2 495 1 c 128,-1,22
 481 0 481 0 466 0 c 0,23,24
 404 0 404 0 369 17 c 128,-1,25
 334 34 334 34 326 72 c 1,26,27
 302 41 302 41 264.5 14.5 c 128,-1,28
 227 -12 227 -12 171 -12 c 0,29,30
 145 -12 145 -12 124 -5 c 1,31,32
 124 -29 124 -29 123 -51.5 c 128,-1,33
 122 -74 122 -74 117 -95 c 2,34,-1
 103 -161 l 1,35,-1
 -53 -161 l 1,0,-1
EndSplineSet
EndChar

StartChar: uni0328.case
Encoding: 65558 -1 358
Width: 0
GlyphClass: 4
Flags: W
AnchorPoint: "Anchor-2" 188 0 mark 0
LayerCount: 2
Fore
SplineSet
72 -174 m 0,0,1
 25 -174 25 -174 -2.5 -162.5 c 128,-1,2
 -30 -151 -30 -151 -41 -133.5 c 128,-1,3
 -52 -116 -52 -116 -52 -99 c 0,4,5
 -52 -62 -52 -62 -21 -36 c 128,-1,6
 10 -10 10 -10 47 0 c 1,7,-1
 188 0 l 1,8,9
 168 -2 168 -2 144 -12 c 128,-1,10
 120 -22 120 -22 101.5 -36.5 c 128,-1,11
 83 -51 83 -51 79 -68 c 0,12,13
 75 -86 75 -86 88.5 -92 c 128,-1,14
 102 -98 102 -98 118 -98 c 0,15,16
 133 -98 133 -98 148 -94 c 128,-1,17
 163 -90 163 -90 169 -89 c 1,18,-1
 153 -164 l 1,19,20
 141 -168 141 -168 116 -171 c 128,-1,21
 91 -174 91 -174 72 -174 c 0,0,1
EndSplineSet
EndChar

StartChar: tildecomb
Encoding: 771 771 365
Width: 0
GlyphClass: 4
Flags: W
AnchorPoint: "Anchor-4" 307 690 basemark 0
AnchorPoint: "Anchor-4" 266 496 mark 0
AnchorPoint: "Anchor-1" 266 496 mark 0
LayerCount: 2
Fore
SplineSet
370 568 m 0,0,1
 342 568 342 568 323.5 574 c 128,-1,2
 305 580 305 580 291 587.5 c 128,-1,3
 277 595 277 595 263 601 c 128,-1,4
 249 607 249 607 229 607 c 0,5,6
 198 607 198 607 178 574 c 1,7,-1
 89 574 l 1,8,9
 98 603 98 603 117.5 629.5 c 128,-1,10
 137 656 137 656 164.5 672.5 c 128,-1,11
 192 689 192 689 225 689 c 0,12,13
 265 689 265 689 288 679 c 128,-1,14
 311 669 311 669 327.5 658.5 c 128,-1,15
 344 648 344 648 364 648 c 0,16,17
 386 648 386 648 397 656 c 128,-1,18
 408 664 408 664 417 674 c 128,-1,19
 426 684 426 684 441 688 c 0,20,21
 444 689 444 689 447 689.5 c 128,-1,22
 450 690 450 690 453 690 c 0,23,24
 469 690 469 690 480.5 678.5 c 128,-1,25
 492 667 492 667 492 651 c 0,26,27
 492 636 492 636 482 623 c 0,28,29
 472 608 472 608 445.5 588 c 128,-1,30
 419 568 419 568 370 568 c 0,0,1
EndSplineSet
Substitution2: "'case' Case-Sensitive Forms lookup 15 subtable" tildecomb.case
Substitution2: "Single Substitution lookup 7 subtable" tildecomb.case
Substitution2: "Single Substitution lookup 6 subtable" tildecomb.case
Substitution2: "Single Substitution lookup 4 subtable" tildecomb.case
Substitution2: "Single Substitution lookup 3 subtable" tildecomb.case
Substitution2: "'aalt' Access All Alternates lookup 0 subtable" tildecomb.case
EndChar

StartChar: copyleft
Encoding: 65562 127279 367
Width: 814
Flags: W
LayerCount: 2
Fore
SplineSet
409 -12 m 4,0,1
 480 -12 480 -12 542.5 15 c 132,-1,2
 605 42 605 42 652.5 89.5 c 132,-1,3
 700 137 700 137 727 199.5 c 132,-1,4
 754 262 754 262 754 334 c 4,5,6
 754 405 754 405 727 467.5 c 132,-1,7
 700 530 700 530 652.5 577.5 c 132,-1,8
 605 625 605 625 542.5 652 c 132,-1,9
 480 679 480 679 409 679 c 4,10,11
 337 679 337 679 274 652 c 132,-1,12
 211 625 211 625 163.5 577.5 c 132,-1,13
 116 530 116 530 89 467.5 c 132,-1,14
 62 405 62 405 62 334 c 4,15,16
 62 262 62 262 89 199.5 c 132,-1,17
 116 137 116 137 163.5 89.5 c 132,-1,18
 211 42 211 42 274 15 c 132,-1,19
 337 -12 337 -12 409 -12 c 4,0,1
409 57 m 260,20,21
 352 57 352 57 301.5 78.5 c 132,-1,22
 251 100 251 100 213 138 c 132,-1,23
 175 176 175 176 153.5 226.5 c 132,-1,24
 132 277 132 277 132 334 c 260,25,26
 132 391 132 391 153.5 441 c 132,-1,27
 175 491 175 491 213 529 c 132,-1,28
 251 567 251 567 301.5 588.5 c 132,-1,29
 352 610 352 610 409 610 c 260,30,31
 466 610 466 610 515.5 588.5 c 132,-1,32
 565 567 565 567 603 529 c 132,-1,33
 641 491 641 491 662.5 441 c 132,-1,34
 684 391 684 391 684 334 c 260,35,36
 684 277 684 277 662.5 226.5 c 132,-1,37
 641 176 641 176 603 138 c 132,-1,38
 565 100 565 100 515.5 78.5 c 132,-1,39
 466 57 466 57 409 57 c 260,20,21
406 145 m 4,40,41
 494 145 494 145 541.5 197 c 132,-1,42
 589 249 589 249 589 334 c 4,43,44
 589 391 589 391 565.5 433 c 132,-1,45
 542 475 542 475 501 498.5 c 132,-1,46
 460 522 460 522 406 522 c 4,47,48
 359 522 359 522 313.5 501.5 c 132,-1,49
 268 481 268 481 243 428 c 5,50,-1
 335 394 l 5,51,52
 344 417 344 417 361 427 c 132,-1,53
 378 437 378 437 400 437 c 4,54,55
 429 437 429 437 453 413.5 c 132,-1,56
 477 390 477 390 477 334 c 4,57,58
 477 276 477 276 452.5 253 c 132,-1,59
 428 230 428 230 400 230 c 4,60,61
 353 230 353 230 334 264 c 5,62,-1
 244 231 l 5,63,64
 272 183 272 183 317 164 c 132,-1,65
 362 145 362 145 406 145 c 4,40,41
EndSplineSet
EndChar

StartChar: zero.alt1
Encoding: 65561 -1 368
Width: 652
Flags: W
LayerCount: 2
Fore
SplineSet
298 -12 m 0,0,1
 205.014648438 -12 205.014648438 -12 146.051757812 30.8251953125 c 0,2,3
 87.7255859375 73.1875 87.7255859375 73.1875 63.1103515625 152.90625 c 0,4,5
 38.97265625 231.07421875 38.97265625 231.07421875 50.2099609375 336.99609375 c 0,6,7
 54.5556640625 373.5234375 54.5556640625 373.5234375 60.1201171875 400.01171875 c 0,8,9
 87.8994140625 532.237304688 87.8994140625 532.237304688 167.827148438 606.931640625 c 0,10,11
 246.95703125 680.879882812 246.95703125 680.879882812 372.956054688 680 c 0,12,13
 512.7578125 679.0234375 512.7578125 679.0234375 575.5625 587.16015625 c 0,14,15
 638.666992188 494.860351562 638.666992188 494.860351562 621.791992188 333.024414062 c 0,16,17
 617.377929688 295.923828125 617.377929688 295.923828125 611.7578125 269.16796875 c 0,18,19
 584.375976562 138.837890625 584.375976562 138.837890625 504.575195312 63.052734375 c 0,20,21
 425.545898438 -12 425.545898438 -12 298 -12 c 0,0,1
205.553710938 227.912109375 m 1,22,-1
 425.053710938 543.379882812 l 1,23,24
 397.87890625 566.5703125 397.87890625 566.5703125 360.87890625 566.827148438 c 0,25,26
 315.87890625 567.142578125 315.87890625 567.142578125 286.319335938 540.84765625 c 128,-1,27
 256.759765625 514.5546875 256.759765625 514.5546875 240.079101562 475.670898438 c 128,-1,28
 223.397460938 436.788085938 223.397460938 436.788085938 215.006835938 396.845703125 c 0,29,30
 211.649414062 380.870117188 211.649414062 380.870117188 209.3984375 365.384765625 c 128,-1,31
 207.145507812 349.889648438 207.145507812 349.889648438 206.209960938 335.907226562 c 0,32,33
 202.706054688 304.931640625 202.706054688 304.931640625 202.54296875 277.932617188 c 128,-1,34
 202.37890625 250.93359375 202.37890625 250.93359375 205.553710938 227.912109375 c 1,22,-1
311.12109375 101.174804688 m 0,35,36
 370.12109375 100.763671875 370.12109375 100.763671875 405.900390625 149.513671875 c 128,-1,37
 441.6796875 198.263671875 441.6796875 198.263671875 457.203125 272.155273438 c 0,38,39
 460.349609375 287.1328125 460.349609375 287.1328125 462.1015625 302.62109375 c 128,-1,40
 463.853515625 318.109375 463.853515625 318.109375 466.209960938 334.091796875 c 0,41,42
 470.341796875 368.0625 470.341796875 368.0625 469.821289062 396.567382812 c 128,-1,43
 469.299804688 425.0703125 469.299804688 425.0703125 466.334960938 449.091796875 c 1,44,-1
 243.78515625 128.645507812 l 1,45,46
 271.12109375 101.453125 271.12109375 101.453125 311.12109375 101.174804688 c 0,35,36
EndSplineSet
Substitution2: "'zero' Slashed Zero lookup 0-1" zero
Substitution2: "'aalt' Access All Alternates lookup 0 subtable" zero
Substitution2: "'tnum' Tabular Numbers lookup 14 subtable" zero
EndChar
